<?xml version="1.0" encoding="UTF-8"?>
<svg width="290px" height="289px" viewBox="0 0 290 289" version="1.1" xmlns="http://www.w3.org/2000/svg" xmlns:xlink="http://www.w3.org/1999/xlink">
    <!-- Generator: Sketch 64 (93537) - https://sketch.com -->
    <title>ai</title>
    <desc>Created with Sketch.</desc>
    <defs>
        <path d="M220,226.117519 L8,226.117519 C3.581722,226.117519 5.41083001e-16,222.535797 0,218.117519 L0,4.69854585 L0,4.69854585 C0,2.10361063 1.44026916,0 3.21693122,0 L224.783069,0 C226.559731,0 228,2.10361063 228,4.69854585 L228,218.117519 C228,222.535797 224.418278,226.117519 220,226.117519 Z" id="path-1"></path>
        <filter x="-4.6%" y="-4.6%" width="109.2%" height="109.3%" filterUnits="objectBoundingBox" id="filter-2">
            <feMorphology radius="1" operator="dilate" in="SourceAlpha" result="shadowSpreadOuter1"></feMorphology>
            <feOffset dx="0" dy="0" in="shadowSpreadOuter1" result="shadowOffsetOuter1"></feOffset>
            <feGaussianBlur stdDeviation="2.5" in="shadowOffsetOuter1" result="shadowBlurOuter1"></feGaussianBlur>
            <feColorMatrix values="0 0 0 0 0   0 0 0 0 0   0 0 0 0 0  0 0 0 0.1 0" type="matrix" in="shadowBlurOuter1"></feColorMatrix>
        </filter>
        <path d="M220,226.117519 L8,226.117519 C3.581722,226.117519 5.41083001e-16,222.535797 0,218.117519 L0,4.69854585 L0,4.69854585 C0,2.10361063 1.44026916,0 3.21693122,0 L224.783069,0 C226.559731,0 228,2.10361063 228,4.69854585 L228,218.117519 C228,222.535797 224.418278,226.117519 220,226.117519 Z" id="path-3"></path>
        <filter x="-2.6%" y="-2.7%" width="105.3%" height="105.3%" filterUnits="objectBoundingBox" id="filter-4">
            <feOffset dx="0" dy="0" in="SourceAlpha" result="shadowOffsetOuter1"></feOffset>
            <feGaussianBlur stdDeviation="2" in="shadowOffsetOuter1" result="shadowBlurOuter1"></feGaussianBlur>
            <feColorMatrix values="0 0 0 0 0   0 0 0 0 0   0 0 0 0 0  0 0 0 0.1 0" type="matrix" in="shadowBlurOuter1"></feColorMatrix>
        </filter>
    </defs>
    <g id="illustrations" stroke="none" stroke-width="1" fill="none" fill-rule="evenodd">
        <g id="ai" transform="translate(5.000000, 6.000000)">
            <g id="browser-window">
                <g id="background-2-copy" transform="translate(140.000000, 139.724786) rotate(-15.000000) translate(-140.000000, -139.724786) translate(26.000000, 25.724786)">
                    <g id="Path" transform="translate(0.000000, 0.304605)">
                        <g id="path-3" fill-rule="nonzero">
                            <use fill="black" fill-opacity="1" filter="url(#filter-2)" xlink:href="#path-1"></use>
                            <use fill="#000000" xlink:href="#path-1"></use>
                        </g>
                        <path d="M220,226.117519 L8,226.117519 C3.581722,226.117519 5.41083001e-16,222.535797 0,218.117519 L0,4.69854585 L0,4.69854585 C0,2.10361063 1.44026916,0 3.21693122,0 L224.783069,0 C226.559731,0 228,2.10361063 228,4.69854585 L228,218.117519 C228,222.535797 224.418278,226.117519 220,226.117519 Z" id="path-3" fill="#805AD5"></path>
                    </g>
                </g>
                <g id="background-2" transform="translate(26.000000, 25.724786)">
                    <g id="Path" transform="translate(0.000000, 0.304605)">
                        <g id="path-3" fill-rule="nonzero">
                            <use fill="black" fill-opacity="1" filter="url(#filter-4)" xlink:href="#path-3"></use>
                            <use fill="#000000" xlink:href="#path-3"></use>
                        </g>
                        <path d="M220,226.117519 L8,226.117519 C3.581722,226.117519 5.41083001e-16,222.535797 0,218.117519 L0,4.69854585 L0,4.69854585 C0,2.10361063 1.44026916,0 3.21693122,0 L224.783069,0 C226.559731,0 228,2.10361063 228,4.69854585 L228,218.117519 C228,222.535797 224.418278,226.117519 220,226.117519 Z" id="path-3" fill="#805AD5"></path>
                    </g>
                </g>
                <g id="Group-8" transform="translate(34.364974, 32.610257)" fill-rule="nonzero">
                    <ellipse id="Oval" fill="#FD7E98" cx="2.53703704" cy="2.53675234" rx="2.53703704" ry="2.53675234"></ellipse>
                    <ellipse id="Oval" fill="#FFD56A" cx="13.6130159" cy="2.53675234" rx="2.53703704" ry="2.53675234"></ellipse>
                    <ellipse id="Oval" fill="#79E2AA" cx="24.6889947" cy="2.53675234" rx="2.53703704" ry="2.53675234"></ellipse>
                </g>
            </g>
            <g id="Group" transform="translate(81.000000, 67.000000)" fill-rule="nonzero">
                <g id="Group-13" transform="translate(0.000000, 89.000000)" fill="#6B46C1">
                    <ellipse id="Oval" cx="50" cy="45.5" rx="1" ry="1"></ellipse>
                    <path d="M54.8267544,42 C54.9284679,42.0933457 54.9908269,42.2290956 54.9990669,42.3751083 C55.0073069,42.521121 54.9606951,42.6644137 54.8702677,42.7710592 C54.846236,42.7710592 54.8267544,42.7926352 54.8267544,42.8192504 C54.2970629,43.0602499 53.7029371,43.0602499 53.1732456,42.8192504 C53.0715321,42.7259047 53.0091731,42.5901549 53.0009331,42.4441421 C52.9926931,42.2981294 53.0393049,42.1548367 53.1297323,42.0481912 L54.8267544,42.0481912 L54.8267544,42 Z" id="Path"></path>
                    <ellipse id="Oval" cx="59" cy="39.5" rx="1" ry="1"></ellipse>
                    <path d="M64.5,36.2226195 C65.1666667,36.3683783 65.1666667,36.659896 64.5,37 L62.5,37 C61.8333333,36.659896 61.8333333,36.3683783 62.5,36.2226195 C63.1152576,35.9257935 63.8847424,35.9257935 64.5,36.2226195 Z" id="Path"></path>
                    <path d="M45.5,42 C46.1666667,42.3851864 46.1666667,42.6259279 45.5,42.8185211 C44.8681215,43.060493 44.1318785,43.060493 43.5,42.8185211 C42.8333333,42.6259279 42.8333333,42.3851864 43.5,42 L45.5,42 Z" id="Path"></path>
                    <ellipse id="Oval" cx="50" cy="39.5" rx="1" ry="1"></ellipse>
                    <ellipse id="Oval" cx="55" cy="36.5" rx="1" ry="1"></ellipse>
                    <path d="M59.3888889,34.1439706 C59.7263962,34.1439706 60,34.3033704 60,34.5 C60,34.6966296 59.7263962,34.8560294 59.3888889,34.8560294 C58.8420976,35.0479902 58.1579024,35.0479902 57.6111111,34.8560294 C57.2736038,34.8560294 57,34.6966296 57,34.5 C57,34.3033704 57.2736038,34.1439706 57.6111111,34.1439706 L57.6111111,34.1439706 C58.1579024,33.9520098 58.8420976,33.9520098 59.3888889,34.1439706 L59.3888889,34.1439706 Z" id="Path"></path>
                    <ellipse id="Oval" cx="40" cy="39.5" rx="1" ry="1"></ellipse>
                    <path d="M45.5,36.2226195 C46.1666667,36.3683783 46.1666667,36.659896 45.5,37 L43.5,37 C42.8333333,36.659896 42.8333333,36.3683783 43.5,36.2226195 C44.1152576,35.9257935 44.8847424,35.9257935 45.5,36.2226195 Z" id="Path"></path>
                    <path d="M50.3888889,34.1439706 C50.7263962,34.1439706 51,34.3033704 51,34.5 C51,34.6966296 50.7263962,34.8560294 50.3888889,34.8560294 C49.8420976,35.0479902 49.1579024,35.0479902 48.6111111,34.8560294 C48.2736038,34.8560294 48,34.6966296 48,34.5 C48,34.3033704 48.2736038,34.1439706 48.6111111,34.1439706 L48.6111111,34.1439706 C49.1579024,33.9520098 49.8420976,33.9520098 50.3888889,34.1439706 Z" id="Path"></path>
                    <ellipse id="Oval" cx="55" cy="31.5" rx="1" ry="1"></ellipse>
                    <path d="M35.5,36.2226195 C36.1666667,36.3683783 36.1666667,36.659896 35.5,37 L33.5,37 C32.8333333,36.659896 32.8333333,36.3683783 33.5,36.2226195 C34.1152576,35.9257935 34.8847424,35.9257935 35.5,36.2226195 Z" id="Path"></path>
                    <path d="M40.3744336,34.1271357 C40.7199244,34.1271357 41,34.2940727 41,34.5 C41,34.7059273 40.7199244,34.8728643 40.3744336,34.8728643 C39.6821552,35.0423786 38.9056644,35.0423786 38.213386,34.8728643 C37.9288713,34.6532112 37.9288713,34.3467888 38.213386,34.1271357 C38.9056644,33.9576214 39.6821552,33.9576214 40.3744336,34.1271357 Z" id="Path"></path>
                    <ellipse id="Oval" cx="44" cy="31.5" rx="1" ry="1"></ellipse>
                    <ellipse id="Oval" cx="50" cy="28.5" rx="1" ry="1"></ellipse>
                    <ellipse id="Oval" cx="55" cy="25.5" rx="1" ry="1"></ellipse>
                    <path d="M31.7905838,34.126299 C32.0698054,34.346445 32.0698054,34.653555 31.7905838,34.873701 C31.0914036,35.0420997 30.3131086,35.0420997 29.6139284,34.873701 C29.2748651,34.873701 29,34.7063893 29,34.5 C29,34.2936107 29.2748651,34.126299 29.6139284,34.126299 C30.3131086,33.9579003 31.0914036,33.9579003 31.7905838,34.126299 Z" id="Path"></path>
                    <ellipse id="Oval" cx="35" cy="31.5" rx="1" ry="1"></ellipse>
                    <path d="M40.5023798,28.1705002 C41.1658734,28.4644901 41.1658734,28.6744828 40.5023798,28.8424771 C39.7681295,29.0525076 38.9445611,29.0525076 38.2103109,28.8424771 C37.9551082,28.6763012 37.9287294,28.4007919 38.1499933,28.2124988 L38.2103109,28.2124988 C38.9209935,27.9447823 39.7724585,27.9291805 40.5023798,28.1705002 L40.5023798,28.1705002 Z" id="Path"></path>
                    <ellipse id="Oval" cx="44" cy="25.5" rx="1" ry="1"></ellipse>
                    <path d="M50.4896907,22.1786675 C51.1701031,22.3393337 51.1701031,22.5401666 50.4896907,22.8213325 C49.8808922,23.0595558 49.1191078,23.0595558 48.5103093,22.8213325 C47.8298969,22.7008328 47.8298969,22.4598334 48.5103093,22.1786675 C49.1191078,21.9404442 49.8808922,21.9404442 50.4896907,22.1786675 Z" id="Path"></path>
                    <path d="M54.8126239,20.1271357 C55.0624587,20.3362816 55.0624587,20.6637184 54.8126239,20.8728643 C54.2919857,21.0423786 53.7080143,21.0423786 53.1873761,20.8728643 C52.9375413,20.6637184 52.9375413,20.3362816 53.1873761,20.1271357 C53.7080143,19.9576214 54.2919857,19.9576214 54.8126239,20.1271357 L54.8126239,20.1271357 Z" id="Path"></path>
                    <path d="M25.3834487,31.1510088 C25.5509642,31.1404073 25.7175433,31.1755055 25.8366606,31.2465004 C25.9557779,31.3174953 26.0146665,31.4167779 25.9968791,31.5166186 C25.9976717,31.6108422 25.9313268,31.7008385 25.8143475,31.7642209 C25.6973682,31.8276033 25.5407489,31.8584149 25.3834487,31.8489912 C24.717465,32.0503363 23.9303092,32.0503363 23.2643255,31.8489912 C23.0962731,31.7606578 23,31.6335476 23,31.5 C23,31.3664524 23.0962731,31.2393422 23.2643255,31.1510088 C23.9303092,30.9496637 24.717465,30.9496637 25.3834487,31.1510088 L25.3834487,31.1510088 Z" id="Path"></path>
                    <path d="M31.5,28.1832549 C32.1666667,28.4632201 32.1666667,28.6631953 31.5,28.8231755 C30.8811978,29.0589415 30.1188022,29.0589415 29.5,28.8231755 C28.8333333,28.6631953 28.8333333,28.4632201 29.5,28.1832549 C30.1152576,27.938915 30.8847424,27.938915 31.5,28.1832549 L31.5,28.1832549 Z" id="Path"></path>
                    <ellipse id="Oval" cx="35" cy="25.5" rx="1" ry="1"></ellipse>
                    <ellipse id="Oval" cx="39" cy="22.5" rx="1" ry="1"></ellipse>
                    <ellipse id="Oval" cx="44" cy="20.5" rx="1" ry="1"></ellipse>
                    <path d="M50.3888889,17.1439706 C50.7263962,17.1439706 51,17.3033704 51,17.5 C51,17.6966296 50.7263962,17.8560294 50.3888889,17.8560294 C49.8420976,18.0479902 49.1579024,18.0479902 48.6111111,17.8560294 C48.2736038,17.8560294 48,17.6966296 48,17.5 C48,17.3033704 48.2736038,17.1439706 48.6111111,17.1439706 L48.6111111,17.1439706 C49.1579024,16.9520098 49.8420976,16.9520098 50.3888889,17.1439706 Z" id="Path"></path>
                    <path d="M55.7656421,14.159594 C55.9023035,14.2340814 55.987223,14.3468646 55.998674,14.4690883 C56.0101249,14.591312 55.9469964,14.7111184 55.8254397,14.7978552 C55.8254397,14.8213553 55.7986674,14.840406 55.7656421,14.840406 C55.037721,15.053198 54.2212518,15.053198 53.4933307,14.840406 C52.8355564,14.5425507 52.8355564,14.2872463 53.4933307,14.159594 C54.2212518,13.946802 55.037721,13.946802 55.7656421,14.159594 L55.7656421,14.159594 Z" id="Path"></path>
                    <path d="M21.4923077,28.182084 C22.1692308,28.4602605 22.1692308,28.658958 21.4923077,28.817916 C20.8675846,29.0606947 20.0862616,29.0606947 19.4615385,28.817916 C18.8461538,28.658958 18.8461538,28.4602605 19.4615385,28.182084 C20.0862616,27.9393053 20.8675846,27.9393053 21.4923077,28.182084 L21.4923077,28.182084 Z" id="Path"></path>
                    <path d="M25.3818031,25.1271357 C25.7232238,25.1271357 26,25.2940727 26,25.5 C26,25.7059273 25.7232238,25.8728643 25.3818031,25.8728643 C24.6976801,26.0423786 23.9303368,26.0423786 23.2462138,25.8728643 C22.9179287,25.6637184 22.9179287,25.3362816 23.2462138,25.1271357 C23.9303368,24.9576214 24.6976801,24.9576214 25.3818031,25.1271357 L25.3818031,25.1271357 Z" id="Path"></path>
                    <ellipse id="Oval" cx="30" cy="22.5" rx="1" ry="1"></ellipse>
                    <ellipse id="Oval" cx="35" cy="20.5" rx="1" ry="1"></ellipse>
                    <ellipse id="Oval" cx="39" cy="17.5" rx="1" ry="1"></ellipse>
                    <ellipse id="Oval" cx="44" cy="14.5" rx="1" ry="1"></ellipse>
                    <path d="M50.3888889,11.1439706 C50.7263962,11.1439706 51,11.3033704 51,11.5 C51,11.6966296 50.7263962,11.8560294 50.3888889,11.8560294 C49.8420976,12.0479902 49.1579024,12.0479902 48.6111111,11.8560294 C48.2736038,11.8560294 48,11.6966296 48,11.5 C48,11.3033704 48.2736038,11.1439706 48.6111111,11.1439706 L48.6111111,11.1439706 C49.1579024,10.9520098 49.8420976,10.9520098 50.3888889,11.1439706 Z" id="Path"></path>
                    <path d="M16.786614,25.1271357 C17.0711287,25.3467888 17.0711287,25.6532112 16.786614,25.8728643 C16.0943356,26.0423786 15.3178448,26.0423786 14.6255664,25.8728643 C14.2800756,25.8728643 14,25.7059273 14,25.5 C14,25.2940727 14.2800756,25.1271357 14.6255664,25.1271357 C15.3178448,24.9576214 16.0943356,24.9576214 16.786614,25.1271357 L16.786614,25.1271357 Z" id="Path"></path>
                    <path d="M21.4,22.1241855 C21.7313708,22.1241855 22,22.2864487 22,22.4866105 C22,22.6867723 21.7313708,22.8490355 21.4,22.8490355 C20.8462682,23.0503215 20.1537318,23.0503215 19.6,22.8490355 C19.2686292,22.8490355 19,22.6867723 19,22.4866105 C19,22.2864487 19.2686292,22.1241855 19.6,22.1241855 L19.6,22.1241855 C20.1686907,21.9586048 20.8313093,21.9586048 21.4,22.1241855 L21.4,22.1241855 Z" id="Path"></path>
                    <path d="M25.5123153,20.1271357 C26.1625616,20.3305162 26.1625616,20.5 25.5123153,20.8728643 C24.7927251,21.0423786 23.9856001,21.0423786 23.2660099,20.8728643 C22.91133,20.5 22.91133,20.3305162 23.2660099,20.1271357 C23.9856001,19.9576214 24.7927251,19.9576214 25.5123153,20.1271357 L25.5123153,20.1271357 Z" id="Path"></path>
                    <path d="M31.4,17.1477897 C31.7313708,17.1477897 32,17.3066405 32,17.5025929 C32,17.6985453 31.7313708,17.8573962 31.4,17.8573962 C30.8430781,18.0475346 30.1569219,18.0475346 29.6,17.8573962 C29.2686292,17.8573962 29,17.6985453 29,17.5025929 C29,17.3066405 29.2686292,17.1477897 29.6,17.1477897 L29.6,17.1477897 C30.1537318,16.9507368 30.8462682,16.9507368 31.4,17.1477897 L31.4,17.1477897 Z" id="Path"></path>
                    <path d="M35.5,14.1832549 C36.1666667,14.30324 36.1666667,14.5432102 35.5,14.8231755 C34.8811978,15.0589415 34.1188022,15.0589415 33.5,14.8231755 C32.8333333,14.5432102 32.8333333,14.30324 33.5,14.1832549 C34.1152576,13.938915 34.8847424,13.938915 35.5,14.1832549 Z" id="Path"></path>
                    <ellipse id="Oval" cx="39" cy="11.5" rx="1" ry="1"></ellipse>
                    <ellipse id="Oval" cx="44" cy="8.5" rx="1" ry="1"></ellipse>
                    <path d="M12.3888889,22.1242078 C12.7263962,22.1242078 13,22.2872876 13,22.4884567 C13,22.6896258 12.7263962,22.8527056 12.3888889,22.8527056 C11.8420976,23.0490981 11.1579024,23.0490981 10.6111111,22.8527056 C10.2736038,22.8527056 10,22.6896258 10,22.4884567 C10,22.2872876 10.2736038,22.1242078 10.6111111,22.1242078 C11.1711348,21.9585974 11.8288652,21.9585974 12.3888889,22.1242078 Z" id="Path"></path>
                    <ellipse id="Oval" cx="15" cy="20.5" rx="1" ry="1"></ellipse>
                    <path d="M21.4,17.1470273 C21.7313708,17.1470273 22,17.3050585 22,17.5 C22,17.6949415 21.7313708,17.8529727 21.4,17.8529727 C20.8462682,18.0490091 20.1537318,18.0490091 19.6,17.8529727 C19.2686292,17.8529727 19,17.6949415 19,17.5 C19,17.3050585 19.2686292,17.1470273 19.6,17.1470273 L19.6,17.1470273 C20.1537318,16.9509909 20.8462682,16.9509909 21.4,17.1470273 L21.4,17.1470273 Z" id="Path"></path>
                    <path d="M25.5066693,14.159594 C26.1644436,14.2872463 26.1644436,14.5425507 25.5066693,14.840406 C24.7787482,15.053198 23.962279,15.053198 23.2343579,14.840406 C23.0976965,14.7659186 23.012777,14.6531354 23.001326,14.5309117 C22.9898751,14.408688 23.0530036,14.2888816 23.1745603,14.2021448 C23.1745603,14.159594 23.1745603,14.159594 23.2343579,14.159594 C23.962279,13.946802 24.7787482,13.946802 25.5066693,14.159594 Z" id="Path"></path>
                    <ellipse id="Oval" cx="30" cy="11.5" rx="1" ry="1"></ellipse>
                    <ellipse id="Oval" cx="35" cy="8.5" rx="1" ry="1"></ellipse>
                    <ellipse id="Oval" cx="39" cy="6.5" rx="1" ry="1"></ellipse>
                    <ellipse id="Oval" cx="6" cy="20.5" rx="1" ry="1"></ellipse>
                    <path d="M12.3888889,17.1439706 C12.7263962,17.1439706 13,17.3033704 13,17.5 C13,17.6966296 12.7263962,17.8560294 12.3888889,17.8560294 C11.8420976,18.0479902 11.1579024,18.0479902 10.6111111,17.8560294 C10.2736038,17.8560294 10,17.6966296 10,17.5 C10,17.3033704 10.2736038,17.1439706 10.6111111,17.1439706 C11.1579024,16.9520098 11.8420976,16.9520098 12.3888889,17.1439706 Z" id="Path"></path>
                    <path d="M16.7896891,14.159594 C17.0448918,14.3279548 17.0712706,14.6070864 16.8500067,14.7978552 C16.8500067,14.8213553 16.8230016,14.840406 16.7896891,14.840406 C16.0554389,15.053198 15.2318705,15.053198 14.4976202,14.840406 C13.8341266,14.5425507 13.8341266,14.2872463 14.4976202,14.159594 C15.2318705,13.946802 16.0554389,13.946802 16.7896891,14.159594 L16.7896891,14.159594 Z" id="Path"></path>
                    <path d="M21.4,11.1470273 C21.7313708,11.1470273 22,11.3050585 22,11.5 C22,11.6949415 21.7313708,11.8529727 21.4,11.8529727 C20.8462682,12.0490091 20.1537318,12.0490091 19.6,11.8529727 C19.2686292,11.8529727 19,11.6949415 19,11.5 C19,11.3050585 19.2686292,11.1470273 19.6,11.1470273 L19.6,11.1470273 C20.1537318,10.9509909 20.8462682,10.9509909 21.4,11.1470273 Z" id="Path"></path>
                    <path d="M25.3818031,8.12713572 C25.7232238,8.12713572 26,8.29407275 26,8.5 C26,8.70592725 25.7232238,8.87286428 25.3818031,8.87286428 C24.6976801,9.04237857 23.9303368,9.04237857 23.2462138,8.87286428 C22.9179287,8.66371844 22.9179287,8.33628156 23.2462138,8.12713572 C23.9303368,7.95762143 24.6976801,7.95762143 25.3818031,8.12713572 L25.3818031,8.12713572 Z" id="Path"></path>
                    <path d="M31.4,6 C31.7313708,6 32,6.22385763 32,6.5 C32,6.77614237 31.7313708,7 31.4,7 L29.6,7 C29.2686292,7 29,6.77614237 29,6.5 C29,6.22385763 29.2686292,6 29.6,6 L31.4,6 Z" id="Path"></path>
                    <ellipse id="Oval" cx="35" cy="3.5" rx="1" ry="1"></ellipse>
                    <path d="M1.81006972,17.1271357 C2.06331009,17.3362816 2.06331009,17.6637184 1.81006972,17.8728643 C1.28233453,18.0423786 0.690402836,18.0423786 0.162667651,17.8728643 C-0.0542225504,17.6532112 -0.0542225504,17.3467888 0.162667651,17.1271357 C0.690402836,16.9576214 1.28233453,16.9576214 1.81006972,17.1271357 Z" id="Path"></path>
                    <ellipse id="Oval" cx="6" cy="14.5" rx="1" ry="1"></ellipse>
                    <ellipse id="Oval" cx="11" cy="11.5" rx="1" ry="1"></ellipse>
                    <path d="M16.786614,8.12713572 C17.0711287,8.34678883 17.0711287,8.65321117 16.786614,8.87286428 C16.0943356,9.04237857 15.3178448,9.04237857 14.6255664,8.87286428 C14.2800756,8.87286428 14,8.70592725 14,8.5 C14,8.29407275 14.2800756,8.12713572 14.6255664,8.12713572 C15.3178448,7.95762143 16.0943356,7.95762143 16.786614,8.12713572 L16.786614,8.12713572 Z" id="Path"></path>
                    <ellipse id="Oval" cx="25" cy="3.5" rx="1" ry="1"></ellipse>
                    <path d="M31.5,0 C32.1666667,0.342781675 32.1666667,0.636594539 31.5,0.783500971 C30.8811978,1.07216634 30.1188022,1.07216634 29.5,0.783500971 C28.8333333,0.636594539 28.8333333,0.342781675 29.5,0 L31.5,0 Z" id="Path"></path>
                    <path d="M1.81006972,11.1271357 C2.06331009,11.3362816 2.06331009,11.6637184 1.81006972,11.8728643 C1.28233453,12.0423786 0.690402836,12.0423786 0.162667651,11.8728643 C-0.0542225504,11.6532112 -0.0542225504,11.3467888 0.162667651,11.1271357 C0.690402836,10.9576214 1.28233453,10.9576214 1.81006972,11.1271357 Z" id="Path"></path>
                    <ellipse id="Oval" cx="6" cy="8.5" rx="1" ry="1"></ellipse>
                    <ellipse id="Oval" cx="11" cy="6.5" rx="1" ry="1"></ellipse>
                    <ellipse id="Oval" cx="1" cy="6.5" rx="1" ry="1"></ellipse>
                    <path d="M6.4,3.14702727 C6.73137085,3.14702727 7,3.30505854 7,3.5 C7,3.69494146 6.73137085,3.85297273 6.4,3.85297273 C5.84626816,4.04900909 5.15373184,4.04900909 4.6,3.85297273 C4.26862915,3.85297273 4,3.69494146 4,3.5 C4,3.30505854 4.26862915,3.14702727 4.6,3.14702727 C5.15373184,2.95099091 5.84626816,2.95099091 6.4,3.14702727 Z" id="Path"></path>
                    <ellipse id="Oval" cx="98" cy="56.5" rx="1" ry="1"></ellipse>
                    <ellipse id="Oval" cx="103" cy="53.5" rx="1" ry="1"></ellipse>
                    <path d="M108.4,50.1248468 C108.731371,50.1248468 109,50.2879741 109,50.4892019 C109,50.6904297 108.731371,50.853557 108.4,50.853557 C107.843078,51.0488143 107.156922,51.0488143 106.6,50.853557 C106.268629,50.853557 106,50.6904297 106,50.4892019 C106,50.2879741 106.268629,50.1248468 106.6,50.1248468 C107.168691,49.9583844 107.831309,49.9583844 108.4,50.1248468 L108.4,50.1248468 Z" id="Path"></path>
                    <path d="M113.538462,47.1470273 C114.153846,47.5 114.153846,47.6604422 113.538462,47.8529727 C112.913738,48.0490091 112.132415,48.0490091 111.507692,47.8529727 C110.830769,47.6604422 110.830769,47.5 111.507692,47.1470273 C112.132415,46.9509909 112.913738,46.9509909 113.538462,47.1470273 L113.538462,47.1470273 Z" id="Path"></path>
                    <ellipse id="Oval" cx="117" cy="44.5" rx="1" ry="1"></ellipse>
                    <ellipse id="Oval" cx="89" cy="56.5" rx="1" ry="1"></ellipse>
                    <ellipse id="Oval" cx="93" cy="53.5" rx="1" ry="1"></ellipse>
                    <path d="M99.4,50.1248468 C99.7313708,50.1248468 100,50.2879741 100,50.4892019 C100,50.6904297 99.7313708,50.853557 99.4,50.853557 C98.8430781,51.0488143 98.1569219,51.0488143 97.6,50.853557 C97.2686292,50.853557 97,50.6904297 97,50.4892019 C97,50.2879741 97.2686292,50.1248468 97.6,50.1248468 L97.6,50.1248468 C98.1686907,49.9583844 98.8313093,49.9583844 99.4,50.1248468 L99.4,50.1248468 Z" id="Path"></path>
                    <path d="M103.514706,47.126299 C104.161765,47.5 104.161765,47.6698641 103.514706,47.873701 C102.777795,48.0420997 101.957499,48.0420997 101.220588,47.873701 C100.926471,47.6698641 100.926471,47.5 101.220588,47.126299 C101.957499,46.9579003 102.777795,46.9579003 103.514706,47.126299 Z" id="Path"></path>
                    <ellipse id="Oval" cx="108" cy="44.5" rx="1" ry="1"></ellipse>
                    <path d="M113.4,41.1470273 C113.731371,41.1470273 114,41.3050585 114,41.5 C114,41.6949415 113.731371,41.8529727 113.4,41.8529727 C112.846268,42.0490091 112.153732,42.0490091 111.6,41.8529727 C111.268629,41.8529727 111,41.6949414 111,41.5 C111,41.3050586 111.268629,41.1470273 111.6,41.1470273 C112.153732,40.9509909 112.846268,40.9509909 113.4,41.1470273 L113.4,41.1470273 Z" id="Path"></path>
                    <path d="M117.825256,39.159594 C117.927849,39.2420143 117.990748,39.3618755 117.999059,39.4907984 C118.00737,39.6197213 117.960355,39.7462426 117.869145,39.840406 L117.825256,39.840406 C117.290982,40.053198 116.691716,40.053198 116.157442,39.840406 C115.965669,39.6576158 115.946747,39.3641116 116.113552,39.159594 L116.157442,39.159594 C116.691716,38.946802 117.290982,38.946802 117.825256,39.159594 L117.825256,39.159594 Z" id="Path"></path>
                    <path d="M79.8126239,56.1271357 C80.0624587,56.3362816 80.0624587,56.6637184 79.8126239,56.8728643 C79.2919857,57.0423786 78.7080143,57.0423786 78.1873761,56.8728643 C77.9375413,56.6637184 77.9375413,56.3362816 78.1873761,56.1271357 C78.7080143,55.9576214 79.2919857,55.9576214 79.8126239,56.1271357 L79.8126239,56.1271357 Z" id="Path"></path>
                    <ellipse id="Oval" cx="83" cy="53.5" rx="1" ry="1"></ellipse>
                    <path d="M89.4,50.1248468 C89.7313708,50.1248468 90,50.2879741 90,50.4892019 C90,50.6904297 89.7313708,50.853557 89.4,50.853557 C88.8430781,51.0488143 88.1569219,51.0488143 87.6,50.853557 C87.2686292,50.853557 87,50.6904297 87,50.4892019 C87,50.2879741 87.2686292,50.1248468 87.6,50.1248468 L87.6,50.1248468 C88.1686907,49.9583844 88.8313093,49.9583844 89.4,50.1248468 L89.4,50.1248468 Z" id="Path"></path>
                    <ellipse id="Oval" cx="93" cy="47.5" rx="1" ry="1"></ellipse>
                    <path d="M99.4,44.1477897 C99.7313708,44.1477897 100,44.3066405 100,44.5025929 C100,44.6985453 99.7313708,44.8573962 99.4,44.8573962 C98.8430781,45.0475346 98.1569219,45.0475346 97.6,44.8573962 C97.2686292,44.8573962 97,44.6985453 97,44.5025929 C97,44.3066405 97.2686292,44.1477897 97.6,44.1477897 L97.6,44.1477897 C98.1537318,43.9507368 98.8462682,43.9507368 99.4,44.1477897 L99.4,44.1477897 Z" id="Path"></path>
                    <path d="M103.386072,41.126299 C103.725135,41.126299 104,41.2936107 104,41.5 C104,41.7063893 103.725135,41.873701 103.386072,41.873701 C102.686891,42.0420997 101.908596,42.0420997 101.209416,41.873701 C100.930195,41.653555 100.930195,41.346445 101.209416,41.126299 C101.908596,40.9579003 102.686891,40.9579003 103.386072,41.126299 L103.386072,41.126299 Z" id="Path"></path>
                    <path d="M108.5,39.1807393 C109.166667,39.3385233 109.166667,39.5357534 108.5,39.8513214 C107.868121,40.0495595 107.131879,40.0495595 106.5,39.8513214 C105.833333,39.5357534 105.833333,39.3385233 106.5,39.1807393 C107.115258,38.9397536 107.884742,38.9397536 108.5,39.1807393 Z" id="Path"></path>
                    <ellipse id="Oval" cx="113" cy="36.5" rx="1" ry="1"></ellipse>
                    <path d="M117.805405,33.1271357 C118.064865,33.5 118.064865,33.7033805 117.805405,33.8728643 C117.279002,34.0423786 116.688565,34.0423786 116.162162,33.8728643 C115.945946,33.7033805 115.945946,33.5 116.162162,33.1271357 C116.688565,32.9576214 117.279002,32.9576214 117.805405,33.1271357 L117.805405,33.1271357 Z" id="Path"></path>
                    <path d="M70.4,56.1426038 C70.7313709,56.1426038 71,56.3014547 71,56.4974071 C71,56.6933595 70.7313709,56.8522103 70.4,56.8522103 C69.8462682,57.0492632 69.1537319,57.0492632 68.6000001,56.8522103 C68.3856407,56.8522103 68.1875645,56.7845852 68.0803848,56.6748087 C67.9732051,56.5650322 67.9732051,56.4297819 68.0803848,56.3200054 C68.1875645,56.2102289 68.3856407,56.1426038 68.6000001,56.1426038 C69.156922,55.9524654 69.8430781,55.9524654 70.4,56.1426038 Z" id="Path"></path>
                    <ellipse id="Oval" cx="74" cy="53.5" rx="1" ry="1"></ellipse>
                    <path d="M79.4,50.1241855 C79.7313708,50.1241855 80,50.2864487 80,50.4866105 C80,50.6867723 79.7313708,50.8490355 79.4,50.8490355 C78.8462682,51.0503215 78.1537318,51.0503215 77.6,50.8490355 C77.2686292,50.8490355 77,50.6867723 77,50.4866105 C77,50.2864487 77.2686292,50.1241855 77.6,50.1241855 C78.1686907,49.9586048 78.8313093,49.9586048 79.4,50.1241855 L79.4,50.1241855 Z" id="Path"></path>
                    <path d="M84.388889,47.1439706 C84.7263963,47.1439707 85,47.3033704 85,47.5 C85,47.6966296 84.7263963,47.8560293 84.388889,47.8560294 C83.8420976,48.0479902 83.1579024,48.0479902 82.611111,47.8560294 C82.2736037,47.8560293 82,47.6966296 82,47.5 C82,47.3033704 82.2736037,47.1439707 82.611111,47.1439706 C83.1579024,46.9520098 83.8420976,46.9520098 84.388889,47.1439706 L84.388889,47.1439706 Z" id="Path"></path>
                    <path d="M89.8289999,44.159594 C89.9287154,44.2340814 89.9906772,44.3468646 89.9990325,44.4690883 C90.0073877,44.591312 89.9613257,44.7111184 89.8726315,44.7978552 C89.8726315,44.8213553 89.853097,44.840406 89.8289999,44.840406 C89.2978698,45.053198 88.7021302,45.053198 88.1710001,44.840406 C88.0712846,44.7659186 88.0093228,44.6531354 88.0009675,44.5309117 C87.9926123,44.408688 88.0386743,44.2888816 88.1273685,44.2021448 C88.1273685,44.159594 88.1273685,44.159594 88.1710001,44.159594 C88.7021302,43.946802 89.2978698,43.946802 89.8289999,44.159594 Z" id="Path"></path>
                    <path d="M94.3888889,41.1439706 C94.7263962,41.1439706 95,41.3033704 95,41.5 C95,41.6966296 94.7263962,41.8560294 94.3888889,41.8560294 C93.8420976,42.0479902 93.1579024,42.0479902 92.6111111,41.8560294 C92.2736038,41.8560294 92,41.6966296 92,41.5 C92,41.3033704 92.2736038,41.1439706 92.6111111,41.1439706 C93.1579024,40.9520098 93.8420976,40.9520098 94.3888889,41.1439706 L94.3888889,41.1439706 Z" id="Path"></path>
                    <path d="M99.5,39.1807393 C100.166667,39.3385233 100.166667,39.5357534 99.5,39.8513214 C98.8681215,40.0495595 98.1318785,40.0495595 97.5,39.8513214 C96.8333333,39.5357534 96.8333333,39.3385233 97.5,39.1807393 C98.1152576,38.9397536 98.8847424,38.9397536 99.5,39.1807393 Z" id="Path"></path>
                    <path d="M103.790584,36.126299 C104.069805,36.346445 104.069805,36.653555 103.790584,36.873701 C103.091404,37.0420997 102.313109,37.0420997 101.613928,36.873701 C101.274865,36.8737009 101,36.7063893 101,36.5 C101,36.2936107 101.274865,36.1262991 101.613928,36.126299 C102.313109,35.9579003 103.091404,35.9579003 103.790584,36.126299 L103.790584,36.126299 Z" id="Path"></path>
                    <path d="M108.4,33.1477897 C108.731371,33.1477897 109,33.3066405 109,33.5025929 C109,33.6985453 108.731371,33.8573962 108.4,33.8573962 C107.843078,34.0475346 107.156922,34.0475346 106.6,33.8573962 C106.268629,33.8573962 106,33.6985453 106,33.5025929 C106,33.3066405 106.268629,33.1477897 106.6,33.1477897 C107.153732,32.9507368 107.846268,32.9507368 108.4,33.1477897 L108.4,33.1477897 Z" id="Path"></path>
                    <path d="M113.550784,30 C114.149739,30.3378762 114.149739,30.6274843 113.550784,30.8205564 C112.800443,31.0598145 111.965199,31.0598145 111.214858,30.8205564 C110.953149,30.6132059 110.927327,30.2802653 111.154963,30.048268 C111.170848,30.048268 111.186082,30.0431827 111.197315,30.0341306 C111.208548,30.0250786 111.214858,30.0128015 111.214858,30 L113.550784,30 Z" id="Path"></path>
                    <path d="M118.399996,27 C118.731365,27 119,27.2339584 119,27.5225608 C119.000768,27.6572332 118.935876,27.7858635 118.821459,27.8764551 C118.707041,27.9670467 118.553852,28.0110852 118.399996,27.9976161 L116.600004,27.9976161 C116.446148,28.0110852 116.292959,27.9670467 116.178541,27.8764551 C116.064124,27.7858635 115.999232,27.6572332 116,27.5225608 C116,27.2339584 116.268635,27 116.600004,27 L118.399996,27 L118.399996,27 Z" id="Path"></path>
                    <ellipse id="Oval" cx="64" cy="53.5" rx="1" ry="1"></ellipse>
                    <path d="M70.4,50.1241855 C70.7313708,50.1241855 71,50.2864487 71,50.4866105 C71,50.6867723 70.7313708,50.8490355 70.4,50.8490355 C69.8462682,51.0503215 69.1537318,51.0503215 68.6,50.8490355 C68.2686292,50.8490355 68,50.6867723 68,50.4866105 C68,50.2864487 68.2686292,50.1241855 68.6,50.1241855 C69.1686907,49.9586048 69.8313093,49.9586048 70.4,50.1241855 L70.4,50.1241855 Z" id="Path"></path>
                    <path d="M75.3744337,47.1271357 C75.7199245,47.1271358 76,47.2940728 76,47.5 C76,47.7059272 75.7199245,47.8728642 75.3744337,47.8728643 C74.6821553,48.0423786 73.9056644,48.0423786 73.213386,47.8728643 C72.9288713,47.6532112 72.9288713,47.3467888 73.213386,47.1271357 C73.9056644,46.9576214 74.6821553,46.9576214 75.3744337,47.1271357 L75.3744337,47.1271357 Z" id="Path"></path>
                    <path d="M79.5,44.182084 C80.1666667,44.3013025 80.1666667,44.5397395 79.5,44.817916 C78.8847424,45.0606947 78.1152576,45.0606947 77.5,44.817916 C76.8333333,44.6986975 76.8333333,44.4602605 77.5,44.182084 C78.1152576,43.9393053 78.8847424,43.9393053 79.5,44.182084 L79.5,44.182084 Z" id="Path"></path>
                    <ellipse id="Oval" cx="83" cy="41.5" rx="1" ry="1"></ellipse>
                    <ellipse id="Oval" cx="89" cy="39.5" rx="1" ry="1"></ellipse>
                    <ellipse id="Oval" cx="93" cy="36.5" rx="1" ry="1"></ellipse>
                    <path d="M99.4,33.1477897 C99.7313708,33.1477897 100,33.3066405 100,33.5025929 C100,33.6985453 99.7313708,33.8573962 99.4,33.8573962 C98.8430781,34.0475346 98.1569219,34.0475346 97.6,33.8573962 C97.2686292,33.8573962 97,33.6985453 97,33.5025929 C97,33.3066405 97.2686292,33.1477897 97.6,33.1477897 L97.6,33.1477897 C98.1537318,32.9507368 98.8462682,32.9507368 99.4,33.1477897 L99.4,33.1477897 Z" id="Path"></path>
                    <ellipse id="Oval" cx="102" cy="30.5" rx="1" ry="1"></ellipse>
                    <path d="M108.399996,27 C108.731365,27 109,27.2339584 109,27.5225608 C109.000768,27.6572332 108.935876,27.7858635 108.821459,27.8764551 C108.707041,27.9670467 108.553852,28.0110852 108.399996,27.9976161 L106.600004,27.9976161 C106.446148,28.0110852 106.292959,27.9670467 106.178541,27.8764551 C106.064124,27.7858635 105.999232,27.6572332 106,27.5225608 C106,27.2339584 106.268635,27 106.600004,27 L108.399996,27 Z" id="Path"></path>
                    <path d="M113.54988,25.202915 C114.15004,25.3523684 114.15004,25.6512753 113.54988,26 L111.209259,26 C110.955333,25.8028856 110.929086,25.4760822 111.149243,25.2527328 L111.209259,25.2527328 C111.937473,24.9342302 112.80296,24.9158091 113.54988,25.202915 L113.54988,25.202915 Z" id="Path"></path>
                    <path d="M60.4,50.1241855 C60.7313708,50.1241855 61,50.2864487 61,50.4866105 C61,50.6867723 60.7313708,50.8490355 60.4,50.8490355 C59.8462682,51.0503215 59.1537318,51.0503215 58.6,50.8490355 C58.2686292,50.8490355 58,50.6867723 58,50.4866105 C58,50.2864487 58.2686292,50.1241855 58.6,50.1241855 L58.6,50.1241855 C59.1686907,49.9586048 59.8313093,49.9586048 60.4,50.1241855 L60.4,50.1241855 Z" id="Path"></path>
                    <path d="M64.7537862,47.1271357 C65.0820713,47.3362816 65.0820713,47.6637184 64.7537862,47.8728643 C64.0696632,48.0423786 63.3023198,48.0423786 62.6181968,47.8728643 C62.2767761,47.8728642 62,47.7059272 62,47.5 C62,47.2940728 62.2767761,47.1271358 62.6181968,47.1271357 L62.6181968,47.1271357 C63.3023198,46.9576214 64.0696632,46.9576214 64.7537862,47.1271357 L64.7537862,47.1271357 Z" id="Path"></path>
                    <ellipse id="Oval" cx="69" cy="44.5" rx="1" ry="1"></ellipse>
                    <ellipse id="Oval" cx="74" cy="41.5" rx="1" ry="1"></ellipse>
                    <ellipse id="Oval" cx="108" cy="22.5" rx="1" ry="1"></ellipse>
                    <path d="M55.4000001,47.1477897 C55.7313709,47.1477898 56,47.3066406 56,47.5025929 C56,47.6985453 55.7313709,47.8573961 55.4000001,47.8573962 C54.8430781,48.0475346 54.1569219,48.0475346 53.5999999,47.8573962 C53.2686291,47.8573961 53,47.6985453 53,47.5025929 C53,47.3066406 53.2686291,47.1477898 53.5999999,47.1477897 C54.1537318,46.9507368 54.8462682,46.9507368 55.4000001,47.1477897 Z" id="Path"></path>
                    <ellipse id="Oval" cx="59" cy="44.5" rx="1" ry="1"></ellipse>
                    <ellipse id="Oval" cx="64" cy="41.5" rx="1" ry="1"></ellipse>
                    <path d="M70.5,39.1755103 C71.1666667,39.3343014 71.1666667,39.5327903 70.5,39.8503725 C69.8681215,40.0498758 69.1318785,40.0498758 68.5,39.8503725 C67.8333333,39.5327903 67.8333333,39.3343014 68.5,39.1755103 C69.1188022,38.9414966 69.8811978,38.9414966 70.5,39.1755103 Z" id="Path"></path>
                </g>
                <polygon id="Path" fill="#6B46C1" points="33.5015773 51.4277198 32 76 46.3722397 67.2011923 49 47.2965723 40.4731861 40"></polygon>
                <path d="M57.1827881,122.488426 L53.715505,104.493056 L29.5512091,90.5439815 L25.7638691,104.493056 L4,91.7152778 L28.1109531,20 L54.56899,35.3865741 L79,135 L57.1827881,122.488426 Z M49.6614509,83.3032407 L46.4608819,67.3310185 C45.5540541,63.8703704 44.700569,59.2384259 43.527027,53.7013889 C42.3534851,48.1643519 41.7667141,45.875 41.5,43.5324074 C41.2332859,41.1898148 40.6465149,46.7268519 39.7396871,50.7731481 C38.8328592,54.8194444 36.859175,62.4328704 33.658606,74.0393519 L49.6614509,83.3032407 Z" id="Shape" fill="#B794F4"></path>
                <polygon id="Path" fill="#B794F4" points="27 19.3285486 58.0407407 1 85 16.6714514 53.637037 35"></polygon>
                <polygon id="Path" fill="#9F7AEA" points="27 24.3285486 58.0407407 6 85 21.6714514 53.637037 40"></polygon>
                <polygon id="Path" fill="#B794F4" points="33 74.0659026 51 85 45.686747 67"></polygon>
                <polygon id="Path" fill="#9F7AEA" points="37 76.2645914 50 84 46.6334661 70"></polygon>
                <path d="M79.7422528,135.091909 L111,117.036921 L86.4441712,17.1468971 L86.4441712,17.1468971 L86.4441712,15.9717203 L85.5863256,15.4375491 L85.5863256,15.4375491 L58.4033448,0 L27.4136744,18.0549882 L27.4136744,18.0549882 L26.5558288,18.6425766 L26.5558288,19.7643362 L26.5558288,19.7643362 L2,91.7172035 L23.9286768,104.270228 L23.9286768,104.270228 L25.0545991,105.124902 L25.96606,104.537313 L25.96606,104.537313 L39.4235121,97.2725844 L52.2911953,104.537313 L55.7761928,122.592302 L77.7048697,135.412412 L77.7048697,135.412412 L78.5627152,136 L79.7422528,135.091909 Z M58.4033448,2.29693637 L83.2272504,16.5593087 L54.0068864,33.4925373 L29.4510576,19.1767478 L58.4033448,2.29693637 Z M77.1151008,132.47447 L57.5454993,121.417125 L54.0068864,103.362137 L41.4608952,96.0974077 L41.4608952,96.0974077 L28.2715199,88.512176 L24.5184456,102.18696 L4.30545991,90.8625295 L28.0034432,20.6724273 L53.1490408,35.2018853 L73.0403345,116.502749 L77.1151008,132.47447 Z" id="Shape" fill="#6B46C1"></path>
                <path d="M44.7209302,53.5301353 C43.5697674,48.0824108 42.994186,45.7552276 42.7325581,43.4809348 L40.744186,42 C40.4302326,43.7453875 39.5930233,46.6543665 38.7034884,50.6740467 C37.8139535,54.6937269 36.1395349,62.5215252 33,73.7343173 L33,74.5805658 L51,85 L47.2848837,67.1230012 C46.4476744,63.6322263 45.5581395,59.0307503 44.7209302,53.5301353 Z M35.3023256,73.7343173 C38.127907,62.5215252 39.8546512,55.0110701 40.744186,50.9384994 L41.5813953,47.7650677 C41.8430233,49.5104551 42.1569767,51.5202952 42.7325581,54.1119311 C43.3081395,56.703567 44.7209302,64.2140221 45.2965116,67.704797 L48.122093,81.2447724 L35.3023256,73.7343173 Z" id="Shape" fill="#6B46C1"></path>
            </g>
        </g>
    </g>
</svg>