<?xml version="1.0" encoding="UTF-8"?>
<svg width="290px" height="289px" viewBox="0 0 290 289" version="1.1" xmlns="http://www.w3.org/2000/svg" xmlns:xlink="http://www.w3.org/1999/xlink">
    <!-- Generator: Sketch 64 (93537) - https://sketch.com -->
    <title>data</title>
    <desc>Created with Sketch.</desc>
    <defs>
        <path d="M220,226.117519 L8,226.117519 C3.581722,226.117519 5.41083001e-16,222.535797 0,218.117519 L0,4.69854585 L0,4.69854585 C0,2.10361063 1.44026916,0 3.21693122,0 L224.783069,0 C226.559731,0 228,2.10361063 228,4.69854585 L228,218.117519 C228,222.535797 224.418278,226.117519 220,226.117519 Z" id="path-1"></path>
        <filter x="-4.6%" y="-4.6%" width="109.2%" height="109.3%" filterUnits="objectBoundingBox" id="filter-2">
            <feMorphology radius="1" operator="dilate" in="SourceAlpha" result="shadowSpreadOuter1"></feMorphology>
            <feOffset dx="0" dy="0" in="shadowSpreadOuter1" result="shadowOffsetOuter1"></feOffset>
            <feGaussianBlur stdDeviation="2.5" in="shadowOffsetOuter1" result="shadowBlurOuter1"></feGaussianBlur>
            <feColorMatrix values="0 0 0 0 0   0 0 0 0 0   0 0 0 0 0  0 0 0 0.1 0" type="matrix" in="shadowBlurOuter1"></feColorMatrix>
        </filter>
        <path d="M220,226.117519 L8,226.117519 C3.581722,226.117519 5.41083001e-16,222.535797 0,218.117519 L0,4.69854585 L0,4.69854585 C0,2.10361063 1.44026916,0 3.21693122,0 L224.783069,0 C226.559731,0 228,2.10361063 228,4.69854585 L228,218.117519 C228,222.535797 224.418278,226.117519 220,226.117519 Z" id="path-3"></path>
        <filter x="-2.6%" y="-2.7%" width="105.3%" height="105.3%" filterUnits="objectBoundingBox" id="filter-4">
            <feOffset dx="0" dy="0" in="SourceAlpha" result="shadowOffsetOuter1"></feOffset>
            <feGaussianBlur stdDeviation="2" in="shadowOffsetOuter1" result="shadowBlurOuter1"></feGaussianBlur>
            <feColorMatrix values="0 0 0 0 0   0 0 0 0 0   0 0 0 0 0  0 0 0 0.1 0" type="matrix" in="shadowBlurOuter1"></feColorMatrix>
        </filter>
    </defs>
    <g id="illustrations" stroke="none" stroke-width="1" fill="none" fill-rule="evenodd">
        <g id="data" transform="translate(5.000000, 6.000000)">
            <g id="browser-window">
                <g id="background-2-copy" transform="translate(140.000000, 139.724786) rotate(-15.000000) translate(-140.000000, -139.724786) translate(26.000000, 25.724786)">
                    <g id="Path" transform="translate(0.000000, 0.304605)">
                        <g id="path-3" fill-rule="nonzero">
                            <use fill="black" fill-opacity="1" filter="url(#filter-2)" xlink:href="#path-1"></use>
                            <use fill="#000000" xlink:href="#path-1"></use>
                        </g>
                        <path d="M220,226.117519 L8,226.117519 C3.581722,226.117519 5.41083001e-16,222.535797 0,218.117519 L0,4.69854585 L0,4.69854585 C0,2.10361063 1.44026916,0 3.21693122,0 L224.783069,0 C226.559731,0 228,2.10361063 228,4.69854585 L228,218.117519 C228,222.535797 224.418278,226.117519 220,226.117519 Z" id="path-3" fill="#E53E3E"></path>
                    </g>
                </g>
                <g id="background-2" transform="translate(26.000000, 25.724786)">
                    <g id="Path" transform="translate(0.000000, 0.304605)">
                        <g id="path-3" fill-rule="nonzero">
                            <use fill="black" fill-opacity="1" filter="url(#filter-4)" xlink:href="#path-3"></use>
                            <use fill="#000000" xlink:href="#path-3"></use>
                        </g>
                        <path d="M220,226.117519 L8,226.117519 C3.581722,226.117519 5.41083001e-16,222.535797 0,218.117519 L0,4.69854585 L0,4.69854585 C0,2.10361063 1.44026916,0 3.21693122,0 L224.783069,0 C226.559731,0 228,2.10361063 228,4.69854585 L228,218.117519 C228,222.535797 224.418278,226.117519 220,226.117519 Z" id="path-3" fill="#E53E3E"></path>
                    </g>
                </g>
                <g id="Group-8" transform="translate(34.364974, 32.610257)" fill-rule="nonzero">
                    <ellipse id="Oval" fill="#FD7E98" cx="2.53703704" cy="2.53675234" rx="2.53703704" ry="2.53675234"></ellipse>
                    <ellipse id="Oval" fill="#FFD56A" cx="13.6130159" cy="2.53675234" rx="2.53703704" ry="2.53675234"></ellipse>
                    <ellipse id="Oval" fill="#79E2AA" cx="24.6889947" cy="2.53675234" rx="2.53703704" ry="2.53675234"></ellipse>
                </g>
            </g>
            <g id="Group" transform="translate(86.000000, 61.000000)" fill-rule="nonzero">
                <g id="Group-14" transform="translate(0.000000, 101.000000)" fill="#C53030">
                    <circle id="Oval" cx="41" cy="64" r="1"></circle>
                    <path d="M46.3653858,60.2625699 C46.7158735,60.2625699 47,60.6084505 47,61.0351157 C46.9700807,61.4341385 46.6945262,61.7390889 46.3653858,61.7374301 C45.8039164,62.0875233 45.1383969,62.0875233 44.5769275,61.7374301 C44.2701011,61.7047698 44.0268345,61.4086301 44,61.0351157 C43.9986429,60.6344376 44.249147,60.2989921 44.5769275,60.2625699 L44.5769275,60.2625699 C45.1383969,59.9124767 45.8039164,59.9124767 46.3653858,60.2625699 Z" id="Path"></path>
                    <path d="M51.5108696,58.1609509 C52.1630435,58.290103 52.1630435,58.5484071 51.5108696,58.8067111 C50.8935015,59.0644296 50.1064985,59.0644296 49.4891304,58.8067111 C48.8369565,58.5484071 48.8369565,58.290103 49.4891304,58.1609509 C50.1238361,57.9463497 50.8761639,57.9463497 51.5108696,58.1609509 Z" id="Path"></path>
                    <path d="M56.7374162,54.2730878 C57.0875279,54.6869925 57.0875279,55.3130075 56.7374162,55.7269122 C55.9484072,56.0910293 55.0515928,56.0910293 54.2625838,55.7269122 C53.9124721,55.3130075 53.9124721,54.6869925 54.2625838,54.2730878 C55.0515928,53.9089707 55.9484072,53.9089707 56.7374162,54.2730878 L56.7374162,54.2730878 Z" id="Path"></path>
                    <path d="M61.3653858,51.2625699 C61.6945262,51.2609111 61.9700807,51.5658615 62,51.9648843 C62,52.1697762 61.9331391,52.3662762 61.8141258,52.5111566 C61.6951125,52.6560371 61.5336959,52.7374301 61.3653858,52.7374301 C60.8039164,53.0875233 60.1383969,53.0875233 59.5769275,52.7374301 C59.249147,52.7010079 58.9986429,52.3655624 59,51.9648843 C59.0268345,51.5913699 59.2701011,51.2952302 59.5769275,51.2625699 L59.5769275,51.2625699 C60.1383969,50.9124767 60.8039164,50.9124767 61.3653858,51.2625699 L61.3653858,51.2625699 Z" id="Path"></path>
                    <path d="M67.4124912,49 C67.7249481,49.0231788 67.9726787,49.2333474 68,49.4984284 C68,49.7737028 67.7369633,49.9968568 67.4124912,49.9968568 L65.5912138,49.9968568 C65.4302864,50.0130957 65.2694686,49.9658287 65.1548735,49.868609 C65.0402785,49.7713894 64.9845638,49.6349554 65.003705,49.4984284 C65.003705,49.223154 65.2667417,49 65.5912138,49 L67.4124912,49 L67.4124912,49 Z" id="Path"></path>
                    <path d="M31.7222491,63.2730878 C31.8982083,63.4526224 32,63.7190254 32,64 C32,64.2809746 31.8982083,64.5473776 31.7222491,64.7269122 C31.043032,65.0910293 30.2710105,65.0910293 29.5917933,64.7269122 C29.2649549,64.7269122 29,64.4014625 29,64 C29,63.5985375 29.2649549,63.2730878 29.5917933,63.2730878 C30.2710105,62.9089707 31.043032,62.9089707 31.7222491,63.2730878 L31.7222491,63.2730878 Z" id="Path"></path>
                    <path d="M36.4230725,60.2625699 C36.750853,60.2989921 37.0013571,60.6344376 37,61.0351157 C36.9731655,61.4086301 36.7298989,61.7047698 36.4230725,61.7374301 C35.8616031,62.0875233 35.1960836,62.0875233 34.6346142,61.7374301 C34.3054738,61.7390889 34.0299193,61.4341385 34,61.0351157 C34,60.8302238 34.0668609,60.6337238 34.1858742,60.4888434 C34.3048875,60.3439629 34.4663041,60.2625699 34.6346142,60.2625699 C35.1960836,59.9124767 35.8616031,59.9124767 36.4230725,60.2625699 Z" id="Path"></path>
                    <path d="M41.5201981,58.148678 C42.159934,58.28484 42.159934,58.557164 41.5201981,58.829488 C40.7859559,59.0568373 39.9513911,59.0568373 39.2171488,58.829488 C38.9547037,58.6656558 38.926216,58.3826987 39.1531752,58.1940653 L39.2171488,58.1940653 C39.9424578,57.9521508 40.7770789,57.9357025 41.5201981,58.148678 Z" id="Path"></path>
                    <circle id="Oval" cx="46" cy="55" r="1"></circle>
                    <path d="M51.4123384,51.2625699 C51.7248736,51.2952302 51.9726662,51.5913699 52,51.9648843 C52.0013824,52.3655624 51.7462175,52.7010079 51.4123384,52.7374301 C50.8404226,53.0875233 50.1625207,53.0875233 49.5906049,52.7374301 C49.4240116,52.7384283 49.2648925,52.6548744 49.1528283,52.5075523 C49.0407641,52.3602302 48.9862873,52.1629861 49.0029489,51.9648843 C49.0029489,51.5770068 49.2660515,51.2625699 49.5906049,51.2625699 L49.5906049,51.2625699 C50.1625207,50.9124767 50.8404226,50.9124767 51.4123384,51.2625699 Z" id="Path"></path>
                    <path d="M56.7374162,49 C57.0875279,49.2847007 57.0875279,49.7152993 56.7374162,50 L54.2625838,50 C53.9124721,49.7152993 53.9124721,49.2847007 54.2625838,49 L56.7374162,49 Z" id="Path"></path>
                    <circle id="Oval" cx="61" cy="47" r="1"></circle>
                    <circle id="Oval" cx="26" cy="61" r="1"></circle>
                    <path d="M31.7520509,58.1668686 C31.8966378,58.2446238 31.986482,58.362355 31.9985971,58.4899409 C32.0107121,58.6175268 31.9439225,58.7425893 31.8153164,58.8331314 L31.7520509,58.8331314 C31.0259352,59.0556229 30.2006072,59.0556229 29.4744915,58.8331314 C28.8418362,58.5666263 28.8418362,58.3001211 29.4744915,58.1668686 C30.2006072,57.9443771 31.0259352,57.9443771 31.7520509,58.1668686 L31.7520509,58.1668686 Z" id="Path"></path>
                    <path d="M36.4117647,54.3098593 C36.7366381,54.3098593 37,54.6188458 37,55 C37,55.3811542 36.7366381,55.6901407 36.4117647,55.6901407 C35.8549229,56.1032864 35.1450771,56.1032864 34.5882353,55.6901407 C34.2633619,55.6901407 34,55.3811542 34,55 C34,54.6188458 34.2633619,54.3098593 34.5882353,54.3098593 C35.1450771,53.8967136 35.8549229,53.8967136 36.4117647,54.3098593 L36.4117647,54.3098593 Z" id="Path"></path>
                    <path d="M42.3931104,51.2635103 C42.7266127,51.2635103 42.9969698,51.5775462 42.9969698,51.9649291 C43.0140908,52.1627782 42.9581119,52.3597708 42.8429578,52.5069051 C42.7278037,52.6540393 42.5642971,52.7374867 42.3931104,52.7364897 C41.7000446,53.0878368 40.9122823,53.0878368 40.2192165,52.7364897 C39.9269278,52.3041876 39.9269278,51.6958124 40.2192165,51.2635103 C40.9122823,50.9121632 41.7000446,50.9121632 42.3931104,51.2635103 L42.3931104,51.2635103 Z" id="Path"></path>
                    <path d="M46.3653789,49 C46.6945191,48.9988268 46.9700735,49.2153863 47,49.498751 C47.0008128,49.6401395 46.9321767,49.7751846 46.8111578,49.870294 C46.6901389,49.9654033 46.5281112,50.011638 46.3653789,49.9974972 L44.5769217,49.9974972 C44.2582966,49.9974972 44,49.7742009 44,49.498751 C44.026829,49.233501 44.2700954,49.0231983 44.5769217,49 L46.3653789,49 Z" id="Path"></path>
                    <path d="M51.4124912,46.0031432 C51.7369633,46.0031432 52,46.2262972 52,46.5015716 C51.9726787,46.7666526 51.7249481,46.9768212 51.4124912,47 L49.5912138,47 C49.2667417,47 49.003705,46.776846 49.003705,46.5015716 C48.9845638,46.3650446 49.0402785,46.2286106 49.1548735,46.131391 C49.2694686,46.0341713 49.4302864,45.9869043 49.5912138,46.0031432 L51.4124912,46.0031432 L51.4124912,46.0031432 Z" id="Path"></path>
                    <path d="M56.7565898,43.2002908 C57.051957,43.4112384 57.0824873,43.7609763 56.8264004,44 L54.2434102,44 C53.948043,43.7890525 53.9175127,43.4393145 54.1735996,43.2002908 L54.2434102,43.2002908 C55.0446447,42.9332364 55.9553553,42.9332364 56.7565898,43.2002908 Z" id="Path"></path>
                    <path d="M21.4677419,58.160346 C22.1774194,58.2891928 22.1774194,58.5468864 21.4677419,58.80458 C20.8819441,59.06514 20.1180559,59.06514 19.5322581,58.80458 C18.8225806,58.5468864 18.8225806,58.2891928 19.5322581,58.160346 C20.1374527,57.9465513 20.8625473,57.9465513 21.4677419,58.160346 Z" id="Path"></path>
                    <circle id="Oval" cx="26" cy="55" r="1"></circle>
                    <path d="M31.7197552,51.2635103 C31.8979287,51.4499237 32,51.7181694 32,52 C32,52.2818306 31.8979287,52.5500763 31.7197552,52.7364897 C31.0411617,53.0878368 30.2698491,53.0878368 29.5912556,52.7364897 C29.2553345,52.700114 28.9986092,52.3650963 29,51.9649291 C29.027501,51.591891 29.276809,51.2961289 29.5912556,51.2635103 C30.2698491,50.9121632 31.0411617,50.9121632 31.7197552,51.2635103 L31.7197552,51.2635103 Z" id="Path"></path>
                    <path d="M36.4230783,49 C36.7299046,49.0231983 36.973171,49.233501 37,49.498751 C37,49.7742009 36.7417034,49.9974972 36.4230783,49.9974972 L34.6346211,49.9974972 C34.4718888,50.011638 34.3098611,49.9654033 34.1888422,49.870294 C34.0678233,49.7751846 33.9991872,49.6401395 34,49.498751 C34.0299265,49.2153863 34.3054809,48.9988268 34.6346211,49 L36.4230783,49 Z" id="Path"></path>
                    <path d="M41.3947967,46.0031432 C41.5595321,45.9869043 41.7241552,46.0341713 41.8414618,46.131391 C41.9587684,46.2286106 42.0158015,46.3650446 41.9962073,46.5015716 C41.9962073,46.776846 41.7269466,47 41.3947967,47 L39.2297184,47 C38.9234272,46.7161942 38.9234272,46.286949 39.2297184,46.0031432 L41.3947967,46.0031432 Z" id="Path"></path>
                    <path d="M46.4705882,43.1894071 C47.1764706,43.3920553 47.1764706,43.6453656 46.4705882,44 L44.4812834,44 C43.8395722,43.6453656 43.8395722,43.3920553 44.4812834,43.1894071 C45.1058067,42.9368643 45.846065,42.9368643 46.4705882,43.1894071 Z" id="Path"></path>
                    <path d="M51.4117647,40.3098593 C51.7366381,40.3098593 52,40.6188458 52,41 C52,41.3811542 51.7366381,41.6901407 51.4117647,41.6901407 C50.8549229,42.1032864 50.1450771,42.1032864 49.5882353,41.6901407 C49.2633619,41.6901407 49,41.3811542 49,41 C49,40.6188458 49.2633619,40.3098593 49.5882353,40.3098593 L49.5882353,40.3098593 C50.1450771,39.8967136 50.8549229,39.8967136 51.4117647,40.3098593 L51.4117647,40.3098593 Z" id="Path"></path>
                    <circle id="Oval" cx="16" cy="55" r="1"></circle>
                    <path d="M21.3653846,51.2622992 C21.6945257,51.2606397 21.9700807,51.5657021 22,51.9648714 C22,52.1698385 21.9331389,52.3664107 21.8141255,52.5113443 C21.695112,52.656278 21.5336951,52.7377008 21.3653846,52.7377008 C20.8242009,53.0874331 20.1757991,53.0874331 19.6346154,52.7377008 C19.284127,52.7377008 19,52.3916933 19,51.9648714 C19.0299193,51.5657021 19.3054743,51.2606397 19.6346154,51.2622992 L19.6346154,51.2622992 C20.1757991,50.9125669 20.8242009,50.9125669 21.3653846,51.2622992 L21.3653846,51.2622992 Z" id="Path"></path>
                    <circle id="Oval" cx="26" cy="50" r="1"></circle>
                    <path d="M31.7222491,46 C31.8982083,46.1234913 32,46.3067341 32,46.5 C32,46.6932659 31.8982083,46.8765087 31.7222491,47 L29.5917933,47 C29.2770578,46.9767481 29.0275206,46.7659168 29,46.5 C29,46.2238576 29.2649549,46 29.5917933,46 L31.7222491,46 Z" id="Path"></path>
                    <path d="M36.5187166,43.1894071 C37.1604278,43.3920553 37.1604278,43.6453656 36.5187166,44 L34.5294118,44 C33.8235294,43.6453656 33.8235294,43.3920553 34.5294118,43.1894071 C35.153935,42.9368643 35.8941933,42.9368643 36.5187166,43.1894071 Z" id="Path"></path>
                    <path d="M41.3978281,40.2730878 C41.7303985,40.2730878 42,40.5985375 42,41 C42,41.4014625 41.7303985,41.7269122 41.3978281,41.7269122 C40.7066991,42.0910293 39.9211382,42.0910293 39.2300092,41.7269122 C38.9233303,41.3130075 38.9233303,40.6869925 39.2300092,40.2730878 C39.9211382,39.9089707 40.7066991,39.9089707 41.3978281,40.2730878 L41.3978281,40.2730878 Z" id="Path"></path>
                    <path d="M46.3653858,37.2625699 C46.7158735,37.2625699 47,37.6084505 47,38.0351157 C46.9700807,38.4341385 46.6945262,38.7390889 46.3653858,38.7374301 C45.8039164,39.0875233 45.1383969,39.0875233 44.5769275,38.7374301 C44.2701011,38.7047698 44.0268345,38.4086301 44,38.0351157 C43.9986429,37.6344376 44.249147,37.2989921 44.5769275,37.2625699 L44.5769275,37.2625699 C45.1383969,36.9124767 45.8039164,36.9124767 46.3653858,37.2625699 Z" id="Path"></path>
                    <path d="M11.4123384,51.2625699 C11.7248736,51.2952302 11.9726662,51.5913699 12,51.9648843 C12.0013824,52.3655624 11.7462175,52.7010079 11.4123384,52.7374301 C10.8404226,53.0875233 10.1625207,53.0875233 9.5906049,52.7374301 C9.42401161,52.7384283 9.26489247,52.6548744 9.15282829,52.5075523 C9.04076411,52.3602302 8.9862873,52.1629861 9.00294893,51.9648843 C9.00294893,51.5770068 9.26605147,51.2625699 9.5906049,51.2625699 C10.1625207,50.9124767 10.8404226,50.9124767 11.4123384,51.2625699 Z" id="Path"></path>
                    <circle id="Oval" cx="16" cy="50" r="1"></circle>
                    <path d="M21.3653804,46.0025028 C21.5281123,45.988362 21.6901397,46.0345967 21.8111583,46.129706 C21.9321769,46.2248154 22.0008128,46.3598605 22,46.501249 C21.9700735,46.7846137 21.6945199,47.0011732 21.3653804,47 L19.6346196,47 C19.3054801,47.0011732 19.0299265,46.7846137 19,46.501249 C18.9991872,46.3598605 19.0678231,46.2248154 19.1888417,46.129706 C19.3098603,46.0345967 19.4718877,45.988362 19.6346196,46.0025028 L21.3653804,46.0025028 L21.3653804,46.0025028 Z" id="Path"></path>
                    <circle id="Oval" cx="6" cy="50" r="1"></circle>
                    <circle id="Oval" cx="11" cy="47" r="1"></circle>
                    <path d="M16.7773802,43.2218205 C17.0475192,43.4270889 17.0754418,43.7674113 16.841228,44 L14.4788587,44 C13.8403804,43.6368496 13.8403804,43.3774564 14.4788587,43.1699419 C15.2205169,42.9265066 16.0534972,42.9453074 16.7773802,43.2218205 L16.7773802,43.2218205 Z" id="Path"></path>
                    <circle id="Oval" cx="1" cy="47" r="1"></circle>
                    <path d="M6.47058824,43.1894071 C7.17647059,43.3920553 7.17647059,43.6453656 6.47058824,44 L4.48128342,44 C3.83957219,43.6453656 3.83957219,43.3920553 4.48128342,43.1894071 C5.10580668,42.9368643 5.84606498,42.9368643 6.47058824,43.1894071 Z" id="Path"></path>
                    <circle id="Oval" cx="11" cy="41" r="1"></circle>
                    <circle id="Oval" cx="1" cy="41" r="1"></circle>
                    <path d="M6.36538579,37.2625699 C6.53369594,37.2625699 6.69511255,37.3439629 6.8141258,37.4888434 C6.93313905,37.6337238 7,37.8302238 7,38.0351157 C6.97008071,38.4341385 6.69452622,38.7390889 6.36538579,38.7374301 C5.80391639,39.0875233 5.13839694,39.0875233 4.57692755,38.7374301 C4.27010106,38.7047698 4.02683454,38.4086301 4,38.0351157 C3.99864287,37.6344376 4.24914696,37.2989921 4.57692755,37.2625699 C5.13839694,36.9124767 5.80391639,36.9124767 6.36538579,37.2625699 L6.36538579,37.2625699 Z" id="Path"></path>
                    <circle id="Oval" cx="1" cy="35" r="1"></circle>
                    <path d="M71.7702816,46.0031432 C72.0765728,46.286949 72.0765728,46.7161942 71.7702816,47 L69.6052033,47 C69.2730534,47 69.0037927,46.776846 69.0037927,46.5015716 C68.9841985,46.3650446 69.0412316,46.2286106 69.1585382,46.131391 C69.2758448,46.0341713 69.4404679,45.9869043 69.6052033,46.0031432 L71.7702816,46.0031432 Z" id="Path"></path>
                    <path d="M76.4677419,43.1891924 C77.1774194,43.3918943 77.1774194,43.6452717 76.4677419,44 L74.5322581,44 C73.8225806,43.6452717 73.8225806,43.3918943 74.5322581,43.1891924 C75.1374527,42.9369359 75.8625473,42.9369359 76.4677419,43.1891924 Z" id="Path"></path>
                    <path d="M82.3978281,40.2730878 C82.7303985,40.2730878 83,40.5985375 83,41 C83,41.4014625 82.7303985,41.7269122 82.3978281,41.7269122 C81.7066991,42.0910293 80.9211382,42.0910293 80.2300092,41.7269122 C79.9233303,41.3130075 79.9233303,40.6869925 80.2300092,40.2730878 C80.9211382,39.9089707 81.7066991,39.9089707 82.3978281,40.2730878 L82.3978281,40.2730878 Z" id="Path"></path>
                    <path d="M86.4093951,37.2625699 C86.5759884,37.2615717 86.7351075,37.3451256 86.8471717,37.4924477 C86.9592359,37.6397698 87.0137127,37.8370139 86.9970511,38.0351157 C86.9970511,38.4229932 86.7339485,38.7374301 86.4093951,38.7374301 C85.8374793,39.0875233 85.1595774,39.0875233 84.5876616,38.7374301 C84.2751264,38.7047698 84.0273338,38.4086301 84,38.0351157 C83.9986176,37.6344376 84.2537825,37.2989921 84.5876616,37.2625699 L84.5876616,37.2625699 C85.1595774,36.9124767 85.8374793,36.9124767 86.4093951,37.2625699 L86.4093951,37.2625699 Z" id="Path"></path>
                    <path d="M92.5187166,34.2625699 C93.1604278,34.6137271 93.1604278,34.9648843 92.5187166,35.7374301 C91.8941933,36.0875233 91.153935,36.0875233 90.5294118,35.7374301 C89.8235294,34.9648843 89.8235294,34.6137271 90.5294118,34.2625699 C91.153935,33.9124767 91.8941933,33.9124767 92.5187166,34.2625699 Z" id="Path"></path>
                    <path d="M67.5108696,43.1894071 C68.1630435,43.3920553 68.1630435,43.6453656 67.5108696,44 L65.4891304,44 C64.8369565,43.6453656 64.8369565,43.3920553 65.4891304,43.1894071 C66.1238361,42.9368643 66.8761639,42.9368643 67.5108696,43.1894071 Z" id="Path"></path>
                    <path d="M71.7699908,40.2730878 C72.0766697,40.6869925 72.0766697,41.3130075 71.7699908,41.7269122 C71.0788618,42.0910293 70.2933009,42.0910293 69.6021719,41.7269122 C69.2696015,41.7269122 69,41.4014625 69,41 C69,40.5985375 69.2696015,40.2730878 69.6021719,40.2730878 L69.6021719,40.2730878 C70.2933009,39.9089707 71.0788618,39.9089707 71.7699908,40.2730878 Z" id="Path"></path>
                    <path d="M76.3653846,37.2622992 C76.715873,37.2622992 77,37.6083067 77,38.0351286 C76.9700807,38.4342979 76.6945257,38.7393603 76.3653846,38.7377008 C75.8242009,39.0874331 75.1757991,39.0874331 74.6346154,38.7377008 C74.3054743,38.7393603 74.0299193,38.4342979 74,38.0351286 C74,37.8301615 74.0668611,37.6335893 74.1858745,37.4886557 C74.304888,37.343722 74.4663049,37.2622992 74.6346154,37.2622992 L74.6346154,37.2622992 C75.1757991,36.9125669 75.8242009,36.9125669 76.3653846,37.2622992 Z" id="Path"></path>
                    <circle id="Oval" cx="81" cy="35" r="1"></circle>
                    <path d="M86.4117647,31.3098593 C86.7366381,31.3098593 87,31.6188458 87,32 C87,32.3811542 86.7366381,32.6901407 86.4117647,32.6901407 C85.8549229,33.1032864 85.1450771,33.1032864 84.5882353,32.6901407 C84.2633619,32.6901407 84,32.3811542 84,32 C84,31.6188458 84.2633619,31.3098593 84.5882353,31.3098593 L84.5882353,31.3098593 C85.1450771,30.8967136 85.8549229,30.8967136 86.4117647,31.3098593 L86.4117647,31.3098593 Z" id="Path"></path>
                    <path d="M92.5187166,29.159245 C93.1604278,29.3296225 93.1604278,29.5425944 92.5187166,29.840755 C91.8941933,30.0530817 91.153935,30.0530817 90.5294118,29.840755 C89.8235294,29.6703775 89.8235294,29.4574056 90.5294118,29.159245 C91.153935,28.9469183 91.8941933,28.9469183 92.5187166,29.159245 Z" id="Path"></path>
                    <path d="M97.7482514,25.2704141 C98.0839162,25.7140422 98.0839162,26.3383564 97.7482514,26.7819845 C96.9396464,27.0726718 96.0603536,27.0726718 95.2517486,26.7819845 C94.9160838,26.3383564 94.9160838,25.7140422 95.2517486,25.2704141 C96.0476663,24.909862 96.9523337,24.909862 97.7482514,25.2704141 L97.7482514,25.2704141 Z" id="Path"></path>
                    <path d="M61.4117647,40.3098593 C61.7366381,40.3098593 62,40.6188458 62,41 C62,41.3811542 61.7366381,41.6901407 61.4117647,41.6901407 C60.8549229,42.1032864 60.1450771,42.1032864 59.5882353,41.6901407 C59.2633619,41.6901407 59,41.3811542 59,41 C59,40.6188458 59.2633619,40.3098593 59.5882353,40.3098593 L59.5882353,40.3098593 C60.1450771,39.8967136 60.8549229,39.8967136 61.4117647,40.3098593 L61.4117647,40.3098593 Z" id="Path"></path>
                    <circle id="Oval" cx="66" cy="38" r="1"></circle>
                    <path d="M71.7619048,34.2635103 C72.0793651,34.6142197 72.0793651,34.9649291 71.7619048,35.7364897 C71.0331892,36.0878368 70.2049061,36.0878368 69.4761905,35.7364897 C68.8412698,34.9649291 68.8412698,34.6142197 69.4761905,34.2635103 C70.2049061,33.9121632 71.0331892,33.9121632 71.7619048,34.2635103 Z" id="Path"></path>
                    <path d="M76.4,31.3127174 C76.7313708,31.3127174 77,31.6204243 77,32 C77,32.3795757 76.7313708,32.6872826 76.4,32.6872826 C75.855208,33.1042391 75.144792,33.1042391 74.6,32.6872826 C74.2686292,32.6872826 74,32.3795757 74,32 C74,31.6204243 74.2686292,31.3127174 74.6,31.3127174 L74.6,31.3127174 C75.144792,30.8957609 75.855208,30.8957609 76.4,31.3127174 L76.4,31.3127174 Z" id="Path"></path>
                    <circle id="Oval" cx="81" cy="29" r="1"></circle>
                    <path d="M86.4093951,25.3072212 C86.7339485,25.3072212 86.9970511,25.6135772 86.9970511,25.9914864 C87.0137127,26.184497 86.9592359,26.376672 86.8471717,26.520208 C86.7351075,26.663744 86.5759884,26.7451506 86.4093951,26.744178 C85.8374793,27.085274 85.1595774,27.085274 84.5876616,26.744178 C84.2537825,26.7086919 83.9986176,26.3818672 84,25.9914864 C84.0273338,25.6275712 84.2751264,25.3390421 84.5876616,25.3072212 L84.5876616,25.3072212 C85.143955,24.8975929 85.8531017,24.8975929 86.4093951,25.3072212 L86.4093951,25.3072212 Z" id="Path"></path>
                    <path d="M92.4117647,22.3098593 C92.7366381,22.3098593 93,22.6188458 93,23 C93,23.3811542 92.7366381,23.6901407 92.4117647,23.6901407 C91.8549229,24.1032864 91.1450771,24.1032864 90.5882353,23.6901407 C90.2633619,23.6901407 90,23.3811542 90,23 C90,22.6188458 90.2633619,22.3098593 90.5882353,22.3098593 L90.5882353,22.3098593 C91.1450771,21.8967136 91.8549229,21.8967136 92.4117647,22.3098593 Z" id="Path"></path>
                    <path d="M97.7413793,20.2635103 C98.0862069,20.6142197 98.0862069,21.0350709 97.7413793,21.7364897 C96.9498434,22.0878368 96.0501566,22.0878368 95.2586207,21.7364897 C94.9137931,21.0350709 94.9137931,20.6142197 95.2586207,20.2635103 C96.0501566,19.9121632 96.9498434,19.9121632 97.7413793,20.2635103 L97.7413793,20.2635103 Z" id="Path"></path>
                    <path d="M56.7482514,37.2180155 C57.0839162,37.6616436 57.0839162,38.2859578 56.7482514,38.7295859 C55.9523337,39.090138 55.0476663,39.090138 54.2517486,38.7295859 C53.9160838,38.2859578 53.9160838,37.6616436 54.2517486,37.2180155 C55.0603536,36.9273282 55.9396464,36.9273282 56.7482514,37.2180155 L56.7482514,37.2180155 Z" id="Path"></path>
                    <circle id="Oval" cx="61" cy="35" r="1"></circle>
                    <circle id="Oval" cx="66" cy="32" r="1"></circle>
                    <path d="M71.7773802,29.1591932 C72.0475192,29.3365593 72.0754418,29.6306214 71.841228,29.8315941 L71.7773802,29.8315941 C71.0445815,30.0561353 70.2116574,30.0561353 69.4788587,29.8315941 C68.8403804,29.6522872 68.8403804,29.4281536 69.4788587,29.1143665 C70.2304862,28.9477799 71.0400834,28.963569 71.7773802,29.1591932 L71.7773802,29.1591932 Z" id="Path"></path>
                    <path d="M76.3653846,25.3107593 C76.6945257,25.3091462 76.9700807,25.6057011 77,25.9937386 C77,26.1929897 76.9331389,26.3840799 76.8141255,26.5249717 C76.695112,26.6658635 76.5336951,26.7450157 76.3653846,26.7450157 C75.8242009,27.0849948 75.1757991,27.0849948 74.6346154,26.7450157 C74.284127,26.7450157 74,26.4086575 74,25.9937386 C74.0299193,25.6057011 74.3054743,25.3091462 74.6346154,25.3107593 L74.6346154,25.3107593 C75.1584538,24.8964136 75.8415462,24.8964136 76.3653846,25.3107593 L76.3653846,25.3107593 Z" id="Path"></path>
                    <circle id="Oval" cx="81" cy="23" r="1"></circle>
                    <path d="M86.5108696,20.2625699 C87.1630435,20.6137271 87.1630435,21.0351157 86.5108696,21.7374301 C85.8761639,22.0875233 85.1238361,22.0875233 84.4891304,21.7374301 C83.8369565,21.0351157 83.8369565,20.6137271 84.4891304,20.2625699 C85.1238361,19.9124767 85.8761639,19.9124767 86.5108696,20.2625699 L86.5108696,20.2625699 Z" id="Path"></path>
                    <path d="M92.4117647,17.3098593 C92.7366381,17.3098593 93,17.6188458 93,18 C93,18.3811542 92.7366381,18.6901407 92.4117647,18.6901407 C91.8549229,19.1032864 91.1450771,19.1032864 90.5882353,18.6901407 C90.2633619,18.6901407 90,18.3811542 90,18 C90,17.6188458 90.2633619,17.3098593 90.5882353,17.3098593 L90.5882353,17.3098593 C91.1450771,16.8967136 91.8549229,16.8967136 92.4117647,17.3098593 Z" id="Path"></path>
                    <path d="M97.7620154,14.0533139 C98.0496425,14.2457583 98.0808637,14.5781321 97.8321273,14.7997092 L97.7620154,14.7997092 C96.9573214,15.0667636 96.0426786,15.0667636 95.2379846,14.7997092 C94.9503575,14.6072648 94.9191363,14.274891 95.1678727,14.0533139 C95.1678727,14.0391742 95.1752594,14.0256136 95.188408,14.0156153 C95.2015565,14.005617 95.2193898,14 95.2379846,14 L97.7620154,14.0533139 Z" id="Path"></path>
                    <path d="M51.5108696,34.2625699 C52.1630435,34.6137271 52.1630435,34.9648843 51.5108696,35.7374301 C50.8761639,36.0875233 50.1238361,36.0875233 49.4891304,35.7374301 C48.8369565,34.9648843 48.8369565,34.6137271 49.4891304,34.2625699 C50.1238361,33.9124767 50.8761639,33.9124767 51.5108696,34.2625699 Z" id="Path"></path>
                    <circle id="Oval" cx="56" cy="32" r="1"></circle>
                    <circle id="Oval" cx="61" cy="29" r="1"></circle>
                    <path d="M67.4123384,25.3072212 C67.7248736,25.3390421 67.9726662,25.6275712 68,25.9914864 C68.0013824,26.3818672 67.7462175,26.7086919 67.4123384,26.744178 C66.8404226,27.085274 66.1625207,27.085274 65.5906049,26.744178 C65.4240116,26.7451506 65.2648925,26.663744 65.1528283,26.520208 C65.0407641,26.376672 64.9862873,26.184497 65.0029489,25.9914864 C65.0029489,25.6135772 65.2660515,25.3072212 65.5906049,25.3072212 L65.5906049,25.3072212 C66.1468983,24.8975929 66.856045,24.8975929 67.4123384,25.3072212 L67.4123384,25.3072212 Z" id="Path"></path>
                    <path d="M71.7699908,22.2730878 C72.0766697,22.6869925 72.0766697,23.3130075 71.7699908,23.7269122 C71.0788618,24.0910293 70.2933009,24.0910293 69.6021719,23.7269122 C69.2696015,23.7269122 69,23.4014625 69,23 C69,22.5985375 69.2696015,22.2730878 69.6021719,22.2730878 L69.6021719,22.2730878 C70.2933009,21.9089707 71.0788618,21.9089707 71.7699908,22.2730878 L71.7699908,22.2730878 Z" id="Path"></path>
                    <path d="M76.4677419,20.2622992 C77.1774194,20.6135853 77.1774194,21.0351286 76.4677419,21.7377008 C75.8625473,22.0874331 75.1374527,22.0874331 74.5322581,21.7377008 C73.8225806,21.0351286 73.8225806,20.6135853 74.5322581,20.2622992 C75.1374527,19.9125669 75.8625473,19.9125669 76.4677419,20.2622992 L76.4677419,20.2622992 Z" id="Path"></path>
                    <circle id="Oval" cx="81" cy="18" r="1"></circle>
                    <path d="M86.5108696,15 C87.1630435,15.3078534 87.1630435,15.6157067 86.5108696,15.7696334 C85.8935015,16.0767889 85.1064985,16.0767889 84.4891304,15.7696334 C83.8369565,15.6157067 83.8369565,15.3078534 84.4891304,15 L86.5108696,15 Z" id="Path"></path>
                    <circle id="Oval" cx="91" cy="12" r="1"></circle>
                    <path d="M97.7374162,9 C98.0875279,9.28470066 98.0875279,9.71529934 97.7374162,10 L95.2625838,10 C94.9124721,9.71529934 94.9124721,9.28470066 95.2625838,9 L97.7374162,9 Z" id="Path"></path>
                    <circle id="Oval" cx="61" cy="23" r="1"></circle>
                    <path d="M65.4891304,20.2625699 C66.1238361,19.9124767 66.8761639,19.9124767 67.5108696,20.2625699 C68.1630435,20.6137271 68.1630435,21.0351157 67.5108696,21.7374301 C66.8761639,22.0875233 66.1238361,22.0875233 65.4891304,21.7374301 C64.8369565,21.0351157 64.8369565,20.6137271 65.4891304,20.2625699 Z" id="Path"></path>
                    <path d="M69.6021719,17.2730878 C70.2933009,16.9089707 71.0788618,16.9089707 71.7699908,17.2730878 C72.0766697,17.6869925 72.0766697,18.3130075 71.7699908,18.7269122 C71.0788618,19.0910293 70.2933009,19.0910293 69.6021719,18.7269122 C69.2696015,18.7269122 69,18.4014625 69,18 C69,17.5985375 69.2696015,17.2730878 69.6021719,17.2730878 L69.6021719,17.2730878 Z" id="Path"></path>
                    <path d="M76.4677419,15 C77.1774194,15.3069045 77.1774194,15.613809 76.4677419,15.7672612 C75.8819441,16.0775796 75.1180559,16.0775796 74.5322581,15.7672612 C73.8225806,15.613809 73.8225806,15.3069045 74.5322581,15 L76.4677419,15 Z" id="Path"></path>
                    <path d="M82.3931104,12 C82.7266127,12 82.9969698,12.2131965 82.9969698,12.4761876 C83.0140908,12.6105058 82.9581119,12.7442426 82.8429578,12.8441308 C82.7278037,12.9440191 82.5642971,13.0006708 82.3931104,13 L80.2192165,13 C79.9269278,12.7065076 79.9269278,12.2934865 80.2192165,12 L82.3931104,12 Z" id="Path"></path>
                    <path d="M86.4117647,9 C86.7366381,9 87,9.22385763 87,9.5 C87,9.77614237 86.7366381,10 86.4117647,10 L84.5882353,10 C84.2633619,10 84,9.77614237 84,9.5 C84,9.22385763 84.2633619,9 84.5882353,9 L86.4117647,9 Z" id="Path"></path>
                    <path d="M92.4230725,5.255822 C92.750853,5.29130813 93.0013571,5.61813277 93,6.00851364 C92.9731655,6.3724288 92.7298989,6.66095791 92.4230725,6.69277877 C91.8769402,7.10240708 91.1807465,7.10240708 90.6346142,6.69277877 C90.3054738,6.69439497 90.0299193,6.39728166 90,6.00851364 C90,5.80888741 90.0668609,5.61743734 90.1858742,5.47628028 C90.3048875,5.33512321 90.4663041,5.255822 90.6346142,5.255822 L90.6346142,5.255822 C91.1960836,4.914726 91.8616031,4.914726 92.4230725,5.255822 L92.4230725,5.255822 Z" id="Path"></path>
                    <path d="M97.7482514,2.27041409 C98.0839162,2.71404218 98.0839162,3.33835638 97.7482514,3.78198447 C96.9396464,4.07267184 96.0603536,4.07267184 95.2517486,3.78198447 C94.9160838,3.33835638 94.9160838,2.71404218 95.2517486,2.27041409 C96.0476663,1.90986197 96.9523337,1.90986197 97.7482514,2.27041409 Z" id="Path"></path>
                    <path d="M84.5876616,2.26256994 C85.1595774,1.91247669 85.8374793,1.91247669 86.4093951,2.26256994 C86.7339485,2.26256994 86.9970511,2.57700678 86.9970511,2.96488428 C87.0137127,3.16298607 86.9592359,3.3602302 86.8471717,3.50755229 C86.7351075,3.65487439 86.5759884,3.73842831 86.4093951,3.73743006 C85.8374793,4.08752331 85.1595774,4.08752331 84.5876616,3.73743006 C84.2537825,3.70100789 83.9986176,3.36556243 84,2.96488428 C84.0273338,2.59136995 84.2751264,2.29523016 84.5876616,2.26256994 L84.5876616,2.26256994 Z" id="Path"></path>
                    <path d="M92.5212766,0.187234098 C93.1595745,0.493049647 93.1595745,0.701560248 92.5212766,0.812765902 C91.917044,1.06241137 91.1467858,1.06241137 90.5425532,0.812765902 C89.8191489,0.701560248 89.8191489,0.493049647 90.5425532,0.187234098 C91.1467858,-0.062411366 91.917044,-0.062411366 92.5212766,0.187234098 Z" id="Path"></path>
                </g>
                <path d="M96,17.1617415 L73.3825065,3.6130642 C73.2086468,3.61548939 73.0589886,3.49097478 73.0300261,3.31980279 L71.8550914,3.31980279 C63.689295,-1.19642299 52.5274151,0.915059195 37.7232376,9.36098791 L6,27.7191524 L6,133 L35.6083551,116.108143 C50.3454554,107.891267 62.6468767,95.933358 71.267624,81.4446434 C79.713726,66.8707852 84.0953455,50.304109 83.9569191,33.4670761 C83.9170121,30.4463004 83.7012434,27.4303955 83.310705,24.4346246 L96,17.1617415 Z M58.2258486,49.1272356 C58.5372335,58.0956137 56.6835372,67.0072133 52.8211488,75.1101969 C49.259965,82.4643152 43.4337299,88.4867259 36.1958225,92.2953158 L30.7911227,95.2865822 L30.7911227,42.2062663 L31.6723238,42.8514414 L38.6044386,49.7724107 L57.3446475,39.2149998 C57.9872846,42.4788633 58.2826584,45.8013909 58.2258486,49.1272356 L58.2258486,49.1272356 Z" id="Shape" fill="#FC8181"></path>
                <path d="M5.93939394,134 L5,133.357403 L5,27.0367994 L37.0568182,8.69357437 C52.1458333,-0.0106948205 63.8882576,-2.11373973 72.0492424,2.09235009 L72.342803,2.09235009 L73.5757576,2.67652923 L73.8693182,2.67652923 L98,17.105754 L84.4375,25.225844 C84.6818737,28.022943 84.7798596,30.8307961 84.7310606,33.6380237 C84.8990225,50.503812 80.519754,67.1060232 72.0492424,81.7159669 C63.3440931,96.3287683 50.959275,108.430038 36.1174242,116.825133 L5.93939394,134 Z M7.11363636,28.5556651 L7.11363636,130.962268 L35.2367424,115.072596 C49.6264387,106.768797 61.6655798,94.9708728 70.2291667,80.7812803 C78.4621466,66.4278116 82.7358979,50.1641398 82.6174242,33.6380237 C82.5587121,30.6587101 82.3825758,27.6209785 82.030303,24.6416649 L82.030303,24.0574858 L93.7727273,17.3978436 L72.6363636,4.77957413 L72.6363636,4.77957413 L71.7556818,4.19539499 L71.1685606,4.19539499 C63.594697,-0.0106948205 52.4393939,2.38443966 38.2310606,10.5045297 L7.11363636,28.5556651 Z M29.7765152,97.31355 L29.7765152,40.5313375 L32.1837121,42.0502033 L38.5246212,48.359338 L57.8409091,37.5520239 L57.8409091,39.0708897 C58.4763918,42.4219477 58.7909322,45.8254338 58.780303,49.2356067 C59.0654973,58.3602217 57.195318,67.4241561 53.3200758,75.6989218 C49.7915846,83.1180009 43.9689827,89.2184976 36.7045455,93.1074602 L29.7765152,97.31355 Z M31.8901515,44.7374273 L31.8901515,93.3995497 L35.8238636,91.2965048 C42.6630655,87.4729478 48.2332335,81.7479803 51.8522727,74.8226531 C55.4149858,66.7679229 57.1586109,58.0336605 56.9602273,49.2356067 C56.9127974,46.4426625 56.7168162,43.6541741 56.3731061,40.881845 L38.2310606,51.0465621 L31.8901515,44.7374273 Z" id="Shape" fill="#C53030"></path>
                <polygon id="Path" fill="#FC8181" points="5 28 31 43.0877193 31 148 5 132.97076"></polygon>
                <polygon id="Path" fill="#FC8181" points="50.1363636 42.205165 91.6174242 35 95 77.7661406 77.9090909 105.250359 54.4090909 116 48 101.647776"></polygon>
                <path d="M54.2877872,117 L47,101.366667 L49.4292624,40.4666667 L92.6819831,33 L96,77.3916667 L96,77.3916667 L78.6396614,105.275 L54.2877872,117 Z M49.4292624,101.075 L55.1765417,113.966667 L77.1584039,103.758333 L93.8669891,76.8083333 L90.8452237,35.3916667 L51.5622733,42.275 L49.4292624,101.075 Z" id="Shape" fill="#DFDFDF"></path>
                <path d="M72.6719788,9.50729238 L71.2111554,9.50729238 C63.3811421,4.74436545 51.9867198,6.83540654 37.2616202,15.1995709 L6,33.438096 L6,34.8902078 L30.6002656,49.5274954 L31.8273572,48.9466507 L31.8273572,48.9466507 L35.4501992,52.5478881 L37.5537849,54 L94,22.3439613 L72.6719788,9.50729238 Z" id="Path" fill="#F56565"></path>
                <polygon id="Path" fill="#C53030" points="52.0248276 69.9185099 86.4841379 90 92 41.5133877 56.5917241 40 49 54.9592549"></polygon>
                <polygon id="Path" fill="#C53030" points="55.6486486 80 79 94.1766784 73.8108108 97 55 85.5265018"></polygon>
                <polygon id="Path" fill="#F56565" points="56.3589041 91 75 103.248649 57.2219178 113 54 106.875676"></polygon>
                <path d="M97.6188018,17.0923501 C89.1722487,12.8862603 77.4409248,14.9893052 62.6594567,23.6935744 L31.5714485,41.4526202 L5.93850591,26.4392163 L5,27.0233955 L5,133.343999 L31.5714485,149 L61.4276677,131.883551 C76.2464425,123.450697 88.6152411,111.333516 97.3255187,96.7159669 C105.788023,82.1060232 110.163152,65.503812 109.995348,48.6380237 C109.995348,31.8136644 105.772072,21.2984399 97.6188018,17.0923501 Z M30.3396595,145.962268 L7.11163829,132.175641 L7.11163829,29.7106195 L30.3396595,43.5556651 L30.3396595,145.962268 Z M83.4239,64.2940246 C83.7299554,73.2073624 81.8791098,82.0632814 78.027491,90.1147426 C74.6037424,97.4332408 68.8794607,103.441834 61.7209508,107.231191 L55.9726021,110.502595 L55.9726021,51.6757552 L63.2460229,47.4696654 C70.167504,43.5556651 74.9773468,42.971486 78.3207741,45.6587101 C81.6642014,48.3459341 83.4239,54.6550688 83.4239,64.2940246 L83.4239,64.2940246 Z" id="Shape" fill="#C53030"></path>
                <path d="M78.8692976,44.8517609 C75.0943479,41.8918991 69.7513421,42.4722641 62.7822041,46.6508927 L55,51.1197037 L55,112 L61.8529857,107.821371 C69.1640358,103.934458 75.1039834,97.8972698 78.8692976,90.5264923 C82.4650167,82.2588469 84.2092751,73.3058173 83.9799988,64.2939909 C83.9799988,54.1376021 82.4700189,47.8696593 78.8692976,44.8517609 Z M76.7785562,89.6559446 C73.2394616,96.5460172 67.7444073,102.239207 60.9818434,106.02224 L57.0907414,108.111554 L57.0907414,52.3384704 L63.6533463,48.4500244 C69.9255705,44.8517609 74.3974341,44.2713959 77.4173939,46.6508927 C80.4373537,49.0303895 81.8892574,55.0081497 81.8892574,64.2939909 C82.0873874,73.0219808 80.3417255,81.6848619 76.7785562,89.6559446 L76.7785562,89.6559446 Z" id="Shape" fill="#FC8181"></path>
            </g>
        </g>
    </g>
</svg>