<?xml version="1.0" encoding="UTF-8"?>
<svg width="290px" height="289px" viewBox="0 0 290 289" version="1.1" xmlns="http://www.w3.org/2000/svg" xmlns:xlink="http://www.w3.org/1999/xlink">
    <!-- Generator: Sketch 64 (93537) - https://sketch.com -->
    <title>design</title>
    <desc>Created with Sketch.</desc>
    <defs>
        <path d="M220,226.117519 L8,226.117519 C3.581722,226.117519 5.41083001e-16,222.535797 0,218.117519 L0,4.69854585 L0,4.69854585 C0,2.10361063 1.44026916,0 3.21693122,0 L224.783069,0 C226.559731,0 228,2.10361063 228,4.69854585 L228,218.117519 C228,222.535797 224.418278,226.117519 220,226.117519 Z" id="path-1"></path>
        <filter x="-4.6%" y="-4.6%" width="109.2%" height="109.3%" filterUnits="objectBoundingBox" id="filter-2">
            <feMorphology radius="1" operator="dilate" in="SourceAlpha" result="shadowSpreadOuter1"></feMorphology>
            <feOffset dx="0" dy="0" in="shadowSpreadOuter1" result="shadowOffsetOuter1"></feOffset>
            <feGaussianBlur stdDeviation="2.5" in="shadowOffsetOuter1" result="shadowBlurOuter1"></feGaussianBlur>
            <feColorMatrix values="0 0 0 0 0   0 0 0 0 0   0 0 0 0 0  0 0 0 0.1 0" type="matrix" in="shadowBlurOuter1"></feColorMatrix>
        </filter>
        <path d="M220,226.117519 L8,226.117519 C3.581722,226.117519 5.41083001e-16,222.535797 0,218.117519 L0,4.69854585 L0,4.69854585 C0,2.10361063 1.44026916,0 3.21693122,0 L224.783069,0 C226.559731,0 228,2.10361063 228,4.69854585 L228,218.117519 C228,222.535797 224.418278,226.117519 220,226.117519 Z" id="path-3"></path>
        <filter x="-2.6%" y="-2.7%" width="105.3%" height="105.3%" filterUnits="objectBoundingBox" id="filter-4">
            <feOffset dx="0" dy="0" in="SourceAlpha" result="shadowOffsetOuter1"></feOffset>
            <feGaussianBlur stdDeviation="2" in="shadowOffsetOuter1" result="shadowBlurOuter1"></feGaussianBlur>
            <feColorMatrix values="0 0 0 0 0   0 0 0 0 0   0 0 0 0 0  0 0 0 0.1 0" type="matrix" in="shadowBlurOuter1"></feColorMatrix>
        </filter>
    </defs>
    <g id="illustrations" stroke="none" stroke-width="1" fill="none" fill-rule="evenodd">
        <g id="design" transform="translate(5.000000, 6.000000)">
            <g id="browser-window">
                <g id="background-2-copy" transform="translate(140.000000, 139.724786) rotate(-15.000000) translate(-140.000000, -139.724786) translate(26.000000, 25.724786)">
                    <g id="Path" transform="translate(0.000000, 0.304605)">
                        <g id="path-3" fill-rule="nonzero">
                            <use fill="black" fill-opacity="1" filter="url(#filter-2)" xlink:href="#path-1"></use>
                            <use fill="#000000" xlink:href="#path-1"></use>
                        </g>
                        <path d="M220,226.117519 L8,226.117519 C3.581722,226.117519 5.41083001e-16,222.535797 0,218.117519 L0,4.69854585 L0,4.69854585 C0,2.10361063 1.44026916,0 3.21693122,0 L224.783069,0 C226.559731,0 228,2.10361063 228,4.69854585 L228,218.117519 C228,222.535797 224.418278,226.117519 220,226.117519 Z" id="path-3" fill="#38A169"></path>
                    </g>
                </g>
                <g id="background-2" transform="translate(26.000000, 25.724786)">
                    <g id="Path" transform="translate(0.000000, 0.304605)">
                        <g id="path-3" fill-rule="nonzero">
                            <use fill="black" fill-opacity="1" filter="url(#filter-4)" xlink:href="#path-3"></use>
                            <use fill="#000000" xlink:href="#path-3"></use>
                        </g>
                        <path d="M220,226.117519 L8,226.117519 C3.581722,226.117519 5.41083001e-16,222.535797 0,218.117519 L0,4.69854585 L0,4.69854585 C0,2.10361063 1.44026916,0 3.21693122,0 L224.783069,0 C226.559731,0 228,2.10361063 228,4.69854585 L228,218.117519 C228,222.535797 224.418278,226.117519 220,226.117519 Z" id="path-3" fill="#38A169"></path>
                    </g>
                </g>
                <g id="Group-8" transform="translate(34.364974, 32.610257)" fill-rule="nonzero">
                    <ellipse id="Oval" fill="#FD7E98" cx="2.53703704" cy="2.53675234" rx="2.53703704" ry="2.53675234"></ellipse>
                    <ellipse id="Oval" fill="#FFD56A" cx="13.6130159" cy="2.53675234" rx="2.53703704" ry="2.53675234"></ellipse>
                    <ellipse id="Oval" fill="#79E2AA" cx="24.6889947" cy="2.53675234" rx="2.53703704" ry="2.53675234"></ellipse>
                </g>
            </g>
            <g id="Group" transform="translate(84.000000, 62.000000)" fill-rule="nonzero">
                <path d="M7.53367876,133.473401 C8.15544041,133.899269 8.15544041,134.254159 7.53367876,134.467093 C7.26269724,134.806548 6.87899492,135 6.47668394,135 C6.07437296,135 5.69067064,134.806548 5.41968912,134.467093 C4.86010363,134.254159 4.86010363,133.899269 5.41968912,133.473401 C6.01588574,132.8422 6.93748214,132.8422 7.53367876,133.473401 L7.53367876,133.473401 Z" id="Path" fill="#2F855A"></path>
                <path d="M12.431745,130.284054 C12.5760177,130.262524 12.7203029,130.32436 12.8282084,130.453968 C12.9361138,130.583575 12.9973381,130.768579 12.9964389,130.962319 C13.0148368,131.168748 12.9612856,131.375037 12.8511407,131.522034 C12.7409958,131.669031 12.5864231,131.740499 12.431745,131.715946 C11.8429953,132.094685 11.1570047,132.094685 10.568255,131.715946 C10.4135769,131.740499 10.2590042,131.669031 10.1488593,131.522034 C10.0387144,131.375037 9.98516322,131.168748 10.0035611,130.962319 C10.0026619,130.768579 10.0638862,130.583575 10.1717916,130.453968 C10.2796971,130.32436 10.4239823,130.262524 10.568255,130.284054 L10.568255,130.284054 C11.1570047,129.905315 11.8429953,129.905315 12.431745,130.284054 Z" id="Path" fill="#2F855A"></path>
                <ellipse id="Oval" fill="#2F855A" cx="1.5" cy="131" rx="1.5" ry="1"></ellipse>
                <ellipse id="Oval" fill="#2F855A" cx="6.5" cy="128" rx="1.5" ry="1"></ellipse>
                <path d="M2.3712869,124.285299 C2.69537471,124.283355 2.96759488,124.57652 3,124.962384 C3,125.377877 2.71851556,125.714701 2.3712869,125.714701 C1.69420303,126.0951 0.910746227,126.0951 0.233662361,125.714701 C-0.0778874538,125.311156 -0.0778874538,124.688844 0.233662361,124.285299 C0.910746227,123.9049 1.69420303,123.9049 2.3712869,124.285299 Z" id="Path" fill="#2F855A"></path>
                <ellipse id="Oval" fill="#2F855A" cx="75.5" cy="156" rx="1.5" ry="1"></ellipse>
                <path d="M81.4444444,153 C81.7512693,153 82,153.235638 82,153.526312 C81.9713656,153.796258 81.7308211,154.001353 81.4444444,154 L79.5555556,154 C79.2691789,154.001353 79.0286344,153.796258 79,153.526312 C79,153.235638 79.2487307,153 79.5555556,153 L81.4444444,153 Z" id="Path" fill="#2F855A"></path>
                <path d="M86.4444444,150 C86.7512693,150 87,150.223858 87,150.5 C87,150.776142 86.7512693,151 86.4444444,151 L84.5555556,151 C84.2487307,151 84,150.776142 84,150.5 C84,150.223858 84.2487307,150 84.5555556,150 L86.4444444,150 Z" id="Path" fill="#2F855A"></path>
                <ellipse id="Oval" fill="#2F855A" cx="90.5" cy="148" rx="1.5" ry="1"></ellipse>
                <path d="M96.7616577,144.284054 C97.0794474,144.688303 97.0794474,145.311697 96.7616577,145.715946 C96.0930329,146.094685 95.3139745,146.094685 94.6453497,145.715946 C94.4696866,145.740499 94.2941431,145.669031 94.1690549,145.522034 C94.0439667,145.375037 93.9831503,145.168748 94.0040443,144.962319 C94.0030231,144.768579 94.0725535,144.583575 94.1950984,144.453968 C94.3176433,144.32436 94.4815036,144.262524 94.6453497,144.284054 C95.3139745,143.905315 96.0930329,143.905315 96.7616577,144.284054 L96.7616577,144.284054 Z" id="Path" fill="#2F855A"></path>
                <path d="M101.387755,141.272034 C101.725889,141.272034 102,141.597956 102,142 C102,142.402044 101.725889,142.727966 101.387755,142.727966 C100.835227,143.090678 100.164773,143.090678 99.6122449,142.727966 C99.2741114,142.727966 99,142.402044 99,142 C99,141.597956 99.2741114,141.272034 99.6122449,141.272034 L99.6122449,141.272034 C100.164773,140.909322 100.835227,140.909322 101.387755,141.272034 L101.387755,141.272034 Z" id="Path" fill="#2F855A"></path>
                <path d="M66.4444444,156 C66.7512693,156 67,156.223858 67,156.5 C67,156.776142 66.7512693,157 66.4444444,157 L64.5555556,157 C64.2487307,157 64,156.776142 64,156.5 C64,156.223858 64.2487307,156 64.5555556,156 L66.4444444,156 Z" id="Path" fill="#2F855A"></path>
                <path d="M71.435411,153.003298 C71.5956865,153.002466 71.7487361,153.059174 71.8559568,153.159121 C71.9631776,153.259067 72.0143334,153.392711 71.9965216,153.526342 C71.9965216,153.786325 71.7453038,153.997082 71.435411,153.997082 L69.6273879,153.997082 C69.4681021,154.012025 69.3088025,153.969108 69.1896683,153.879156 C69.0705342,153.789204 69.0029389,153.660804 69.0039317,153.526342 C68.9836193,153.383073 69.042743,153.239901 69.1643497,153.13788 C69.2859563,153.035859 69.456614,152.986258 69.6273879,153.003298 L71.435411,153.003298 L71.435411,153.003298 Z" id="Path" fill="#2F855A"></path>
                <ellipse id="Oval" fill="#2F855A" cx="75.5" cy="151" rx="1.5" ry="1"></ellipse>
                <ellipse id="Oval" fill="#2F855A" cx="80.5" cy="148" rx="1.5" ry="1"></ellipse>
                <path d="M86.4316672,144.285299 C86.5759596,144.263805 86.7202646,144.325535 86.8281849,144.454917 C86.9361051,144.584298 86.9973377,144.768982 86.9964384,144.962384 C87.0148388,145.168455 86.9612803,145.374386 86.8511203,145.521127 C86.7409604,145.667868 86.5863665,145.739212 86.4316672,145.714701 C85.8234446,146.0951 85.1196676,146.0951 84.5114451,145.714701 C84.366256,145.715899 84.2276128,145.634333 84.1304846,145.490575 C84.0333564,145.346817 83.9870158,145.154592 84.003151,144.962384 C84.003151,144.58844 84.230722,144.285299 84.5114451,144.285299 C85.1196676,143.9049 85.8234446,143.9049 86.4316672,144.285299 Z" id="Path" fill="#2F855A"></path>
                <path d="M91.4444444,142.114754 C91.7512693,142.114754 92,142.287235 92,142.5 C92,142.712765 91.7512693,142.885246 91.4444444,142.885246 C90.8341456,143.038251 90.1658544,143.038251 89.5555556,142.885246 C89.2487307,142.885246 89,142.712765 89,142.5 C89,142.287235 89.2487307,142.114754 89.5555556,142.114754 C90.1658544,141.961749 90.8341456,141.961749 91.4444444,142.114754 L91.4444444,142.114754 Z" id="Path" fill="#2F855A"></path>
                <path d="M96.7377419,138.469064 C96.8894222,138.579864 96.9853108,138.757338 96.9984516,138.951594 C97.0115924,139.14585 96.9405664,139.335913 96.8053405,139.468352 L96.7377419,139.468352 C96.4554282,139.806362 96.0491838,140 95.6223656,140 C95.1955474,140 94.789303,139.806362 94.5069892,139.468352 C93.8310036,139.040086 93.8310036,138.683197 94.5069892,138.469064 C95.1326226,137.843645 96.1121086,137.843645 96.7377419,138.469064 L96.7377419,138.469064 Z" id="Path" fill="#2F855A"></path>
                <path d="M56.4444444,156 C56.7512693,156 57,156.223858 57,156.5 C57,156.776142 56.7512693,157 56.4444444,157 L54.5555556,157 C54.2487307,157 54,156.776142 54,156.5 C54,156.223858 54.2487307,156 54.5555556,156 L56.4444444,156 Z" id="Path" fill="#2F855A"></path>
                <path d="M61.4316672,153.003298 C61.5863665,152.986258 61.7409604,153.035859 61.8511203,153.13788 C61.9612803,153.239901 62.0148388,153.383073 61.9964384,153.526342 C61.9973377,153.660804 61.9361051,153.789204 61.8281849,153.879156 C61.7202646,153.969108 61.5759596,154.012025 61.4316672,153.997082 L59.5114451,153.997082 C59.230722,153.997082 59.003151,153.786325 59.003151,153.526342 C58.9870158,153.392711 59.0333564,153.259067 59.1304846,153.159121 C59.2276128,153.059174 59.366256,153.002466 59.5114451,153.003298 L61.4316672,153.003298 Z" id="Path" fill="#2F855A"></path>
                <path d="M66.4444444,150 C66.7512693,150 67,150.223858 67,150.5 C67,150.776142 66.7512693,151 66.4444444,151 L64.5555556,151 C64.2487307,151 64,150.776142 64,150.5 C64,150.223858 64.2487307,150 64.5555556,150 L66.4444444,150 Z" id="Path" fill="#2F855A"></path>
                <path d="M71.435411,147.272034 C71.5956865,147.270875 71.7487361,147.349801 71.8559568,147.488906 C71.9631776,147.62801 72.0143334,147.814013 71.9965216,148 C71.9981321,148.37525 71.7551825,148.690445 71.435411,148.727966 C70.8727653,149.090678 70.1900336,149.090678 69.6273879,148.727966 C69.2830626,148.727966 69.0039317,148.402044 69.0039317,148 C68.9836193,147.800599 69.042743,147.601334 69.1643497,147.459343 C69.2859563,147.317351 69.456614,147.248317 69.6273879,147.272034 L69.6273879,147.272034 C70.1900336,146.909322 70.8727653,146.909322 71.435411,147.272034 Z" id="Path" fill="#2F855A"></path>
                <path d="M76.3712869,144.285299 C76.6953747,144.283355 76.9675949,144.57652 77,144.962384 C77,145.377877 76.7185156,145.714701 76.3712869,145.714701 C75.694203,146.0951 74.9107462,146.0951 74.2336624,145.714701 C73.9221125,145.311156 73.9221125,144.688844 74.2336624,144.285299 C74.9107462,143.9049 75.694203,143.9049 76.3712869,144.285299 Z" id="Path" fill="#2F855A"></path>
                <ellipse id="Oval" fill="#2F855A" cx="80.5" cy="142" rx="1.5" ry="1"></ellipse>
                <path d="M86.5336788,138.473401 C87.1554404,138.686335 87.1554404,139.041225 86.5336788,139.467093 C86.2626972,139.806548 85.8789949,140 85.4766839,140 C85.074373,140 84.6906706,139.806548 84.4196891,139.467093 C83.8601036,139.041225 83.8601036,138.686335 84.4196891,138.473401 C85.0158857,137.8422 85.9374821,137.8422 86.5336788,138.473401 L86.5336788,138.473401 Z" id="Path" fill="#2F855A"></path>
                <path d="M91.4316672,135.285299 C91.5759596,135.263805 91.7202646,135.325535 91.8281849,135.454917 C91.9361051,135.584298 91.9973377,135.768982 91.9964384,135.962384 C92.0148388,136.168455 91.9612803,136.374386 91.8511203,136.521127 C91.7409604,136.667868 91.5863665,136.739212 91.4316672,136.714701 C90.8234446,137.0951 90.1196676,137.0951 89.5114451,136.714701 C89.366256,136.715899 89.2276128,136.634333 89.1304846,136.490575 C89.0333564,136.346817 88.9870158,136.154592 89.003151,135.962384 C89.003151,135.58844 89.230722,135.285299 89.5114451,135.285299 C90.1196676,134.9049 90.8234446,134.9049 91.4316672,135.285299 Z" id="Path" fill="#2F855A"></path>
                <ellipse id="Oval" fill="#2F855A" cx="46.5" cy="156" rx="1.5" ry="1"></ellipse>
                <ellipse id="Oval" fill="#2F855A" cx="51.5" cy="153" rx="1.5" ry="1"></ellipse>
                <path d="M56.4444444,150 C56.7512693,150 57,150.223858 57,150.5 C57,150.776142 56.7512693,151 56.4444444,151 L54.5555556,151 C54.2487307,151 54,150.776142 54,150.5 C54,150.223858 54.2487307,150 54.5555556,150 L56.4444444,150 Z" id="Path" fill="#2F855A"></path>
                <path d="M42.7616577,153.003298 C43.0794474,153.283861 43.0794474,153.716519 42.7616577,153.997082 L40.6453497,153.997082 C40.4815036,154.012025 40.3176433,153.969108 40.1950984,153.879156 C40.0725535,153.789204 40.0030231,153.660804 40.0040443,153.526342 C39.9831503,153.383073 40.0439667,153.239901 40.1690549,153.13788 C40.2941431,153.035859 40.4696866,152.986258 40.6453497,153.003298 L42.7616577,153.003298 L42.7616577,153.003298 Z" id="Path" fill="#2F855A"></path>
                <path d="M47.3877551,150 C47.7258886,150 48,150.223858 48,150.5 C48,150.776142 47.7258886,151 47.3877551,151 L45.6122449,151 C45.2741114,151 45,150.776142 45,150.5 C45,150.223858 45.2741114,150 45.6122449,150 L47.3877551,150 Z" id="Path" fill="#2F855A"></path>
                <ellipse id="Oval" fill="#2F855A" cx="36.5" cy="151" rx="1.5" ry="1"></ellipse>
                <path d="M42.755582,147.115132 C43.0814727,147.334276 43.0814727,147.665724 42.755582,147.884868 C42.0748349,148.038377 41.3246771,148.038377 40.6439299,147.884868 C40.2905259,147.884868 40.0040354,147.712557 40.0040354,147.5 C39.9831874,147.394579 40.04387,147.28923 40.168683,147.21416 C40.293496,147.139091 40.4686533,147.102593 40.6439299,147.115132 L40.6439299,147.115132 C41.3246771,146.961623 42.0748349,146.961623 42.755582,147.115132 L42.755582,147.115132 Z" id="Path" fill="#2F855A"></path>
                <path d="M32.4345575,147.114754 C32.7468428,147.114754 33,147.287235 33,147.5 C32.9737048,147.704887 32.7352788,147.86733 32.4345575,147.885246 C31.8133974,148.038251 31.133213,148.038251 30.512053,147.885246 C30.2220368,147.865389 30.0016941,147.698586 30.0031547,147.5 C29.9870003,147.401574 30.033396,147.30314 30.1306397,147.229525 C30.2278833,147.155909 30.3666914,147.114141 30.512053,147.114754 C31.133213,146.961749 31.8133974,146.961749 32.4345575,147.114754 Z" id="Path" fill="#2F855A"></path>
                <ellipse id="Oval" fill="#2F855A" cx="36.5" cy="145" rx="1.5" ry="1"></ellipse>
                <path d="M27.4444444,144.285299 C27.7308211,144.283355 27.9713656,144.57652 28,144.962384 C28,145.377877 27.7512693,145.714701 27.4444444,145.714701 C26.8461466,146.0951 26.1538534,146.0951 25.5555556,145.714701 C25.2487307,145.714701 25,145.377877 25,144.962384 C25.0286344,144.57652 25.2691789,144.283355 25.5555556,144.285299 L25.5555556,144.285299 C26.1538534,143.9049 26.8461466,143.9049 27.4444444,144.285299 Z" id="Path" fill="#2F855A"></path>
                <path d="M32.4444444,142.114754 C32.7512693,142.114754 33,142.287235 33,142.5 C33,142.712765 32.7512693,142.885246 32.4444444,142.885246 C31.8341456,143.038251 31.1658544,143.038251 30.5555556,142.885246 C30.2487307,142.885246 30,142.712765 30,142.5 C30,142.287235 30.2487307,142.114754 30.5555556,142.114754 C31.1658544,141.961749 31.8341456,141.961749 32.4444444,142.114754 L32.4444444,142.114754 Z" id="Path" fill="#2F855A"></path>
                <ellipse id="Oval" fill="#2F855A" cx="21.5" cy="142" rx="1.5" ry="1"></ellipse>
                <path d="M27.5408163,138.285299 C28.1530612,139.037616 28.1530612,139.413774 27.5408163,139.714701 C26.8814677,140.0951 26.1185323,140.0951 25.4591837,139.714701 C24.8469388,139.413774 24.8469388,139.037616 25.4591837,138.285299 C26.1185323,137.9049 26.8814677,137.9049 27.5408163,138.285299 Z" id="Path" fill="#2F855A"></path>
                <path d="M17.6878613,138.275221 C18.1040462,139.011716 18.1040462,139.379963 17.6878613,139.674561 C17.2823609,140.10848 16.7523212,140.10848 16.3468208,139.674561 C15.8843931,139.379963 15.8843931,139.011716 16.3468208,138.275221 C16.7641443,137.90826 17.2705377,137.90826 17.6878613,138.275221 Z" id="Path" fill="#2F855A"></path>
                <path d="M22.487947,135.285299 C22.7690038,135.285299 22.9968453,135.58844 22.9968453,135.962384 C23.0129997,136.154592 22.966604,136.346817 22.8693603,136.490575 C22.7721167,136.634333 22.6333086,136.715899 22.487947,136.714701 C21.8790015,137.0951 21.174388,137.0951 20.5654425,136.714701 C20.2531572,136.714701 20,136.377877 20,135.962384 C20.029144,135.57652 20.2739693,135.283355 20.5654425,135.285299 C21.174388,134.9049 21.8790015,134.9049 22.487947,135.285299 L22.487947,135.285299 Z" id="Path" fill="#2F855A"></path>
                <ellipse id="Oval" fill="#2F855A" cx="11.5" cy="136" rx="1.5" ry="1"></ellipse>
                <path d="M17.3877551,132.272034 C17.7258886,132.272034 18,132.597956 18,133 C18,133.402044 17.7258886,133.727966 17.3877551,133.727966 C16.8352273,134.090678 16.1647727,134.090678 15.6122449,133.727966 C15.2741114,133.727966 15,133.402044 15,133 C15,132.597956 15.2741114,132.272034 15.6122449,132.272034 C16.1647727,131.909322 16.8352273,131.909322 17.3877551,132.272034 Z" id="Path" fill="#2F855A"></path>
                <path d="M104.555556,138.285299 C105.153853,137.9049 105.846147,137.9049 106.444444,138.285299 C106.751269,138.285299 107,138.622123 107,139.037616 C106.971366,139.42348 106.730821,139.716645 106.444444,139.714701 C105.846147,140.0951 105.153853,140.0951 104.555556,139.714701 C104.269179,139.716645 104.028634,139.42348 104,139.037616 C104,138.622123 104.248731,138.285299 104.555556,138.285299 Z" id="Path" fill="#2F855A"></path>
                <path d="M111.434557,135.285299 C111.726031,135.283355 111.970856,135.57652 112,135.962384 C112,136.377877 111.746843,136.714701 111.434557,136.714701 C110.825612,137.0951 110.120998,137.0951 109.512053,136.714701 C109.366691,136.715899 109.227883,136.634333 109.13064,136.490575 C109.033396,136.346817 108.987,136.154592 109.003155,135.962384 C109.003155,135.58844 109.230996,135.285299 109.512053,135.285299 C110.120998,134.9049 110.825612,134.9049 111.434557,135.285299 Z" id="Path" fill="#2F855A"></path>
                <path d="M99.6273879,135.325439 C100.174093,134.89152 100.888706,134.89152 101.435411,135.325439 C101.745304,135.325439 101.996522,135.622205 101.996522,135.988284 C102.014333,136.17645 101.963178,136.364632 101.855957,136.505366 C101.748736,136.646101 101.595687,136.725952 101.435411,136.724779 C100.872765,137.09174 100.190034,137.09174 99.6273879,136.724779 C99.456614,136.748774 99.2859563,136.678931 99.1643497,136.535276 C99.042743,136.391621 98.9836193,136.190021 99.0039317,135.988284 C99.0029389,135.798949 99.0705342,135.61815 99.1896683,135.49149 C99.3088025,135.364829 99.4681021,135.304398 99.6273879,135.325439 L99.6273879,135.325439 Z" id="Path" fill="#2F855A"></path>
                <path d="M106.444444,133.114754 C106.751269,133.114754 107,133.287235 107,133.5 C107,133.712765 106.751269,133.885246 106.444444,133.885246 C105.834146,134.038251 105.165854,134.038251 104.555556,133.885246 C104.248731,133.885246 104,133.712765 104,133.5 C104,133.287235 104.248731,133.114754 104.555556,133.114754 L104.555556,133.114754 C105.165854,132.961749 105.834146,132.961749 106.444444,133.114754 L106.444444,133.114754 Z" id="Path" fill="#2F855A"></path>
                <ellipse id="Oval" fill="#2F855A" cx="110.5" cy="131" rx="1.5" ry="1"></ellipse>
                <path d="M94.6407565,133.115132 C95.3224205,132.961623 96.0735887,132.961623 96.7552528,133.115132 C97.0815824,133.334276 97.0815824,133.665724 96.7552528,133.884868 C96.0735887,134.038377 95.3224205,134.038377 94.6407565,133.884868 C94.2868764,133.884868 94,133.712557 94,133.5 C94,133.287443 94.2868764,133.115132 94.6407565,133.115132 L94.6407565,133.115132 Z" id="Path" fill="#2F855A"></path>
                <path d="M101.435411,130.28231 C101.745304,130.28231 101.996522,130.586719 101.996522,130.962227 C102.014333,131.155239 101.963178,131.348268 101.855957,131.492627 C101.748736,131.636986 101.595687,131.718893 101.435411,131.71769 C100.872765,132.094103 100.190034,132.094103 99.6273879,131.71769 C99.456614,131.742304 99.2859563,131.670661 99.1643497,131.523306 C99.042743,131.375951 98.9836193,131.16916 99.0039317,130.962227 C99.0029389,130.768015 99.0705342,130.58256 99.1896683,130.452637 C99.3088025,130.322714 99.4681021,130.260727 99.6273879,130.28231 L99.6273879,130.28231 C100.190034,129.905897 100.872765,129.905897 101.435411,130.28231 L101.435411,130.28231 Z" id="Path" fill="#2F855A"></path>
                <path d="M106.540816,127.470701 C107.153061,127.752994 107.153061,128.035287 106.540816,128.529299 C105.953745,129.1569 105.046255,129.1569 104.459184,128.529299 C103.846939,128.294055 103.846939,127.941189 104.459184,127.470701 C105.046255,126.8431 105.953745,126.8431 106.540816,127.470701 L106.540816,127.470701 Z" id="Path" fill="#2F855A"></path>
                <path d="M95.0568442,50.3339976 C86.9518263,36.7848557 75.4005563,25.6511632 61.5920113,18.0789159 L30.6398961,0 L3,16.7014747 L23.7299221,34.4934237 L30.6398961,39.4866481 L54.9675733,57.2785971 L64.6758013,100.610602 L66.0463747,124.83061 L66.8458758,144 L94.5428792,127.298525 C102.823427,122.879235 106.992254,111.744918 106.992254,94.5269031 C107.204044,78.9640687 103.069019,63.6534275 95.0568442,50.3339976 L95.0568442,50.3339976 Z" id="Path" fill="#C6F6D5"></path>
                <path d="M65.7697195,146 L64.9148975,125.273367 L63.5471824,101.463434 L53.9161881,58.6398123 L30.1521371,41.2248729 L23.2565732,36.2002346 L2.28494066,18.2714118 L2,18.2714118 L2,16.8439578 L30.7220184,0 L62.1794672,18.2714118 C76.0645083,25.9683635 87.7560305,37.0928234 96.1443938,50.5889715 C104.011466,64.100339 108.105719,79.4834332 107.997925,95.1255377 C107.997925,112.540477 103.552851,123.845913 95.0046311,128.870551 L65.7697195,146 Z M4.79241846,17.7004302 L24.3963358,34.544388 L31.2918998,39.511928 L55.8537846,57.497849 L65.7697195,101.177943 L67.1374347,124.987876 L67.707316,142.402816 L93.9218566,126.929214 C101.900195,122.475557 105.775388,111.684005 105.775388,95.1255377 C105.992723,79.8678459 101.988549,64.8479031 94.2067973,51.7309347 C86.1521891,38.571539 74.8463787,27.7158847 61.3816334,20.2127493 L30.7220184,2.51231912 L4.79241846,17.7004302 Z" id="Shape" fill="#2F855A"></path>
                <path d="M19,47.7308423 L20.3705954,118.921469 L45.7837181,133 L62.1166464,125.248258 L66,97.661178 L50.5236938,61.809373 C50.5236938,61.239392 22.8262454,43 22.8262454,43 L19,47.7308423 Z" id="Path" fill="#2F855A"></path>
                <polygon id="Path" fill="#C6F6D5" points="26.5419532 112.030973 62.0715268 90 66 110.075221 40.8115543 129 24 117.89823"></polygon>
                <path d="M41,131 L23,118.925722 L26.3142857,111.935351 L62.8857143,89 L67,111.126547 L41,131 Z M25.8,118.116919 L41,128.458047 L64.7714286,110.259972 L61.4571429,92.3507565 L27.7428571,113.379642 L25.8,118.116919 Z" id="Shape" fill="#2F855A"></path>
                <path d="M37,111.472588 C37,111.472588 45.7961165,117.765065 52.8446602,116.922322 C59.8932039,116.07958 61,99.7865596 61,99.7865596 L57.9126214,99 L37,111.472588 Z" id="Path" fill="#68D391"></path>
                <path d="M78.9980649,110.646183 C78.9980649,127.82321 74.9023608,138.837051 66.5971831,143.573573 C58.2920053,148.310095 46.8012799,146.027434 31.8974678,137.467454 L3,120.632826 L3,17 L33.8315503,34.9759583 C47.5709722,42.5005037 59.0739299,53.5479065 67.1660309,66.9902841 C75.0100674,80.1852209 79.1020912,95.2832992 78.9980649,110.646183 Z M53.6843382,97.1214142 C54.0376495,88.8503428 52.4190378,80.6140438 48.9629015,73.0964032 C45.6090824,66.6093311 40.4517784,61.2373196 34.1159742,57.6313724 L26.948492,53.4655154 L26.948492,111.787514 L32.4663156,114.81204 C39.9182217,118.977897 45.1516213,119.776828 48.7353624,116.752302 C52.3191035,113.727776 53.6843382,107.336324 53.6843382,97.1214142 Z" id="Shape" fill="#C6F6D5"></path>
                <polygon id="Path" fill="#2F855A" points="78.776 101.76324 106.712 86 107 104.504673 102.5072 118.897196 96.632 126.379024 71 141 76.5872 131.633437 79.064 116.09865"></polygon>
                <path d="M56.9201681,60 L85,43.5191257 C78.3381885,36.5468294 70.6529612,30.6076765 62.2030812,25.9016393 L30.7927171,8 L3,24.2535519 L3,24.2535519 L34.4103641,42.1551913 C42.7181135,47.0349656 50.294877,53.0414993 56.9201681,60 L56.9201681,60 Z" id="Path" fill="#68D391"></path>
                <path d="M69.9052795,80 L98,63.8814532 C97.17443,62.1569894 96.2339124,60.4897659 95.1847826,58.8910134 C93.3137629,55.8218444 91.2808821,52.8539978 89.0947205,50 L61,66.4053537 C63.3584539,69.2967553 65.490526,72.365089 67.3773292,75.583174 L69.9052795,80 Z" id="Path" fill="#68D391"></path>
                <path d="M56.8381194,147.997138 C49.9549115,147.997138 41.4220091,145.185025 31.5238423,139.388629 L2,122.114221 L2,16.5165105 L3.13772032,16 L34.5388012,34.3074291 C48.3813545,42.1180746 59.9683492,53.4319272 68.1584366,67.1345433 C76.1240827,80.5413726 80.2219613,95.9253233 79.9907279,111.55445 C79.9907279,129.345368 75.8380488,140.76599 67.3051464,145.471975 C64.0820684,147.188127 60.482077,148.056622 56.8381194,147.997138 Z M3.93412454,121.023809 L32.6046766,137.724317 C46.9399526,146.045876 58.4878139,147.997138 66.2243121,143.520713 C73.9608102,139.044288 78.0566034,128.541907 78.0566034,111.55445 C78.2328197,96.3144095 74.2368569,81.3208929 66.5087421,68.2249544 C58.4144587,54.8475288 47.0033985,43.8298688 33.4010808,36.2586911 L3.93412454,19.0416732 L3.93412454,121.023809 Z M43.6405637,120.449909 C39.4918911,120.288907 35.4712412,118.956699 32.0358164,116.604775 L26.2903288,113.276151 L26.2903288,52.3852979 L34.8232312,57.3782331 C41.2946892,61.050716 46.5558786,66.5580643 49.9549115,73.2178896 C53.4851465,80.9636644 55.179559,89.4321998 54.9039949,97.9530054 C54.9039949,108.512776 53.2543004,115.170023 49.3860513,118.556037 C47.7719395,119.887962 45.7227977,120.563416 43.6405637,120.449909 L43.6405637,120.449909 Z M28.1675674,111.8414 L33.1735368,114.940463 C40.0567447,118.785597 45.0058281,119.646448 48.0207869,116.834335 C51.0357458,114.022222 52.9698703,107.709316 52.9698703,97.9530054 C53.3048559,89.7964439 51.6030628,81.6857038 48.0207869,74.3656908 C44.8562804,67.9354152 39.8659048,62.6011438 33.6855109,59.0425449 L28.1675674,56.0008717 L28.1675674,111.8414 Z" id="Shape" fill="#2F855A"></path>
            </g>
        </g>
    </g>
</svg>