<?xml version="1.0" encoding="UTF-8"?>
<svg width="290px" height="289px" viewBox="0 0 290 289" version="1.1" xmlns="http://www.w3.org/2000/svg" xmlns:xlink="http://www.w3.org/1999/xlink">
    <!-- Generator: Sketch 64 (93537) - https://sketch.com -->
    <title>mobile</title>
    <desc>Created with Sketch.</desc>
    <defs>
        <path d="M220,226.117519 L8,226.117519 C3.581722,226.117519 5.41083001e-16,222.535797 0,218.117519 L0,4.69854585 L0,4.69854585 C0,2.10361063 1.44026916,0 3.21693122,0 L224.783069,0 C226.559731,0 228,2.10361063 228,4.69854585 L228,218.117519 C228,222.535797 224.418278,226.117519 220,226.117519 Z" id="path-1"></path>
        <filter x="-4.6%" y="-4.6%" width="109.2%" height="109.3%" filterUnits="objectBoundingBox" id="filter-2">
            <feMorphology radius="1" operator="dilate" in="SourceAlpha" result="shadowSpreadOuter1"></feMorphology>
            <feOffset dx="0" dy="0" in="shadowSpreadOuter1" result="shadowOffsetOuter1"></feOffset>
            <feGaussianBlur stdDeviation="2.5" in="shadowOffsetOuter1" result="shadowBlurOuter1"></feGaussianBlur>
            <feColorMatrix values="0 0 0 0 0   0 0 0 0 0   0 0 0 0 0  0 0 0 0.1 0" type="matrix" in="shadowBlurOuter1"></feColorMatrix>
        </filter>
        <path d="M220,226.117519 L8,226.117519 C3.581722,226.117519 5.41083001e-16,222.535797 0,218.117519 L0,4.69854585 L0,4.69854585 C0,2.10361063 1.44026916,0 3.21693122,0 L224.783069,0 C226.559731,0 228,2.10361063 228,4.69854585 L228,218.117519 C228,222.535797 224.418278,226.117519 220,226.117519 Z" id="path-3"></path>
        <filter x="-2.6%" y="-2.7%" width="105.3%" height="105.3%" filterUnits="objectBoundingBox" id="filter-4">
            <feOffset dx="0" dy="0" in="SourceAlpha" result="shadowOffsetOuter1"></feOffset>
            <feGaussianBlur stdDeviation="2" in="shadowOffsetOuter1" result="shadowBlurOuter1"></feGaussianBlur>
            <feColorMatrix values="0 0 0 0 0   0 0 0 0 0   0 0 0 0 0  0 0 0 0.1 0" type="matrix" in="shadowBlurOuter1"></feColorMatrix>
        </filter>
    </defs>
    <g id="illustrations" stroke="none" stroke-width="1" fill="none" fill-rule="evenodd">
        <g id="mobile" transform="translate(5.000000, 6.000000)">
            <g id="browser-window">
                <g id="background-2-copy" transform="translate(140.000000, 139.724786) rotate(-15.000000) translate(-140.000000, -139.724786) translate(26.000000, 25.724786)">
                    <g id="Path" transform="translate(0.000000, 0.304605)">
                        <g id="path-3" fill-rule="nonzero">
                            <use fill="black" fill-opacity="1" filter="url(#filter-2)" xlink:href="#path-1"></use>
                            <use fill="#000000" xlink:href="#path-1"></use>
                        </g>
                        <path d="M220,226.117519 L8,226.117519 C3.581722,226.117519 5.41083001e-16,222.535797 0,218.117519 L0,4.69854585 L0,4.69854585 C0,2.10361063 1.44026916,0 3.21693122,0 L224.783069,0 C226.559731,0 228,2.10361063 228,4.69854585 L228,218.117519 C228,222.535797 224.418278,226.117519 220,226.117519 Z" id="path-3" fill="#DD6B20"></path>
                    </g>
                </g>
                <g id="background-2" transform="translate(26.000000, 25.724786)">
                    <g id="Path" transform="translate(0.000000, 0.304605)">
                        <g id="path-3" fill-rule="nonzero">
                            <use fill="black" fill-opacity="1" filter="url(#filter-4)" xlink:href="#path-3"></use>
                            <use fill="#000000" xlink:href="#path-3"></use>
                        </g>
                        <path d="M220,226.117519 L8,226.117519 C3.581722,226.117519 5.41083001e-16,222.535797 0,218.117519 L0,4.69854585 L0,4.69854585 C0,2.10361063 1.44026916,0 3.21693122,0 L224.783069,0 C226.559731,0 228,2.10361063 228,4.69854585 L228,218.117519 C228,222.535797 224.418278,226.117519 220,226.117519 Z" id="path-3" fill="#DD6B20"></path>
                    </g>
                </g>
                <g id="Group-8" transform="translate(34.364974, 32.610257)" fill-rule="nonzero">
                    <ellipse id="Oval" fill="#FD7E98" cx="2.53703704" cy="2.53675234" rx="2.53703704" ry="2.53675234"></ellipse>
                    <ellipse id="Oval" fill="#FFD56A" cx="13.6130159" cy="2.53675234" rx="2.53703704" ry="2.53675234"></ellipse>
                    <ellipse id="Oval" fill="#79E2AA" cx="24.6889947" cy="2.53675234" rx="2.53703704" ry="2.53675234"></ellipse>
                </g>
            </g>
            <g id="Group" transform="translate(74.000000, 52.000000)" fill-rule="nonzero">
                <g id="Group-12" transform="translate(0.000000, 108.000000)" fill="#C05621">
                    <ellipse id="Oval" cx="1.5" cy="43" rx="1.5" ry="1"></ellipse>
                    <path d="M6.92210125,39.8642097 C6.44372497,40.0452634 5.91084906,40.0452634 5.43247278,39.8642097 C5.19362466,39.8642097 5,39.6796556 5,39.4519966 C5,39.2243376 5.19362466,39.0397835 5.43247278,39.0397835 L5.43247278,39.0397835 C5.86494556,38.8107762 7.35457403,39.6352024 6.92210125,39.8642097 Z" id="Path"></path>
                    <path d="M36.4489796,67.1200142 C36.7532998,67.1200142 37,67.2831269 37,67.4843366 C37,67.6855463 36.7532998,67.8486589 36.4489796,67.8486589 C35.8531334,68.050447 35.1468666,68.050447 34.5510204,67.8486589 C34.2467002,67.8486589 34,67.6855463 34,67.4843366 C34,67.2831269 34.2467002,67.1200142 34.5510204,67.1200142 C35.1605272,66.9599953 35.8394728,66.9599953 36.4489796,67.1200142 Z" id="Path"></path>
                    <path d="M40.7510841,64.1200142 C41.082972,64.3236198 41.082972,64.6450534 40.7510841,64.8486589 C40.0817347,65.050447 39.2883433,65.050447 38.6189939,64.8486589 C38.277133,64.8486589 38,64.6855463 38,64.4843366 C38,64.2831269 38.277133,64.1200142 38.6189939,64.1200142 L38.6189939,64.1200142 C39.3036891,63.9599953 40.0663889,63.9599953 40.7510841,64.1200142 Z" id="Path"></path>
                    <path d="M45.6666667,61.1206089 C46.1111111,61.3224939 46.1111111,61.4840018 45.6666667,61.8473946 C45.2570577,62.0508685 44.7429423,62.0508685 44.3333333,61.8473946 C43.8888889,61.4840018 43.8888889,61.3224939 44.3333333,61.1206089 C44.7560187,60.959797 45.2439813,60.959797 45.6666667,61.1206089 L45.6666667,61.1206089 Z" id="Path"></path>
                    <ellipse id="Oval" cx="49.5" cy="59" rx="1.5" ry="1"></ellipse>
                    <path d="M55.4489796,55.1238955 C55.7532998,55.1238955 56,55.2922832 56,55.5 C56,55.7077168 55.7532998,55.8761045 55.4489796,55.8761045 C54.8394728,56.0412985 54.1605272,56.0412985 53.5510204,55.8761045 C53.2467002,55.8761045 53,55.7077168 53,55.5 C53,55.2922832 53.2467002,55.1238955 53.5510204,55.1238955 C54.1605272,54.9587015 54.8394728,54.9587015 55.4489796,55.1238955 Z" id="Path"></path>
                    <ellipse id="Oval" cx="58.5" cy="53" rx="1.5" ry="1"></ellipse>
                    <path d="M74.3810061,44.1238955 C74.722867,44.1238955 75,44.2922832 75,44.5 C75,44.7077168 74.722867,44.8761045 74.3810061,44.8761045 C73.6963109,45.0412985 72.9336111,45.0412985 72.2489159,44.8761045 C71.917028,44.6659143 71.917028,44.3340857 72.2489159,44.1238955 C72.9336111,43.9587015 73.6963109,43.9587015 74.3810061,44.1238955 L74.3810061,44.1238955 Z" id="Path"></path>
                    <path d="M79.5549451,42.1253808 C80.1483516,42.3335026 80.1483516,42.5 79.5549451,42.8746192 C78.8765751,43.0417936 78.1234249,43.0417936 77.4450549,42.8746192 C76.8516484,42.5 76.8516484,42.3335026 77.4450549,42.1253808 C78.1234249,41.9582064 78.8765751,41.9582064 79.5549451,42.1253808 Z" id="Path"></path>
                    <path d="M83.46,39.1514737 C83.7582338,39.1514737 84,39.3141927 84,39.5149168 C84,39.7156408 83.7582338,39.8783598 83.46,39.8783598 C82.8426833,40.0405467 82.1573167,40.0405467 81.54,39.8783598 C81.2417662,39.8783598 81,39.7156408 81,39.5149168 C81,39.3141927 81.2417662,39.1514737 81.54,39.1514737 C82.1448256,38.9495088 82.8551744,38.9495088 83.46,39.1514737 Z" id="Path"></path>
                    <ellipse id="Oval" cx="87.5" cy="37" rx="1.5" ry="1"></ellipse>
                    <ellipse id="Oval" cx="92.5" cy="34" rx="1.5" ry="1"></ellipse>
                    <path d="M97.6520061,31 C98.115998,31.3905609 98.115998,31.6075392 97.6520061,31.7811219 C97.1880142,31.9547045 96.466249,32.1716828 96.2600303,31.7811219 C96.0538117,31.3905609 95.7960384,31.3905609 96.2600303,31 L97.6520061,31 Z" id="Path"></path>
                    <path d="M26.46,67.1216402 C26.7582338,67.1216402 27,67.2843592 27,67.4850832 C27,67.6858073 26.7582338,67.8485263 26.46,67.8485263 C25.8551744,68.0504912 25.1448256,68.0504912 24.54,67.8485263 C24.2417662,67.8485263 24,67.6858073 24,67.4850832 C24,67.2843592 24.2417662,67.1216402 24.54,67.1216402 L24.54,67.1216402 C25.1573167,66.9594533 25.8426833,66.9594533 26.46,67.1216402 L26.46,67.1216402 Z" id="Path"></path>
                    <ellipse id="Oval" cx="30.5" cy="64" rx="1.5" ry="1"></ellipse>
                    <path d="M36.5449438,61.1200142 C37.1516854,61.3224155 37.1516854,61.4843366 36.5449438,61.8486589 C35.8888435,62.050447 35.1111565,62.050447 34.4550562,61.8486589 C33.8483146,61.4843366 33.8483146,61.3224155 34.4550562,61.1200142 C35.1261985,60.9599953 35.8738015,60.9599953 36.5449438,61.1200142 Z" id="Path"></path>
                    <path d="M40.7510841,58.1238955 C41.082972,58.3340857 41.082972,58.6659143 40.7510841,58.8761045 C40.0663889,59.0412985 39.3036891,59.0412985 38.6189939,58.8761045 C38.277133,58.8761045 38,58.7077168 38,58.5 C38,58.2922832 38.277133,58.1238955 38.6189939,58.1238955 L38.6189939,58.1238955 C39.3036891,57.9587015 40.0663889,57.9587015 40.7510841,58.1238955 Z" id="Path"></path>
                    <path d="M45.4,55.2957479 C45.7313708,55.2957479 46,55.6110523 46,56 C46,56.3889477 45.7313708,56.7042521 45.4,56.7042521 C44.8470279,57.0985826 44.1529721,57.0985826 43.6,56.7042521 C43.2686292,56.7042521 43,56.3889477 43,56 C43,55.6110523 43.2686292,55.2957479 43.6,55.2957479 C44.1529721,54.9014174 44.8470279,54.9014174 45.4,55.2957479 L45.4,55.2957479 Z" id="Path"></path>
                    <ellipse id="Oval" cx="49.5" cy="53" rx="1.5" ry="1"></ellipse>
                    <path d="M55.5449438,50.1238955 C56.1516854,50.5 56.1516854,50.6671576 55.5449438,50.8761045 C54.8738015,51.0412985 54.1261985,51.0412985 53.4550562,50.8761045 C52.8483146,50.6671576 52.8483146,50.5 53.4550562,50.1238955 C54.1261985,49.9587015 54.8738015,49.9587015 55.5449438,50.1238955 Z" id="Path"></path>
                    <path d="M60.4489796,47.1238955 C60.7532998,47.1238955 61,47.2922832 61,47.5 C61,47.7077168 60.7532998,47.8761045 60.4489796,47.8761045 C59.8394728,48.0412985 59.1605272,48.0412985 58.5510204,47.8761045 C58.2467002,47.8761045 58,47.7077168 58,47.5 C58,47.2922832 58.2467002,47.1238955 58.5510204,47.1238955 C59.1605272,46.9587015 59.8394728,46.9587015 60.4489796,47.1238955 Z" id="Path"></path>
                    <path d="M69.6666667,41.2957479 C70.1111111,41.6869991 70.1111111,42 69.6666667,42.7042521 C69.2570577,43.0985826 68.7429423,43.0985826 68.3333333,42.7042521 C67.8888889,42 67.8888889,41.6869991 68.3333333,41.2957479 C68.7429423,40.9014174 69.2570577,40.9014174 69.6666667,41.2957479 L69.6666667,41.2957479 Z" id="Path"></path>
                    <path d="M74.3810061,39.1513411 C74.722867,39.1513411 75,39.3144537 75,39.5156634 C75,39.7168731 74.722867,39.8799858 74.3810061,39.8799858 C73.6963109,40.0400047 72.9336111,40.0400047 72.2489159,39.8799858 C71.917028,39.6763802 71.917028,39.3549466 72.2489159,39.1513411 C72.9182653,38.949553 73.7116567,38.949553 74.3810061,39.1513411 Z" id="Path"></path>
                    <ellipse id="Oval" cx="78.5" cy="37" rx="1.5" ry="1"></ellipse>
                    <path d="M83.46,33.1253808 C83.7582338,33.1253808 84,33.2931035 84,33.5 C84,33.7068965 83.7582338,33.8746192 83.46,33.8746192 C82.8426833,34.0417936 82.1573167,34.0417936 81.54,33.8746192 C81.2417662,33.8746192 81,33.7068965 81,33.5 C81,33.2931035 81.2417662,33.1253808 81.54,33.1253808 C82.1573167,32.9582064 82.8426833,32.9582064 83.46,33.1253808 L83.46,33.1253808 Z" id="Path"></path>
                    <ellipse id="Oval" cx="87.5" cy="31" rx="1.5" ry="1"></ellipse>
                    <ellipse id="Oval" cx="92.5" cy="28" rx="1.5" ry="1"></ellipse>
                    <path d="M22.4,64.1206089 C22.7313708,64.1206089 23,64.2833055 23,64.4840018 C23,64.6846981 22.7313708,64.8473946 22.4,64.8473946 C21.8470279,65.0508685 21.1529721,65.0508685 20.6,64.8473946 C20.2686292,64.8473946 20,64.6846981 20,64.4840018 C20,64.2833055 20.2686292,64.1206089 20.6,64.1206089 L20.6,64.1206089 C21.1706252,63.959797 21.8293748,63.959797 22.4,64.1206089 L22.4,64.1206089 Z" id="Path"></path>
                    <ellipse id="Oval" cx="25.5" cy="62" rx="1.5" ry="1"></ellipse>
                    <ellipse id="Oval" cx="30.5" cy="59" rx="1.5" ry="1"></ellipse>
                    <path d="M36.4489796,55.1238955 C36.7532998,55.1238955 37,55.2922832 37,55.5 C37,55.7077168 36.7532998,55.8761045 36.4489796,55.8761045 C35.8394728,56.0412985 35.1605272,56.0412985 34.5510204,55.8761045 C34.2467002,55.8761045 34,55.7077168 34,55.5 C34,55.2922832 34.2467002,55.1238955 34.5510204,55.1238955 C35.1605272,54.9587015 35.8394728,54.9587015 36.4489796,55.1238955 Z" id="Path"></path>
                    <path d="M40.7510841,53.1238955 C41.082972,53.3340857 41.082972,53.6659143 40.7510841,53.8761045 C40.0663889,54.0412985 39.3036891,54.0412985 38.6189939,53.8761045 C38.277133,53.8761045 38,53.7077168 38,53.5 C38,53.2922832 38.277133,53.1238955 38.6189939,53.1238955 L38.6189939,53.1238955 C39.3036891,52.9587015 40.0663889,52.9587015 40.7510841,53.1238955 Z" id="Path"></path>
                    <path d="M45.6666667,49.2957479 C46.1111111,50 46.1111111,50.3130009 45.6666667,50.7042521 C45.2570577,51.0985826 44.7429423,51.0985826 44.3333333,50.7042521 C43.8888889,50.3130009 43.8888889,50 44.3333333,49.2957479 C44.7429423,48.9014174 45.2570577,48.9014174 45.6666667,49.2957479 L45.6666667,49.2957479 Z" id="Path"></path>
                    <path d="M50.3810061,47.1238955 C50.722867,47.1238955 51,47.2922832 51,47.5 C51,47.7077168 50.722867,47.8761045 50.3810061,47.8761045 C49.6963109,48.0412985 48.9336111,48.0412985 48.2489159,47.8761045 C47.917028,47.6659143 47.917028,47.3340857 48.2489159,47.1238955 C48.9336111,46.9587015 49.6963109,46.9587015 50.3810061,47.1238955 Z" id="Path"></path>
                    <ellipse id="Oval" cx="54.5" cy="45" rx="1.5" ry="1"></ellipse>
                    <path d="M60.5449438,42.1238955 C61.1516854,42.3328424 61.1516854,42.5 60.5449438,42.8761045 C59.8738015,43.0412985 59.1261985,43.0412985 58.4550562,42.8761045 C57.8483146,42.5 57.8483146,42.3328424 58.4550562,42.1238955 C59.1261985,41.9587015 59.8738015,41.9587015 60.5449438,42.1238955 Z" id="Path"></path>
                    <ellipse id="Oval" cx="63.5" cy="39" rx="1.5" ry="1"></ellipse>
                    <path d="M69.4,36.2957479 C69.7313708,36.2957479 70,36.6110523 70,37 C70,37.3889477 69.7313708,37.7042521 69.4,37.7042521 C68.8470279,38.0985826 68.1529721,38.0985826 67.6,37.7042521 C67.2686292,37.7042521 67,37.3889477 67,37 C67,36.6110523 67.2686292,36.2957479 67.6,36.2957479 L67.6,36.2957479 C68.1529721,35.9014174 68.8470279,35.9014174 69.4,36.2957479 Z" id="Path"></path>
                    <path d="M74.3810061,33.1238955 C74.722867,33.1238955 75,33.2922832 75,33.5 C75,33.7077168 74.722867,33.8761045 74.3810061,33.8761045 C73.6963109,34.0412985 72.9336111,34.0412985 72.2489159,33.8761045 C71.917028,33.6659143 71.917028,33.3340857 72.2489159,33.1238955 C72.9336111,32.9587015 73.6963109,32.9587015 74.3810061,33.1238955 Z" id="Path"></path>
                    <path d="M79.5549451,31 C80.1483516,31.361441 80.1483516,31.5622415 79.5549451,31.722882 C79.2809009,31.8997536 78.8992784,32 78.5,32 C78.1007216,32 77.7190991,31.8997536 77.4450549,31.722882 C76.8516484,31.5622415 76.8516484,31.361441 77.4450549,31 L79.5549451,31 Z" id="Path"></path>
                    <ellipse id="Oval" cx="82.5" cy="28" rx="1.5" ry="1"></ellipse>
                    <path d="M88.46,25 C88.7582338,25 89,25.2238576 89,25.5 C89,25.7761424 88.7582338,26 88.46,26 L86.54,26 C86.2417662,26 86,25.7761424 86,25.5 C86,25.2238576 86.2417662,25 86.54,25 L88.46,25 Z" id="Path"></path>
                    <ellipse id="Oval" cx="16.5" cy="62" rx="1.5" ry="1"></ellipse>
                    <ellipse id="Oval" cx="20.5" cy="59" rx="1.5" ry="1"></ellipse>
                    <ellipse id="Oval" cx="25.5" cy="56" rx="1.5" ry="1"></ellipse>
                    <path d="M40.8002682,47.0397835 C41.0665773,47.2701534 41.0665773,47.6338399 40.8002682,47.8642097 C40.2508643,48.0452634 39.6388688,48.0452634 39.0894649,47.8642097 C38.59278,47.6352024 40.3035834,46.8107762 40.8002682,47.0397835 Z" id="Path"></path>
                    <path d="M43.6,44.2957479 C44.1529721,43.9014174 44.8470279,43.9014174 45.4,44.2957479 C45.7313708,44.2957479 46,44.6110523 46,45 C46,45.3889477 45.7313708,45.7042521 45.4,45.7042521 C44.8470279,46.0985826 44.1529721,46.0985826 43.6,45.7042521 C43.2686292,45.7042521 43,45.3889477 43,45 C43,44.6110523 43.2686292,44.2957479 43.6,44.2957479 L43.6,44.2957479 Z" id="Path"></path>
                    <path d="M49.1807229,42.1238955 C49.6604953,41.9587015 50.1949264,41.9587015 50.6746988,42.1238955 C51.1084337,42.3328424 51.1084337,42.5 50.6746988,42.8761045 C50.1949264,43.0412985 49.6604953,43.0412985 49.1807229,42.8761045 C48.939759,42.5 48.939759,42.3328424 49.1807229,42.1238955 L49.1807229,42.1238955 Z" id="Path"></path>
                    <path d="M55.4489796,39.1513411 C55.7532998,39.1513411 56,39.3144537 56,39.5156634 C56,39.7168731 55.7532998,39.8799858 55.4489796,39.8799858 C54.8394728,40.0400047 54.1605272,40.0400047 53.5510204,39.8799858 C53.2467002,39.8799858 53,39.7168731 53,39.5156634 C53,39.3144537 53.2467002,39.1513411 53.5510204,39.1513411 C54.1468666,38.949553 54.8531334,38.949553 55.4489796,39.1513411 Z" id="Path"></path>
                    <path d="M60.4489796,36.1513411 C60.7532998,36.1513411 61,36.3144537 61,36.5156634 C61,36.7168731 60.7532998,36.8799858 60.4489796,36.8799858 C59.8394728,37.0400047 59.1605272,37.0400047 58.5510204,36.8799858 C58.2467002,36.8799858 58,36.7168731 58,36.5156634 C58,36.3144537 58.2467002,36.1513411 58.5510204,36.1513411 C59.1468666,35.949553 59.8531334,35.949553 60.4489796,36.1513411 Z" id="Path"></path>
                    <path d="M12.7510841,58.1238955 C13.082972,58.3340857 13.082972,58.6659143 12.7510841,58.8761045 C12.0663889,59.0412985 11.3036891,59.0412985 10.6189939,58.8761045 C10.277133,58.8761045 10,58.7077168 10,58.5 C10,58.2922832 10.277133,58.1238955 10.6189939,58.1238955 L10.6189939,58.1238955 C11.3036891,57.9587015 12.0663889,57.9587015 12.7510841,58.1238955 Z" id="Path"></path>
                    <ellipse id="Oval" cx="16.5" cy="56" rx="1.5" ry="1"></ellipse>
                    <ellipse id="Oval" cx="20.5" cy="53" rx="1.5" ry="1"></ellipse>
                    <path d="M55.4489796,33.1238955 C55.7532998,33.1238955 56,33.2922832 56,33.5 C56,33.7077168 55.7532998,33.8761045 55.4489796,33.8761045 C54.8394728,34.0412985 54.1605272,34.0412985 53.5510204,33.8761045 C53.2467002,33.8761045 53,33.7077168 53,33.5 C53,33.2922832 53.2467002,33.1238955 53.5510204,33.1238955 C54.1605272,32.9587015 54.8394728,32.9587015 55.4489796,33.1238955 Z" id="Path"></path>
                    <ellipse id="Oval" cx="6.5" cy="56" rx="1.5" ry="1"></ellipse>
                    <path d="M11.8192771,53.1238955 C12.060241,53.3328424 12.060241,53.5 11.8192771,53.8761045 C11.3395047,54.0412985 10.8050736,54.0412985 10.3253012,53.8761045 C9.89156627,53.5 9.89156627,53.3328424 10.3253012,53.1238955 C10.8050736,52.9587015 11.3395047,52.9587015 11.8192771,53.1238955 L11.8192771,53.1238955 Z" id="Path"></path>
                    <path d="M17.4,49.2957479 C17.7313708,49.2957479 18,49.6110523 18,50 C18,50.3889477 17.7313708,50.7042521 17.4,50.7042521 C16.8470279,51.0985826 16.1529721,51.0985826 15.6,50.7042521 C15.2686292,50.7042521 15,50.3889477 15,50 C15,49.6110523 15.2686292,49.2957479 15.6,49.2957479 C16.1529721,48.9014174 16.8470279,48.9014174 17.4,49.2957479 Z" id="Path"></path>
                    <path d="M2.55494505,53.1253808 C3.14835165,53.3335026 3.14835165,53.5 2.55494505,53.8746192 C1.87657508,54.0417936 1.12342492,54.0417936 0.445054945,53.8746192 C-0.148351648,53.5 -0.148351648,53.3335026 0.445054945,53.1253808 C1.12342492,52.9582064 1.87657508,52.9582064 2.55494505,53.1253808 L2.55494505,53.1253808 Z" id="Path"></path>
                    <ellipse id="Oval" cx="6.5" cy="50" rx="1.5" ry="1"></ellipse>
                    <path d="M12.7510841,47.1238955 C13.082972,47.3340857 13.082972,47.6659143 12.7510841,47.8761045 C12.0663889,48.0412985 11.3036891,48.0412985 10.6189939,47.8761045 C10.277133,47.8761045 10,47.7077168 10,47.5 C10,47.2922832 10.277133,47.1238955 10.6189939,47.1238955 L10.6189939,47.1238955 C11.3036891,46.9587015 12.0663889,46.9587015 12.7510841,47.1238955 L12.7510841,47.1238955 Z" id="Path"></path>
                    <path d="M2.46,47.1253808 C2.75823376,47.1253808 3,47.2931035 3,47.5 C3,47.7068965 2.75823376,47.8746192 2.46,47.8746192 C1.84268333,48.0417936 1.15731667,48.0417936 0.54,47.8746192 C0.241766235,47.8746192 0,47.7068965 0,47.5 C0,47.2931035 0.241766235,47.1253808 0.54,47.1253808 C1.15731667,46.9582064 1.84268333,46.9582064 2.46,47.1253808 L2.46,47.1253808 Z" id="Path"></path>
                    <path d="M7.46,44.1253808 C7.75823376,44.1253808 8,44.2931035 8,44.5 C8,44.7068965 7.75823376,44.8746192 7.46,44.8746192 C6.84268333,45.0417936 6.15731667,45.0417936 5.54,44.8746192 C5.24176624,44.8746192 5,44.7068965 5,44.5 C5,44.2931035 5.24176624,44.1253808 5.54,44.1253808 L5.54,44.1253808 C6.15731667,43.9582064 6.84268333,43.9582064 7.46,44.1253808 L7.46,44.1253808 Z" id="Path"></path>
                    <path d="M11.9680794,42.7193059 C11.5102782,43.0935647 10.8097095,43.0935647 10.3519082,42.7193059 C9.88269726,42.5791307 9.88269726,42.3455053 10.3519082,42.0651548 C10.8211192,41.7848044 12.2287521,42.4856805 11.9680794,42.7193059 Z" id="Path"></path>
                    <path d="M112.44898,22 C112.7533,22 113,22.2238576 113,22.5 C113,22.7761424 112.7533,23 112.44898,23 L110.55102,23 C110.2467,23 110,22.7761424 110,22.5 C110,22.2238576 110.2467,22 110.55102,22 L112.44898,22 Z" id="Path"></path>
                    <path d="M117.544944,19.2133217 C118.151685,19.8608938 118.151685,20.2206561 117.544944,20.508466 C117.276735,20.8216224 116.897525,21 116.5,21 C116.102475,21 115.723265,20.8216224 115.455056,20.508466 C114.848315,20.2206561 114.848315,19.8608938 115.455056,19.2133217 C116.126198,18.9288928 116.873802,18.9288928 117.544944,19.2133217 Z" id="Path"></path>
                    <path d="M121.4,17.1206089 C121.731371,17.1206089 122,17.2833055 122,17.4840018 C122,17.6846981 121.731371,17.8473946 121.4,17.8473946 C120.847028,18.0508685 120.152972,18.0508685 119.6,17.8473946 C119.268629,17.8473946 119,17.6846981 119,17.4840018 C119,17.2833055 119.268629,17.1206089 119.6,17.1206089 C120.170625,16.959797 120.829375,16.959797 121.4,17.1206089 L121.4,17.1206089 Z" id="Path"></path>
                    <path d="M126.381006,14.1200142 C126.722867,14.1200142 127,14.2831269 127,14.4843366 C127,14.6855463 126.722867,14.8486589 126.381006,14.8486589 C125.711657,15.050447 124.918265,15.050447 124.248916,14.8486589 C123.917028,14.6450534 123.917028,14.3236198 124.248916,14.1200142 C124.933611,13.9599953 125.696311,13.9599953 126.381006,14.1200142 L126.381006,14.1200142 Z" id="Path"></path>
                    <path d="M131.544944,11.1200142 C132.151685,11.3224155 132.151685,11.4843366 131.544944,11.8486589 C130.888844,12.050447 130.111156,12.050447 129.455056,11.8486589 C128.848315,11.4843366 128.848315,11.3224155 129.455056,11.1200142 C130.126198,10.9599953 130.873802,10.9599953 131.544944,11.1200142 L131.544944,11.1200142 Z" id="Path"></path>
                    <path d="M96.6,25 L98.4,25 C98.7313708,25 99,25.2238576 99,25.5 C99,25.7761424 98.7313708,26 98.4,26 L96.6,26 C96.2686292,26 96,25.7761424 96,25.5 C96,25.2238576 96.2686292,25 96.6,25 Z" id="Path"></path>
                    <ellipse id="Oval" cx="106.5" cy="20" rx="1.5" ry="1"></ellipse>
                    <path d="M112.44898,17.1200142 C112.7533,17.1200142 113,17.2831269 113,17.4843366 C113,17.6855463 112.7533,17.8486589 112.44898,17.8486589 C111.853133,18.050447 111.146867,18.050447 110.55102,17.8486589 C110.2467,17.8486589 110,17.6855463 110,17.4843366 C110,17.2831269 110.2467,17.1200142 110.55102,17.1200142 L110.55102,17.1200142 C111.160527,16.9599953 111.839473,16.9599953 112.44898,17.1200142 Z" id="Path"></path>
                    <ellipse id="Oval" cx="116.5" cy="15" rx="1.5" ry="1"></ellipse>
                    <path d="M121.666667,11.1206089 C122.111111,11.3224939 122.111111,11.4840018 121.666667,11.8473946 C121.257058,12.0508685 120.742942,12.0508685 120.333333,11.8473946 C119.888889,11.4840018 119.888889,11.3224939 120.333333,11.1206089 C120.756019,10.959797 121.243981,10.959797 121.666667,11.1206089 L121.666667,11.1206089 Z" id="Path"></path>
                    <path d="M126.381006,8.12389549 C126.722867,8.12389549 127,8.29228322 127,8.5 C127,8.70771678 126.722867,8.87610451 126.381006,8.87610451 C125.696311,9.0412985 124.933611,9.0412985 124.248916,8.87610451 C123.917028,8.66591434 123.917028,8.33408566 124.248916,8.12389549 C124.933611,7.9587015 125.696311,7.9587015 126.381006,8.12389549 L126.381006,8.12389549 Z" id="Path"></path>
                    <path d="M131.44898,6.12389549 C131.7533,6.12389549 132,6.29228322 132,6.5 C132,6.70771678 131.7533,6.87610451 131.44898,6.87610451 C130.839473,7.0412985 130.160527,7.0412985 129.55102,6.87610451 C129.2467,6.87610451 129,6.70771678 129,6.5 C129,6.29228322 129.2467,6.12389549 129.55102,6.12389549 C130.160527,5.9587015 130.839473,5.9587015 131.44898,6.12389549 L131.44898,6.12389549 Z" id="Path"></path>
                    <path d="M91.6189939,22 L93.7510841,22 C94.082972,22.2794305 94.082972,22.7205695 93.7510841,23 L91.6189939,23 C91.277133,23 91,22.7761424 91,22.5 C91,22.2238576 91.277133,22 91.6189939,22 Z" id="Path"></path>
                    <path d="M97.6520061,19.2818083 C98.115998,19.9528669 98.115998,20.3256772 97.6520061,20.6239254 C97.1880142,20.9221736 96.466249,21.2949839 96.2600303,20.6239254 C96.0538117,19.9528669 95.7960384,19.9528669 96.2600303,19.2818083 C96.6876546,18.9060639 97.2243818,18.9060639 97.6520061,19.2818083 L97.6520061,19.2818083 Z" id="Path"></path>
                    <path d="M102.46,17.1216402 C102.758234,17.1216402 103,17.2843592 103,17.4850832 C103,17.6858073 102.758234,17.8485263 102.46,17.8485263 C101.855174,18.0504912 101.144826,18.0504912 100.54,17.8485263 C100.241766,17.8485263 100,17.6858073 100,17.4850832 C100,17.2843592 100.241766,17.1216402 100.54,17.1216402 L100.54,17.1216402 C101.157317,16.9594533 101.842683,16.9594533 102.46,17.1216402 Z" id="Path"></path>
                    <ellipse id="Oval" cx="106.5" cy="15" rx="1.5" ry="1"></ellipse>
                    <path d="M112.544944,11.1200142 C113.151685,11.3224155 113.151685,11.4843366 112.544944,11.8486589 C111.888844,12.050447 111.111156,12.050447 110.455056,11.8486589 C109.848315,11.4843366 109.848315,11.3224155 110.455056,11.1200142 C111.126198,10.9599953 111.873802,10.9599953 112.544944,11.1200142 Z" id="Path"></path>
                    <path d="M117.44898,8.12389549 C117.7533,8.12389549 118,8.29228322 118,8.5 C118,8.70771678 117.7533,8.87610451 117.44898,8.87610451 C116.839473,9.0412985 116.160527,9.0412985 115.55102,8.87610451 C115.2467,8.87610451 115,8.70771678 115,8.5 C115,8.29228322 115.2467,8.12389549 115.55102,8.12389549 C116.160527,7.9587015 116.839473,7.9587015 117.44898,8.12389549 L117.44898,8.12389549 Z" id="Path"></path>
                    <path d="M121.4,5.29574786 C121.731371,5.29574786 122,5.61105229 122,6 C122,6.38894771 121.731371,6.70425214 121.4,6.70425214 C120.847028,7.09858262 120.152972,7.09858262 119.6,6.70425214 C119.268629,6.70425214 119,6.38894771 119,6 C119,5.61105229 119.268629,5.29574786 119.6,5.29574786 C120.152972,4.90141738 120.847028,4.90141738 121.4,5.29574786 L121.4,5.29574786 Z" id="Path"></path>
                    <path d="M126.381006,3.12389549 C126.722867,3.12389549 127,3.29228322 127,3.5 C127,3.70771678 126.722867,3.87610451 126.381006,3.87610451 C125.696311,4.0412985 124.933611,4.0412985 124.248916,3.87610451 C123.917028,3.66591434 123.917028,3.33408566 124.248916,3.12389549 C124.933611,2.9587015 125.696311,2.9587015 126.381006,3.12389549 L126.381006,3.12389549 Z" id="Path"></path>
                    <path d="M93.7510841,17.1200142 C94.082972,17.3236198 94.082972,17.6450534 93.7510841,17.8486589 C93.0817347,18.050447 92.2883433,18.050447 91.6189939,17.8486589 C91.277133,17.8486589 91,17.6855463 91,17.4843366 C91,17.2831269 91.277133,17.1200142 91.6189939,17.1200142 C92.3036891,16.9599953 93.0663889,16.9599953 93.7510841,17.1200142 Z" id="Path"></path>
                    <path d="M98.4,14.1206089 C98.7313708,14.1206089 99,14.2833055 99,14.4840018 C99,14.6846981 98.7313708,14.8473946 98.4,14.8473946 C97.8470279,15.0508685 97.1529721,15.0508685 96.6,14.8473946 C96.2686292,14.8473946 96,14.6846981 96,14.4840018 C96,14.2833055 96.2686292,14.1206089 96.6,14.1206089 L96.6,14.1206089 C97.1706252,13.959797 97.8293748,13.959797 98.4,14.1206089 L98.4,14.1206089 Z" id="Path"></path>
                    <path d="M121.618417,0.0430172082 C122.127194,0.411826263 122.127194,0.575741398 121.618417,0.780635317 C121.10964,0.985529236 120.600862,1.14944437 120.092085,0.780635317 C119.583307,0.411826263 121.335763,-0.161876711 121.618417,0.0430172082 Z" id="Path"></path>
                    <path d="M92.6423841,11.439485 C93.1192053,11.6762661 93.1192053,12.0709012 92.6423841,12.5444634 C92.2902111,13.085359 91.7232978,13.1529236 91.3178808,12.7023175 C91.2649007,12.6233904 91.2119205,12.6233904 91.2119205,12.5444634 C91.2119205,12.4655364 90.7350993,11.6762661 91.2119205,11.439485 C91.5669737,10.8856367 92.1528107,10.8507267 92.5364238,11.360558 L92.6423841,11.439485 Z" id="Path"></path>
                </g>
                <polygon id="Path" fill="#F6AD55" points="102.890838 121 76 105.692368 76.8460039 45 103.736842 53.9095201 107 102.762392"></polygon>
                <path d="M102.872029,122 L75,106.23341 L75.7842779,44 L104.500914,53.6384439 L108,102.782609 L103.716636,121.464531 L102.872029,122 Z M77.1115174,105.162471 L102.087751,119.322654 L105.888483,102.782609 L102.630713,54.9473684 L77.9561243,46.6773455 L77.1115174,105.162471 Z" id="Shape" fill="#C05621"></path>
                <polygon id="Path" fill="#F6AD55" points="66.5280665 142 40 126.6294 45.968815 84 50.008316 84.5403727 69 115.041408"></polygon>
                <path d="M67.5415861,142.463221 L66.4622824,143 L39,127.194831 L44.9361702,83 L50.5725338,84.0735586 L70,114.848907 L67.5415861,142.463221 Z M41.1586074,126.121272 L65.6827853,140.316103 L67.8413926,115.385686 L49.4932302,85.9224652 L46.794971,85.3856859 L41.1586074,126.121272 Z" id="Shape" fill="#C05621"></path>
                <polygon id="Path" fill="#F6AD55" points="5 146.648529 31 162 31 69.3514714 5 54"></polygon>
                <polygon id="Path" fill="#F6AD55" points="33.7242128 38 60 53.3121495 31.2757872 70 5 54.6878505"></polygon>
                <polygon id="Path" fill="#F6AD55" points="67 18.6878505 93.1339093 34 122 17.3121495 95.5691145 2"></polygon>
                <polygon id="Path" fill="#ED8936" points="33.7242128 46 60 61.154717 31.2757872 78 5 62.7849057"></polygon>
                <polygon id="Path" fill="#F6AD55" points="67.5689046 18 60 52.0423001 60.3003534 52.8241904 77.3003534 109 77.540636 108.759418 94 33.3972241"></polygon>
                <polygon id="Path" fill="#ED8936" points="67 26.7849057 93.1339093 42 122 25.154717 95.5691145 10"></polygon>
                <path d="M95.7353677,0 L66.030015,17.2715232 L58.8269135,50.6751288 L33.7053527,36.1022811 L4,53.3738043 L4,147.347682 L31.2646323,163 L51.3261631,151.36571 L51.3261631,110.465784 C51.3261631,105.608168 51.088044,99.1313466 50.7903952,91.3351729 L65.2561281,142.250184 L66.030015,142.789919 L87.4607304,130.376012 L101.628814,62.7891832 C101.628814,67.8866814 101.331166,71.125092 101.331166,72.7442973 L101.331166,121.200515 L102.402701,121.74025 L123,109.626196 L123,15.8922001 L95.7353677,0 Z M95.7353677,2.45879323 L120.083042,16.4319352 L93.2946473,31.7844003 L80.4957479,24.5279617 L69.0065033,17.8112583 L95.7353677,2.45879323 Z M67.6373187,19.4304636 L92.2231116,33.7034584 L76.7453727,105.308315 L61.2081041,53.0739514 L61.2081041,51.754599 L60.969985,51.754599 L67.6373187,19.4304636 Z M30.1930965,160.001472 L6.14307154,146.02833 L6.14307154,55.7726269 L30.1930965,69.8057395 L30.1930965,160.001472 Z M6.97648824,53.9135394 L33.7053527,38.5011038 L58.0530265,52.5342163 L31.2646323,67.8866814 L6.97648824,53.9135394 Z" id="Shape" fill="#C05621"></path>
            </g>
        </g>
    </g>
</svg>