<?xml version="1.0" encoding="UTF-8"?>
<svg width="290px" height="289px" viewBox="0 0 290 289" version="1.1" xmlns="http://www.w3.org/2000/svg" xmlns:xlink="http://www.w3.org/1999/xlink">
    <!-- Generator: Sketch 64 (93537) - https://sketch.com -->
    <title>web</title>
    <desc>Created with Sketch.</desc>
    <defs>
        <path d="M220,226.117519 L8,226.117519 C3.581722,226.117519 5.41083001e-16,222.535797 0,218.117519 L0,4.69854585 L0,4.69854585 C0,2.10361063 1.44026916,0 3.21693122,0 L224.783069,0 C226.559731,0 228,2.10361063 228,4.69854585 L228,218.117519 C228,222.535797 224.418278,226.117519 220,226.117519 Z" id="path-1"></path>
        <filter x="-4.6%" y="-4.6%" width="109.2%" height="109.3%" filterUnits="objectBoundingBox" id="filter-2">
            <feMorphology radius="1" operator="dilate" in="SourceAlpha" result="shadowSpreadOuter1"></feMorphology>
            <feOffset dx="0" dy="0" in="shadowSpreadOuter1" result="shadowOffsetOuter1"></feOffset>
            <feGaussianBlur stdDeviation="2.5" in="shadowOffsetOuter1" result="shadowBlurOuter1"></feGaussianBlur>
            <feColorMatrix values="0 0 0 0 0   0 0 0 0 0   0 0 0 0 0  0 0 0 0.1 0" type="matrix" in="shadowBlurOuter1"></feColorMatrix>
        </filter>
        <path d="M220,226.117519 L8,226.117519 C3.581722,226.117519 5.41083001e-16,222.535797 0,218.117519 L0,4.69854585 L0,4.69854585 C0,2.10361063 1.44026916,0 3.21693122,0 L224.783069,0 C226.559731,0 228,2.10361063 228,4.69854585 L228,218.117519 C228,222.535797 224.418278,226.117519 220,226.117519 Z" id="path-3"></path>
        <filter x="-2.6%" y="-2.7%" width="105.3%" height="105.3%" filterUnits="objectBoundingBox" id="filter-4">
            <feOffset dx="0" dy="0" in="SourceAlpha" result="shadowOffsetOuter1"></feOffset>
            <feGaussianBlur stdDeviation="2" in="shadowOffsetOuter1" result="shadowBlurOuter1"></feGaussianBlur>
            <feColorMatrix values="0 0 0 0 0   0 0 0 0 0   0 0 0 0 0  0 0 0 0.1 0" type="matrix" in="shadowBlurOuter1"></feColorMatrix>
        </filter>
    </defs>
    <g id="illustrations" stroke="none" stroke-width="1" fill="none" fill-rule="evenodd">
        <g id="web" transform="translate(5.000000, 6.000000)">
            <g id="browser-window">
                <g id="background-2-copy" transform="translate(140.000000, 139.724786) rotate(-15.000000) translate(-140.000000, -139.724786) translate(26.000000, 25.724786)">
                    <g id="Path" transform="translate(0.000000, 0.304605)">
                        <g id="path-3" fill-rule="nonzero">
                            <use fill="black" fill-opacity="1" filter="url(#filter-2)" xlink:href="#path-1"></use>
                            <use fill="#000000" xlink:href="#path-1"></use>
                        </g>
                        <path d="M220,226.117519 L8,226.117519 C3.581722,226.117519 5.41083001e-16,222.535797 0,218.117519 L0,4.69854585 L0,4.69854585 C0,2.10361063 1.44026916,0 3.21693122,0 L224.783069,0 C226.559731,0 228,2.10361063 228,4.69854585 L228,218.117519 C228,222.535797 224.418278,226.117519 220,226.117519 Z" id="path-3" fill="#3182CE"></path>
                    </g>
                </g>
                <g id="background-2" transform="translate(26.000000, 25.724786)">
                    <g id="Path" transform="translate(0.000000, 0.304605)">
                        <g id="path-3" fill-rule="nonzero">
                            <use fill="black" fill-opacity="1" filter="url(#filter-4)" xlink:href="#path-3"></use>
                            <use fill="#000000" xlink:href="#path-3"></use>
                        </g>
                        <path d="M220,226.117519 L8,226.117519 C3.581722,226.117519 5.41083001e-16,222.535797 0,218.117519 L0,4.69854585 L0,4.69854585 C0,2.10361063 1.44026916,0 3.21693122,0 L224.783069,0 C226.559731,0 228,2.10361063 228,4.69854585 L228,218.117519 C228,222.535797 224.418278,226.117519 220,226.117519 Z" id="path-3" fill="#3182CE"></path>
                    </g>
                </g>
                <g id="Group-8" transform="translate(34.364974, 32.610257)" fill-rule="nonzero">
                    <ellipse id="Oval" fill="#FD7E98" cx="2.53703704" cy="2.53675234" rx="2.53703704" ry="2.53675234"></ellipse>
                    <ellipse id="Oval" fill="#FFD56A" cx="13.6130159" cy="2.53675234" rx="2.53703704" ry="2.53675234"></ellipse>
                    <ellipse id="Oval" fill="#79E2AA" cx="24.6889947" cy="2.53675234" rx="2.53703704" ry="2.53675234"></ellipse>
                </g>
            </g>
            <g id="Group" transform="translate(61.000000, 78.000000)" fill-rule="nonzero">
                <g id="Group-9" transform="translate(0.000000, 89.000000)" fill="#CFCFCF">
                    <path d="M24.6156192,21.2830886 C24.7247372,21.2818869 24.8289357,21.3637055 24.9019332,21.5079078 C24.9749307,21.6521101 25.0097584,21.8449295 24.9976319,22.0377322 C24.9976319,22.4128325 24.826599,22.7169114 24.6156192,22.7169114 C24.247901,23.0943629 23.7948535,23.0943629 23.4271353,22.7169114 C23.3186911,22.7384712 23.2102374,22.6765511 23.1291291,22.5467691 C23.0480208,22.416987 23.0020009,22.2317328 23.0026768,22.0377322 C22.9888478,21.831024 23.0291001,21.6244567 23.1118918,21.4772616 C23.1946834,21.3300666 23.3108698,21.2585021 23.4271353,21.2830886 L23.4271353,21.2830886 C23.7948535,20.9056371 24.247901,20.9056371 24.6156192,21.2830886 Z" id="Path"></path>
                    <circle id="Oval" cx="30" cy="20" r="1"></circle>
                    <path d="M34.6456462,18.2394815 C34.8401447,18.2394815 34.9978168,18.5620564 34.9978168,18.9599727 C35.0089961,19.1645028 34.9768891,19.3690507 34.909594,19.5220243 C34.8422989,19.6749979 34.7462402,19.7617933 34.6456462,19.7605185 C34.2293638,20.0798272 33.7706362,20.0798272 33.3543538,19.7605185 C33.2537598,19.7617933 33.1577011,19.6749979 33.090406,19.5220243 C33.0231109,19.3690507 32.9910039,19.1645028 33.0021832,18.9599727 C33.0021832,18.5620564 33.1598553,18.2394815 33.3543538,18.2394815 L33.3543538,18.2394815 C33.7706362,17.9201728 34.2293638,17.9201728 34.6456462,18.2394815 Z" id="Path"></path>
                    <path d="M38.6470556,14.2322518 C38.8481923,14.2722679 39.001008,14.608424 39,15.0086299 C39,15.3945335 38.8419786,15.7073702 38.6470556,15.7073702 C38.2381951,16.0975433 37.7618049,16.0975433 37.3529444,15.7073702 C37.1580214,15.7073702 37,15.3945335 37,15.0086299 C36.998992,14.608424 37.1518077,14.2722679 37.3529444,14.2322518 C37.7701355,13.9225827 38.2298645,13.9225827 38.6470556,14.2322518 L38.6470556,14.2322518 Z" id="Path"></path>
                    <circle id="Oval" cx="41" cy="13" r="1"></circle>
                    <path d="M20.6808511,19.2911885 C21.106383,19.9898604 21.106383,20.3780115 20.6808511,20.7661625 C20.2430378,21.0779458 19.7569622,21.0779458 19.3191489,20.7661625 C18.893617,20.3780115 18.893617,19.9898604 19.3191489,19.2911885 C19.7481032,18.9029372 20.2518968,18.9029372 20.6808511,19.2911885 L20.6808511,19.2911885 Z" id="Path"></path>
                    <path d="M24.6156192,18.2830886 C24.826599,18.2830886 24.9976319,18.5871675 24.9976319,18.9622678 C25.0097584,19.1550705 24.9749307,19.3478899 24.9019332,19.4920922 C24.8289357,19.6362945 24.7247372,19.7181131 24.6156192,19.7169114 C24.247901,20.0943629 23.7948535,20.0943629 23.4271353,19.7169114 C23.3108698,19.7414979 23.1946834,19.6699334 23.1118918,19.5227384 C23.0291001,19.3755433 22.9888478,19.168976 23.0026768,18.9622678 C23.0020009,18.7682672 23.0480208,18.583013 23.1291291,18.4532309 C23.2102374,18.3234489 23.3186911,18.2615288 23.4271353,18.2830886 L23.4271353,18.2830886 C23.7948535,17.9056371 24.247901,17.9056371 24.6156192,18.2830886 Z" id="Path"></path>
                    <path d="M30.6062647,14.2322518 C30.8306475,14.2722679 31.0011245,14.608424 31,15.0086299 C31,15.3945335 30.8237156,15.7073702 30.6062647,15.7073702 C30.150151,16.0975433 29.618703,16.0975433 29.1625893,15.7073702 C28.9458036,15.2909183 28.9458036,14.6487037 29.1625893,14.2322518 C29.6279964,13.9225827 30.1408576,13.9225827 30.6062647,14.2322518 L30.6062647,14.2322518 Z" id="Path"></path>
                    <path d="M34.7096774,12.4637546 C35.0967742,12.7460338 35.0967742,13.0988827 34.7096774,13.7340108 C34.2612475,14.0886631 33.7387525,14.0886631 33.2903226,13.7340108 C32.9032258,13.0988827 32.9032258,12.7460338 33.2903226,12.4637546 C33.6883926,11.8454151 34.3116074,11.8454151 34.7096774,12.4637546 Z" id="Path"></path>
                    <path d="M38.6470556,10.2394815 C38.8481923,10.2807432 39.001008,10.6273635 39,11.0400273 C39,11.4379436 38.8419786,11.7605185 38.6470556,11.7605185 C38.2298645,12.0798272 37.7701355,12.0798272 37.3529444,11.7605185 C37.1580214,11.7605185 37,11.4379436 37,11.0400273 C36.998992,10.6273635 37.1518077,10.2807432 37.3529444,10.2394815 C37.7701355,9.92017283 38.2298645,9.92017283 38.6470556,10.2394815 Z" id="Path"></path>
                    <circle id="Oval" cx="41" cy="7" r="1"></circle>
                    <path d="M14.6157968,18.2394815 C14.8138451,18.2374135 14.9801974,18.5493717 15,18.9599727 C15,19.4021019 14.8279864,19.7605185 14.6157968,19.7605185 C14.2070651,20.0798272 13.7566581,20.0798272 13.3479264,19.7605185 C13.2491571,19.7617933 13.1548407,19.6749979 13.0887662,19.5220243 C13.0226917,19.3690507 12.9911671,19.1645028 13.0021436,18.9599727 C13.0021436,18.5620564 13.1569558,18.2394815 13.3479264,18.2394815 L13.3479264,18.2394815 C13.7566581,17.9201728 14.2070651,17.9201728 14.6157968,18.2394815 Z" id="Path"></path>
                    <path d="M20.6153859,14.2338375 C20.8199366,14.2699384 20.982114,14.5972761 21,15.0101396 C20.9801762,15.4083059 20.813646,15.7108169 20.6153859,15.7088115 C20.2276785,16.0970628 19.7723282,16.0970628 19.3846208,15.7088115 C19.2863563,15.73099 19.1880834,15.6672929 19.1145888,15.533786 C19.0410942,15.4002791 18.9993942,15.2097081 19,15.0101396 C19,14.5813998 19.1722043,14.2338375 19.3846208,14.2338375 C19.7803353,13.9220542 20.2196714,13.9220542 20.6153859,14.2338375 L20.6153859,14.2338375 Z" id="Path"></path>
                    <path d="M24.6804734,12.4020409 C25.1065089,12.695901 25.1065089,13.0632262 24.6804734,13.7244115 C24.2703796,14.0918628 23.7651233,14.0918628 23.3550296,13.7244115 C22.8816568,13.0632262 22.8816568,12.695901 23.3550296,12.4020409 C23.8284024,12.1081807 24.443787,11.6673905 24.6804734,12.4020409 Z" id="Path"></path>
                    <path d="M30.6062647,10.2394815 C30.8306475,10.2807432 31.0011245,10.6273635 31,11.0400273 C31,11.4379436 30.8237156,11.7605185 30.6062647,11.7605185 C30.1408576,12.0798272 29.6279964,12.0798272 29.1625893,11.7605185 C28.9458036,11.331103 28.9458036,10.668897 29.1625893,10.2394815 C29.6279964,9.92017283 30.1408576,9.92017283 30.6062647,10.2394815 Z" id="Path"></path>
                    <circle id="Oval" cx="34" cy="7" r="1"></circle>
                    <path d="M11.6470556,14.2322518 C11.8481923,14.2722679 12.001008,14.608424 12,15.0086299 C12,15.3945335 11.8419786,15.7073702 11.6470556,15.7073702 C11.2381951,16.0975433 10.7618049,16.0975433 10.3529444,15.7073702 C10.1580214,15.7073702 10,15.3945335 10,15.0086299 C9.99899197,14.608424 10.1518077,14.2722679 10.3529444,14.2322518 L10.3529444,14.2322518 C10.7701355,13.9225827 11.2298645,13.9225827 11.6470556,14.2322518 L11.6470556,14.2322518 Z" id="Path"></path>
                    <path d="M14.6825397,12.4637546 C15.1058201,12.7460338 15.1058201,13.0988827 14.6825397,13.7340108 C14.2412277,14.0886631 13.7270263,14.0886631 13.2857143,13.7340108 C12.9047619,13.0988827 12.9047619,12.7460338 13.2857143,12.4637546 C13.6774657,11.8454151 14.2907883,11.8454151 14.6825397,12.4637546 Z" id="Path"></path>
                    <circle id="Oval" cx="20" cy="11" r="1"></circle>
                    <path d="M7.70967742,12.4637546 C8.09677419,12.7460338 8.09677419,13.0988827 7.70967742,13.7340108 C7.26124751,14.0886631 6.73875249,14.0886631 6.29032258,13.7340108 C5.90322581,13.0988827 5.90322581,12.7460338 6.29032258,12.4637546 C6.68839258,11.8454151 7.31160742,11.8454151 7.70967742,12.4637546 L7.70967742,12.4637546 Z" id="Path"></path>
                    <path d="M11.6470556,10.2394815 C11.8481923,10.2807432 12.001008,10.6273635 12,11.0400273 C12,11.4379436 11.8419786,11.7605185 11.6470556,11.7605185 C11.2298645,12.0798272 10.7701355,12.0798272 10.3529444,11.7605185 C10.1580214,11.7605185 10,11.4379436 10,11.0400273 C9.99899197,10.6273635 10.1518077,10.2807432 10.3529444,10.2394815 L10.3529444,10.2394815 C10.7701355,9.92017283 11.2298645,9.92017283 11.6470556,10.2394815 Z" id="Path"></path>
                    <path d="M14.6470588,6.29517714 C14.8419829,6.29517714 15,6.61073709 15,7 C15,7.38926291 14.8419829,7.70482286 14.6470588,7.70482286 C14.2381963,8.09839238 13.7618037,8.09839238 13.3529412,7.70482286 C13.1580171,7.70482286 13,7.38926291 13,7 C13,6.61073709 13.1580171,6.29517714 13.3529412,6.29517714 L13.3529412,6.29517714 C13.7618037,5.90160762 14.2381963,5.90160762 14.6470588,6.29517714 L14.6470588,6.29517714 Z" id="Path"></path>
                    <path d="M1.60626474,10.2394815 C1.83064747,10.2807432 2.00112453,10.6273635 2,11.0400273 C2,11.4379436 1.82371563,11.7605185 1.60626474,11.7605185 C1.1408576,12.0798272 0.62799641,12.0798272 0.162589273,11.7605185 C-0.0541964243,11.331103 -0.0541964243,10.668897 0.162589273,10.2394815 C0.62799641,9.92017283 1.1408576,9.92017283 1.60626474,10.2394815 Z" id="Path"></path>
                    <path d="M7.64705882,6.29517714 C7.84198285,6.29517714 8,6.61073709 8,7 C8,7.38926291 7.84198285,7.70482286 7.64705882,7.70482286 C7.23819626,8.09839238 6.76180374,8.09839238 6.35294118,7.70482286 C6.15801715,7.70482286 6,7.38926291 6,7 C6,6.61073709 6.15801715,6.29517714 6.35294118,6.29517714 L6.35294118,6.29517714 C6.76180374,5.90160762 7.23819626,5.90160762 7.64705882,6.29517714 L7.64705882,6.29517714 Z" id="Path"></path>
                    <path d="M11.7096774,4.29262979 C12.0967742,4.68081884 12.0967742,4.99137009 11.7096774,5.76774819 C11.2521107,6.07741727 10.7478893,6.07741727 10.2903226,5.76774819 C9.90322581,4.99137009 9.90322581,4.68081884 10.2903226,4.29262979 C10.7387525,3.90245674 11.2612475,3.90245674 11.7096774,4.29262979 L11.7096774,4.29262979 Z" id="Path"></path>
                    <circle id="Oval" cx="1" cy="5" r="1"></circle>
                    <circle id="Oval" cx="7" cy="3" r="1"></circle>
                    <path d="M1.60626474,0 C1.82371563,0 2,0.42415129 2,0.947368421 C2.00112453,1.48997691 1.83064747,1.94574528 1.60626474,2 L0.162589273,2 C-0.0541964243,1.43536478 -0.0541964243,0.564635222 0.162589273,0 L1.60626474,0 Z" id="Path"></path>
                    <circle id="Oval" cx="124" cy="34" r="1"></circle>
                    <path d="M115.837411,33.2394815 C116.054196,33.668897 116.054196,34.331103 115.837411,34.7605185 C115.372004,35.0798272 114.859142,35.0798272 114.393735,34.7605185 C114.176284,34.7605185 114,34.4379436 114,34.0400273 C113.998875,33.6273635 114.169353,33.2807432 114.393735,33.2394815 C114.859142,32.9201728 115.372004,32.9201728 115.837411,33.2394815 Z" id="Path"></path>
                    <circle id="Oval" cx="119" cy="30" r="1"></circle>
                    <circle id="Oval" cx="107" cy="34" r="1"></circle>
                    <circle id="Oval" cx="111" cy="30" r="1"></circle>
                    <path d="M115.837411,27.2394815 C116.054196,27.668897 116.054196,28.331103 115.837411,28.7605185 C115.372004,29.0798272 114.859142,29.0798272 114.393735,28.7605185 C114.169353,28.7192568 113.998875,28.3726365 114,27.9599727 C114,27.5620564 114.176284,27.2394815 114.393735,27.2394815 C114.859142,26.9201728 115.372004,26.9201728 115.837411,27.2394815 Z" id="Path"></path>
                    <circle id="Oval" cx="97" cy="34" r="1"></circle>
                    <path d="M101.647059,29.2951771 C101.841983,29.2951771 102,29.6107371 102,30 C102,30.3892629 101.841983,30.7048229 101.647059,30.7048229 C101.238196,31.0983924 100.761804,31.0983924 100.352941,30.7048229 C100.158017,30.7048229 100,30.3892629 100,30 C100,29.6107371 100.158017,29.2951771 100.352941,29.2951771 C100.761804,28.9016076 101.238196,28.9016076 101.647059,29.2951771 L101.647059,29.2951771 Z" id="Path"></path>
                    <path d="M107.647056,27.2394815 C107.841979,27.2394815 108,27.5620564 108,27.9599727 C108.001008,28.3726365 107.848192,28.7192568 107.647056,28.7605185 C107.229864,29.0798272 106.770136,29.0798272 106.352944,28.7605185 C106.151808,28.7192568 105.998992,28.3726365 106,27.9599727 C106,27.5620564 106.158021,27.2394815 106.352944,27.2394815 L106.352944,27.2394815 C106.770136,26.9201728 107.229864,26.9201728 107.647056,27.2394815 Z" id="Path"></path>
                    <circle id="Oval" cx="111" cy="26" r="1"></circle>
                    <path d="M88.6470556,33.2394815 C88.8481923,33.2807432 89.001008,33.6273635 89,34.0400273 C89,34.4379436 88.8419786,34.7605185 88.6470556,34.7605185 C88.2298645,35.0798272 87.7701355,35.0798272 87.3529444,34.7605185 C87.1580214,34.7605185 87,34.4379436 87,34.0400273 C86.998992,33.6273635 87.1518077,33.2807432 87.3529444,33.2394815 C87.7701355,32.9201728 88.2298645,32.9201728 88.6470556,33.2394815 Z" id="Path"></path>
                    <circle id="Oval" cx="92" cy="30" r="1"></circle>
                    <circle id="Oval" cx="97" cy="28" r="1"></circle>
                    <path d="M101.709677,25.2951771 C102.096774,26 102.096774,26.3915683 101.709677,26.7048229 C101.261248,27.0983924 100.738752,27.0983924 100.290323,26.7048229 C99.9032258,26.3915683 99.9032258,26 100.290323,25.2951771 C100.738752,24.9016076 101.261248,24.9016076 101.709677,25.2951771 L101.709677,25.2951771 Z" id="Path"></path>
                    <path d="M107.647056,21.2926298 C107.841979,21.2926298 108,21.6054665 108,21.9913701 C108.001008,22.391576 107.848192,22.7277321 107.647056,22.7677482 C107.229864,23.0774173 106.770136,23.0774173 106.352944,22.7677482 C106.151808,22.7277321 105.998992,22.391576 106,21.9913701 C106,21.6054665 106.158021,21.2926298 106.352944,21.2926298 L106.352944,21.2926298 C106.761805,20.9024567 107.238195,20.9024567 107.647056,21.2926298 L107.647056,21.2926298 Z" id="Path"></path>
                    <path d="M78.6470556,33.2394815 C78.8481923,33.2807432 79.001008,33.6273635 79,34.0400273 C79,34.4379436 78.8419786,34.7605185 78.6470556,34.7605185 C78.2298645,35.0798272 77.7701355,35.0798272 77.3529444,34.7605185 C77.1580214,34.7605185 77,34.4379436 77,34.0400273 C76.998992,33.6273635 77.1518077,33.2807432 77.3529444,33.2394815 C77.7701355,32.9201728 78.2298645,32.9201728 78.6470556,33.2394815 L78.6470556,33.2394815 Z" id="Path"></path>
                    <path d="M84.6470588,29.2951771 C84.8419829,29.2951771 85,29.6107371 85,30 C85,30.3892629 84.8419829,30.7048229 84.6470588,30.7048229 C84.2381963,31.0983924 83.7618037,31.0983924 83.3529412,30.7048229 C83.1580171,30.7048229 83,30.3892629 83,30 C83,29.6107371 83.1580171,29.2951771 83.3529412,29.2951771 C83.7618037,28.9016076 84.2381963,28.9016076 84.6470588,29.2951771 L84.6470588,29.2951771 Z" id="Path"></path>
                    <circle id="Oval" cx="88" cy="28" r="1"></circle>
                    <circle id="Oval" cx="61" cy="34" r="1"></circle>
                    <path d="M51.6470556,33.2394815 C51.8481923,33.2807432 52.001008,33.6273635 52,34.0400273 C52,34.4379436 51.8419786,34.7605185 51.6470556,34.7605185 C51.2298645,35.0798272 50.7701355,35.0798272 50.3529444,34.7605185 C50.1580214,34.7605185 50,34.4379436 50,34.0400273 C49.998992,33.6273635 50.1518077,33.2807432 50.3529444,33.2394815 C50.7701355,32.9201728 51.2298645,32.9201728 51.6470556,33.2394815 Z" id="Path"></path>
                    <path d="M55.64,29.2941713 C55.8388225,29.2941713 56,29.6101816 56,30 C56,30.3898184 55.8388225,30.7058287 55.64,30.7058287 C55.2367829,31.0980571 54.7632171,31.0980571 54.36,30.7058287 C54.1611775,30.7058287 54,30.3898184 54,30 C54,29.6101816 54.1611775,29.2941713 54.36,29.2941713 C54.7632171,28.9019429 55.2367829,28.9019429 55.64,29.2941713 L55.64,29.2941713 Z" id="Path"></path>
                    <circle id="Oval" cx="43" cy="34" r="1"></circle>
                    <path d="M47.6,29.2951771 C47.8209139,29.2951771 48,29.6107371 48,30 C48,30.3892629 47.8209139,30.7048229 47.6,30.7048229 C47.1366224,31.0983924 46.5967109,31.0983924 46.1333333,30.7048229 C45.9555556,30.2871501 45.9555556,29.7128499 46.1333333,29.2951771 C46.5967109,28.9016076 47.1366224,28.9016076 47.6,29.2951771 L47.6,29.2951771 Z" id="Path"></path>
                    <path d="M51.7096774,27.2394815 C52.0967742,27.6397544 52.0967742,27.9599727 51.7096774,28.7605185 C51.2521107,29.0798272 50.7478893,29.0798272 50.2903226,28.7605185 C49.9032258,27.9599727 49.9032258,27.6397544 50.2903226,27.2394815 C50.7478893,26.9201728 51.2521107,26.9201728 51.7096774,27.2394815 Z" id="Path"></path>
                    <circle id="Oval" cx="38" cy="30" r="1"></circle>
                    <circle id="Oval" cx="43" cy="28" r="1"></circle>
                    <path d="M47.6,25.2951771 C47.8209139,25.2951771 48,25.6107371 48,26 C48,26.3892629 47.8209139,26.7048229 47.6,26.7048229 C47.1366224,27.0983924 46.5967109,27.0983924 46.1333333,26.7048229 C45.9555556,26.2871501 45.9555556,25.7128499 46.1333333,25.2951771 C46.5967109,24.9016076 47.1366224,24.9016076 47.6,25.2951771 Z" id="Path"></path>
                    <path d="M38.8666667,25.2951771 C39.0444444,25.7128499 39.0444444,26.2871501 38.8666667,26.7048229 C38.4032891,27.0983924 37.8633776,27.0983924 37.4,26.7048229 C37.1790861,26.7048229 37,26.3892629 37,26 C37,25.6107371 37.1790861,25.2951771 37.4,25.2951771 L37.4,25.2951771 C37.8633776,24.9016076 38.4032891,24.9016076 38.8666667,25.2951771 L38.8666667,25.2951771 Z" id="Path"></path>
                    <path d="M43.6086923,21.2830886 C43.8248025,21.2830886 44,21.5871675 44,21.9622678 C44.0011176,22.35127 43.8316916,22.6780156 43.6086923,22.7169114 C43.2320322,23.0943629 42.7679678,23.0943629 42.3913077,22.7169114 C42.1683084,22.6780156 41.9988824,22.35127 42,21.9622678 C42,21.5871675 42.1751975,21.2830886 42.3913077,21.2830886 C42.7679678,20.9056371 43.2320322,20.9056371 43.6086923,21.2830886 Z" id="Path"></path>
                    <circle id="Oval" cx="38" cy="20" r="1"></circle>
                    <path d="M43.6746988,18 C44.1084337,18.7309073 44.1084337,19.1369669 43.6746988,19.4618146 C43.5246357,19.7720288 43.305658,19.9649945 43.0688558,19.9956904 C42.8320537,20.0263862 42.5981389,19.8921275 42.4216867,19.6242384 C42.3684545,19.6242384 42.3253012,19.5515188 42.3253012,19.4618146 C41.8915663,19.1369669 41.8915663,18.7309073 42.3253012,18 L43.6746988,18 Z" id="Path"></path>
                    <path d="M142.870736,27.2394815 C143.043088,27.6991782 143.043088,28.3008218 142.870736,28.7605185 C142.396888,29.0798272 141.874725,29.0798272 141.400876,28.7605185 C141.172424,28.7192568 140.998855,28.3726365 141,27.9599727 C141,27.5620564 141.179482,27.2394815 141.400876,27.2394815 L141.400876,27.2394815 C141.874725,26.9201728 142.396888,26.9201728 142.870736,27.2394815 L142.870736,27.2394815 Z" id="Path"></path>
                    <path d="M147.607223,25.2830886 C147.718724,25.2818869 147.825199,25.3637055 147.899791,25.5079078 C147.974383,25.6521101 148.009972,25.8449295 147.99758,26.0377322 C147.99758,26.4128325 147.822811,26.7169114 147.607223,26.7169114 C147.231472,27.0943629 146.768528,27.0943629 146.392777,26.7169114 C146.177189,26.7169114 146.00242,26.4128325 146.00242,26.0377322 C145.990028,25.8449295 146.025617,25.6521101 146.100209,25.5079078 C146.174801,25.3637055 146.281276,25.2818869 146.392777,25.2830886 C146.768528,24.9056371 147.231472,24.9056371 147.607223,25.2830886 L147.607223,25.2830886 Z" id="Path"></path>
                    <path d="M151.599124,21.2926298 C151.820518,21.2926298 152,21.6054665 152,21.9913701 C152.001145,22.391576 151.827576,22.7277321 151.599124,22.7677482 C151.125275,23.0774173 150.603112,23.0774173 150.129264,22.7677482 C149.956912,22.3219292 149.956912,21.7384487 150.129264,21.2926298 C150.593651,20.9024567 151.134737,20.9024567 151.599124,21.2926298 L151.599124,21.2926298 Z" id="Path"></path>
                    <path d="M127.36,29.2941713 C127.763217,28.9019429 128.236783,28.9019429 128.64,29.2941713 C128.838823,29.2941713 129,29.6101816 129,30 C129,30.3898184 128.838823,30.7058287 128.64,30.7058287 C128.236783,31.0980571 127.763217,31.0980571 127.36,30.7058287 C127.161177,30.7058287 127,30.3898184 127,30 C127,29.6101816 127.161177,29.2941713 127.36,29.2941713 L127.36,29.2941713 Z" id="Path"></path>
                    <circle id="Oval" cx="132" cy="28" r="1"></circle>
                    <path d="M138.645646,25.2394815 C138.74624,25.2382067 138.842299,25.3250021 138.909594,25.4779757 C138.976889,25.6309493 139.008996,25.8354972 138.997817,26.0400273 C138.997817,26.4379436 138.840145,26.7605185 138.645646,26.7605185 C138.229364,27.0798272 137.770636,27.0798272 137.354354,26.7605185 C137.159855,26.7605185 137.002183,26.4379436 137.002183,26.0400273 C136.991004,25.8354972 137.023111,25.6309493 137.090406,25.4779757 C137.157701,25.3250021 137.25376,25.2382067 137.354354,25.2394815 C137.770636,24.9201728 138.229364,24.9201728 138.645646,25.2394815 L138.645646,25.2394815 Z" id="Path"></path>
                    <path d="M142.870736,21.2926298 C143.043088,21.7384487 143.043088,22.3219292 142.870736,22.7677482 C142.396888,23.0774173 141.874725,23.0774173 141.400876,22.7677482 C141.172424,22.7277321 140.998855,22.391576 141,21.9913701 C141,21.6054665 141.179482,21.2926298 141.400876,21.2926298 L141.400876,21.2926298 C141.865263,20.9024567 142.406349,20.9024567 142.870736,21.2926298 L142.870736,21.2926298 Z" id="Path"></path>
                    <path d="M147.607223,19.2830886 C147.718724,19.2818869 147.825199,19.3637055 147.899791,19.5079078 C147.974383,19.6521101 148.009972,19.8449295 147.99758,20.0377322 C147.99758,20.4128325 147.822811,20.7169114 147.607223,20.7169114 C147.231472,21.0943629 146.768528,21.0943629 146.392777,20.7169114 C146.177189,20.7169114 146.00242,20.4128325 146.00242,20.0377322 C145.990028,19.8449295 146.025617,19.6521101 146.100209,19.5079078 C146.174801,19.3637055 146.281276,19.2818869 146.392777,19.2830886 C146.768528,18.9056371 147.231472,18.9056371 147.607223,19.2830886 L147.607223,19.2830886 Z" id="Path"></path>
                    <circle id="Oval" cx="151" cy="19" r="1"></circle>
                    <path d="M123.241702,27.2407409 C123.672425,26.919753 124.150629,26.919753 124.581352,27.2407409 C124.68831,27.2179076 124.795277,27.2834852 124.875274,27.4209335 C124.95527,27.5583817 125.000659,27.7545788 125,27.960039 C125,28.4014361 124.812561,28.7592591 124.581352,28.7592591 C124.150629,29.080247 123.672425,29.080247 123.241702,28.7592591 C123.032382,28.3596491 122.823062,27.6403509 123.241702,27.2407409 Z" id="Path"></path>
                    <path d="M128.680851,25.2407409 C129.106383,25.6403509 129.106383,26.039961 128.680851,26.7592591 C128.243038,27.080247 127.756962,27.080247 127.319149,26.7592591 C126.893617,26.039961 126.893617,25.6403509 127.319149,25.2407409 C127.756962,24.919753 128.243038,24.919753 128.680851,25.2407409 L128.680851,25.2407409 Z" id="Path"></path>
                    <path d="M132.615379,21.2911885 C132.713644,21.26901 132.811917,21.3327071 132.885411,21.466214 C132.958906,21.5997209 133.000606,21.7902919 133,21.9898604 C133,22.4186002 132.827796,22.7661625 132.615379,22.7661625 C132.219665,23.0779458 131.780329,23.0779458 131.384614,22.7661625 C131.180063,22.7300616 131.017886,22.4027239 131,21.9898604 C131.019824,21.5916941 131.186354,21.2891831 131.384614,21.2911885 L131.384614,21.2911885 C131.772322,20.9029372 132.227672,20.9029372 132.615379,21.2911885 Z" id="Path"></path>
                    <path d="M138.645646,19.2394815 C138.74624,19.2382067 138.842299,19.3250021 138.909594,19.4779757 C138.976889,19.6309493 139.008996,19.8354972 138.997817,20.0400273 C138.997817,20.4379436 138.840145,20.7605185 138.645646,20.7605185 C138.229364,21.0798272 137.770636,21.0798272 137.354354,20.7605185 C137.159855,20.7605185 137.002183,20.4379436 137.002183,20.0400273 C136.991004,19.8354972 137.023111,19.6309493 137.090406,19.4779757 C137.157701,19.3250021 137.25376,19.2382067 137.354354,19.2394815 C137.770636,18.9201728 138.229364,18.9201728 138.645646,19.2394815 L138.645646,19.2394815 Z" id="Path"></path>
                    <path d="M142.608692,18.2830886 C142.831692,18.3219844 143.001118,18.64873 143,19.0377322 C143,19.4128325 142.824802,19.7169114 142.608692,19.7169114 C142.232032,20.0943629 141.767968,20.0943629 141.391308,19.7169114 C141.175198,19.7169114 141,19.4128325 141,19.0377322 C140.998882,18.64873 141.168308,18.3219844 141.391308,18.2830886 L141.391308,18.2830886 C141.767968,17.9056371 142.232032,17.9056371 142.608692,18.2830886 L142.608692,18.2830886 Z" id="Path"></path>
                    <circle id="Oval" cx="147" cy="15" r="1"></circle>
                    <path d="M151.647056,12 C151.848192,12.0542547 152.001008,12.5100231 152,13.0526316 C152,13.5758487 151.841979,14 151.647056,14 L150.352944,14 C150.158021,14 150,13.5758487 150,13.0526316 C149.998992,12.5100231 150.151808,12.0542547 150.352944,12 L151.647056,12 L151.647056,12 Z" id="Path"></path>
                    <path d="M155.64,10 C155.838823,10 156,10.4477153 156,11 C156,11.5522847 155.838823,12 155.64,12 L154.36,12 C154.161177,12 154,11.5522847 154,11 C154,10.4477153 154.161177,10 154.36,10 L155.64,10 Z" id="Path"></path>
                    <path d="M118.319527,25.2830886 C118.72962,24.9056371 119.234877,24.9056371 119.64497,25.2830886 C120.118343,25.6604104 120.118343,26.0377322 119.64497,26.7169114 C119.234877,27.0943629 118.72962,27.0943629 118.319527,26.7169114 C117.893491,26.0377322 117.893491,25.6604104 118.319527,25.2830886 Z" id="Path"></path>
                    <path d="M124.562515,21.2911885 C124.674286,21.26901 124.786066,21.3327071 124.869662,21.466214 C124.953258,21.5997209 125.000689,21.7902919 125,21.9898604 C125,22.4186002 124.804127,22.7661625 124.562515,22.7661625 C124.112412,23.0779458 123.612692,23.0779458 123.162589,22.7661625 C122.945804,22.3497514 122.945804,21.7075997 123.162589,21.2911885 C123.603585,20.9029372 124.12152,20.9029372 124.562515,21.2911885 L124.562515,21.2911885 Z" id="Path"></path>
                    <circle id="Oval" cx="128" cy="20" r="1"></circle>
                    <circle id="Oval" cx="132" cy="19" r="1"></circle>
                    <path d="M138.709677,14 C139.096774,14.9473684 139.096774,15.4736842 138.709677,16 L137.290323,16 C136.903226,15.4736842 136.903226,14.9473684 137.290323,14 L138.709677,14 Z" id="Path"></path>
                    <path d="M142.608692,12 C142.831692,12.0542547 143.001118,12.5100231 143,13.0526316 C143,13.5758487 142.824802,14 142.608692,14 L141.391308,14 C141.175198,14 141,13.5758487 141,13.0526316 C140.998882,12.5100231 141.168308,12.0542547 141.391308,12 L142.608692,12 L142.608692,12 Z" id="Path"></path>
                    <circle id="Oval" cx="147" cy="11" r="1"></circle>
                    <path d="M151.709677,6 C152.096774,6.52631579 152.096774,6.94736842 151.709677,8 L150.290323,8 C149.903226,6.94736842 149.903226,6.52631579 150.290323,6 L151.709677,6 Z" id="Path"></path>
                    <path d="M155.64,4.29417129 C155.838823,4.29417129 156,4.61018157 156,5 C156,5.38981843 155.838823,5.70582871 155.64,5.70582871 C155.236783,6.0980571 154.763217,6.0980571 154.36,5.70582871 C154.161177,5.70582871 154,5.38981843 154,5 C154,4.61018157 154.161177,4.29417129 154.36,4.29417129 L154.36,4.29417129 C154.763217,3.9019429 155.236783,3.9019429 155.64,4.29417129 Z" id="Path"></path>
                    <path d="M114.393735,21.2926298 C114.849849,20.9024567 115.381297,20.9024567 115.837411,21.2926298 C116.054196,21.7090817 116.054196,22.3512963 115.837411,22.7677482 C115.372004,23.0774173 114.859142,23.0774173 114.393735,22.7677482 C114.169353,22.7277321 113.998875,22.391576 114,21.9913701 C114,21.6054665 114.176284,21.2926298 114.393735,21.2926298 Z" id="Path"></path>
                    <circle id="Oval" cx="119" cy="20" r="1"></circle>
                    <path d="M124.562515,18.2338375 C124.804127,18.2338375 125,18.5813998 125,19.0101396 C125.000689,19.2097081 124.953258,19.4002791 124.869662,19.533786 C124.786066,19.6672929 124.674286,19.73099 124.562515,19.7088115 C124.12152,20.0970628 123.603585,20.0970628 123.162589,19.7088115 C122.945804,19.2924003 122.945804,18.6502486 123.162589,18.2338375 C123.612692,17.9220542 124.112412,17.9220542 124.562515,18.2338375 L124.562515,18.2338375 Z" id="Path"></path>
                    <circle id="Oval" cx="128" cy="15" r="1"></circle>
                    <path d="M132.615379,12 C132.827796,12 133,12.4698994 133,13.0495496 C133.000606,13.3193635 132.958906,13.5770129 132.885411,13.7575123 C132.811917,13.9380117 132.713644,14.0241294 132.615379,13.9941443 L131.384614,13.9941443 C131.186354,13.9968556 131.019824,13.587865 131,13.0495496 C131.017886,12.4913639 131.180063,12.0488079 131.384614,12 L132.615379,12 L132.615379,12 Z" id="Path"></path>
                    <path d="M110.354354,19.2394815 C110.770636,18.9201728 111.229364,18.9201728 111.645646,19.2394815 C111.74624,19.2382067 111.842299,19.3250021 111.909594,19.4779757 C111.976889,19.6309493 112.008996,19.8354972 111.997817,20.0400273 C111.997817,20.4379436 111.840145,20.7605185 111.645646,20.7605185 C111.229364,21.0798272 110.770636,21.0798272 110.354354,20.7605185 C110.159855,20.7605185 110.002183,20.4379436 110.002183,20.0400273 C109.991004,19.8354972 110.023111,19.6309493 110.090406,19.4779757 C110.157701,19.3250021 110.25376,19.2382067 110.354354,19.2394815 Z" id="Path"></path>
                </g>
                <polygon id="Path" fill="#63B3ED" points="46 77 46 110.338517 69 124 69 90.3803828"></polygon>
                <polygon id="Path" fill="#63B3ED" points="25 65.5802616 25 99 2 85.4197384 2 52"></polygon>
                <path d="M67.4973638,91 L44.7086116,78.076266 L68.742355,56.0298963 L75.0755712,50.7083588 C77.6562386,48.4564019 80.3480929,46.3359728 83.140949,44.3550946 L74.0471002,48.1561928 L63.7082601,51.957291 L24.7346221,66.4014643 L2,53.2062233 L55.5887522,2 L74.0471002,12.643075 L46.2242531,37.7303234 C39.945167,43.3233679 34.856942,47.6131788 30.797188,50.7083588 L46.7655536,44.3550946 L63.7082601,37.7303234 L97.0523726,25.838316 L114.7529,36.2098841 L94.0210896,55.2696766 L82.1666081,65.9127517 L71.773638,74.2751678 L93.7504394,65.3697376 L137.541652,49.4051251 L156,60.0482001 L67.4973638,91 Z" id="Path" fill="#63B3ED"></path>
                <path d="M67.4973638,97 L44.7086116,83.8528875 L68.742355,62.1033435 L75.0755712,56.8012158 C78.1068541,54.0419453 80.8674868,51.9860182 83.140949,50.2547112 L74.0471002,54.0419453 L63.7082601,58.0455927 L24.7346221,72.4911854 L2,59.3440729 L55.5887522,8 L74.0471002,18.6583587 L46.2242531,43.9246201 C39.945167,49.4972644 34.856942,53.7714286 30.797188,56.8012158 L46.7655536,50.2547112 L63.7082601,43.9246201 L97.0523726,32.0218845 L114.7529,42.1392097 L94.0210896,61.3458967 L82.1666081,71.7337386 L71.773638,80.2820669 L93.7504394,71.4632219 L137.541652,55.2863222 L156,66.1610942 L67.4973638,97 Z" id="Path" fill="#4299E1"></path>
                <path d="M138.567661,47.7508772 L116.807772,55.9087719 L116.807772,35.0789474 L98.0791117,24.1473684 L76.1027065,32.0333333 L76.1027065,11.4754386 L56.3997224,0 L2,52.3736842 L2,85.6035088 L25.7626648,99.3631579 L44.7619709,92.2385965 L44.7619709,110.294737 L68.2539903,124 L158,92.5105263 L158,58.954386 L138.567661,47.7508772 Z M24.7883414,74.9438596 L24.7883414,96.5350877 L4.05690493,84.6245614 L4.05690493,54.3859649 L13.3671062,59.7157895 L24.7883414,66.2964912 L24.7883414,74.9438596 Z M67.4961832,99.8526316 L67.4961832,121.44386 L46.7647467,109.261404 L46.7647467,79.022807 L67.4961832,91.2052632 L67.4961832,99.8526316 Z M47.2519084,77.2280702 L76.5898681,50.8508772 L84.925746,44.2157895 L83.9514226,42.6929825 L25.7626648,64.7736842 L14.3955586,58.1929825 L4.54406662,52.3736842 L56.6162387,2.28421053 L73.5586398,12.2368421 L31.3379598,49.2736842 L32.3664122,51.0684211 L75.3448994,34.3175439 L97.8625954,26.1596491 L114.263706,35.8403509 L72.0430257,72.9315789 L73.0714781,74.7263158 L116.049965,57.9210526 L138.297016,49.8175439 L154.752255,59.2263158 L84.4385843,83.8631579 L68.5246357,89.4649123 L47.2519084,77.2280702 Z" id="Shape" fill="#2A69AC"></path>
            </g>
        </g>
    </g>
</svg>