<?xml version="1.0" standalone="no"?><!-- Generator: Gravit.io --><svg xmlns="http://www.w3.org/2000/svg" xmlns:xlink="http://www.w3.org/1999/xlink" style="isolation:isolate" viewBox="-304.942 -888.395 388.942 388.942" width="388.942" height="388.942"><path d=" M -304.9 -693.9 C -304.9 -801.3 -217.8 -888.4 -110.5 -888.4 C -3.1 -888.4 84 -801.3 84 -693.9 C 84 -586.6 -3.1 -499.5 -110.5 -499.5 C -217.8 -499.5 -304.9 -586.6 -304.9 -693.9 Z " fill="rgb(235,235,235)"/><path d=" M -279.4 -693.9 C -279.4 -787.2 -203.7 -862.8 -110.5 -862.8 C -17.2 -862.8 58.5 -787.2 58.5 -693.9 C 58.5 -600.7 -17.2 -525 -110.5 -525 C -203.7 -525 -279.4 -600.7 -279.4 -693.9 Z " fill="rgb(235,235,235)"/><clipPath id="_clipPath_jiuczrg3AVPWHuiEltwdzeNwSq50LGXx"><path d=" M -279.4 -693.9 C -279.4 -787.2 -203.7 -862.8 -110.5 -862.8 C -17.2 -862.8 58.5 -787.2 58.5 -693.9 C 58.5 -600.7 -17.2 -525 -110.5 -525 C -203.7 -525 -279.4 -600.7 -279.4 -693.9 Z " fill="rgb(235,235,235)"/></clipPath><g clip-path="url(#_clipPath_jiuczrg3AVPWHuiEltwdzeNwSq50LGXx)"><g id="user"><g id="Group"><path d=" M -170.3 -722.1 C -170.3 -755.1 -143.5 -781.9 -110.5 -781.9 C -77.5 -781.9 -50.6 -755.1 -50.6 -722.1 C -50.6 -689.1 -77.5 -662.3 -110.5 -662.3 C -143.5 -662.3 -170.3 -689.1 -170.3 -722.1 Z " fill="rgb(0,0,0)" fill-opacity="0.25"/><path d=" M -110.5 -632.4 C -170.4 -632.4 -218.9 -583.8 -218.9 -523.9 L -2 -523.9 C -2 -583.8 -50.6 -632.4 -110.5 -632.4 Z " fill="rgb(0,0,0)" fill-opacity="0.25"/></g></g></g></svg>