<svg width="556" height="556" viewBox="0 0 556 556" fill="none" xmlns="http://www.w3.org/2000/svg">
<path d="M107.382 224.165C102.795 229.577 99.2367 235.16 97.0452 240.674" stroke="black" stroke-linecap="round" stroke-linejoin="round"/>
<path d="M314.024 221.339C306.806 214.959 298.09 210.006 290.246 210.006C276.842 210.006 276.624 217.095 263.563 217.095C243.426 217.095 228.484 183.429 189.758 183.429C171.735 183.429 151.302 190.819 133.991 201.675" stroke="black" stroke-linecap="round" stroke-linejoin="round"/>
<path d="M402.257 202.801C393.453 197.162 383.172 193.534 371.538 193.534C324.616 193.534 301.435 247.378 270.726 247.378C242.578 247.378 240.359 233.126 205.516 233.126C190.379 233.126 164.567 246.058 149.045 263.502" stroke="black" stroke-linecap="round" stroke-linejoin="round"/>
<path d="M276.985 317.745C276.792 316.821 276.72 315.875 276.772 314.932C276.916 311.935 278.12 309.553 279.464 309.618C279.686 309.644 279.899 309.719 280.089 309.836C280.279 309.954 280.44 310.112 280.562 310.299" stroke="black" stroke-linecap="round" stroke-linejoin="round"/>
<path d="M273.496 341.838C273.811 337.923 275.637 322.508 277.124 317.212" stroke="black" stroke-miterlimit="10" stroke-linecap="round"/>
<path d="M251.53 372.983V463.278H259.003L267.593 414.971C267.593 414.971 268.775 388.839 251.53 372.983Z" fill="black"/>
<path d="M276.147 371.204C276.355 373.808 278.954 421.189 278.954 421.189V464.329L271.286 465.15L266.356 419.28L251.53 372.983C253.772 371.751 270.197 369.43 276.147 371.204Z" fill="black"/>
<path d="M275.683 351.42C277.3 360.77 277.027 370.115 276.179 371.204C274.423 373.461 253.476 374.99 251.548 372.979C249.806 371.158 245.173 338.771 257.831 332.534" stroke="black" stroke-miterlimit="10" stroke-linecap="round"/>
<path d="M263.562 331.571C268.029 332.154 271.101 336.343 273.158 341.796" stroke="black" stroke-miterlimit="10" stroke-linecap="round"/>
<path d="M279.788 318.922C279.316 317.648 279.12 316.288 279.214 314.932C279.358 311.935 280.562 309.553 281.906 309.618C283.25 309.683 284.223 312.166 284.07 315.178C284.033 316.471 283.738 317.744 283.203 318.922" stroke="black" stroke-miterlimit="10" stroke-linecap="round"/>
<path d="M272.93 315.576L271.163 315.853L271.44 317.62L273.207 317.342L272.93 315.576Z" fill="black"/>
<path d="M263.562 328.142V331.501" stroke="black" stroke-linecap="round" stroke-linejoin="round"/>
<path d="M262.427 335.541C260.75 335.954 257.794 335.741 257.794 334.758V322.48" stroke="black" stroke-linecap="round" stroke-linejoin="round"/>
<path d="M268.543 314.14C269.137 315.667 269.435 317.293 269.424 318.931C269.424 324.028 266.722 328.151 263.4 328.151C262.353 328.132 261.345 327.747 260.551 327.062" stroke="black" stroke-miterlimit="10" stroke-linecap="round"/>
<path d="M258.484 322.397C258.302 322.449 258.113 322.475 257.924 322.475C257.615 322.476 257.31 322.405 257.033 322.269C256.757 322.133 256.515 321.934 256.327 321.689C256.139 321.444 256.011 321.159 255.951 320.856C255.891 320.553 255.903 320.241 255.984 319.943C256.064 319.645 256.213 319.37 256.418 319.139C256.622 318.908 256.878 318.727 257.163 318.611C257.449 318.494 257.758 318.446 258.066 318.468C258.374 318.491 258.672 318.584 258.938 318.741" stroke="black" stroke-linecap="round" stroke-linejoin="round"/>
<path d="M249.25 338.655C249.25 335.438 246.643 332.831 243.426 332.831C240.209 332.831 237.602 335.438 237.602 338.655V366.209C237.602 369.426 240.209 372.034 243.426 372.034C246.643 372.034 249.25 369.426 249.25 366.209V338.655Z" fill="black"/>
<path d="M266.31 350.822C265.115 357.93 259.36 363.332 252.466 363.332C244.691 363.332 238.39 356.507 238.39 348.093C238.39 339.679 244.691 332.849 252.466 332.849C254.583 332.872 256.666 333.385 258.551 334.35C260.435 335.315 262.07 336.705 263.326 338.409" stroke="black" stroke-miterlimit="10" stroke-linecap="round"/>
<path d="M269.197 341.477C271.486 341.597 275.035 341.903 276.763 342.524C276.948 341.352 277.995 324.56 279.779 318.936" stroke="black" stroke-linecap="round" stroke-linejoin="round"/>
<path d="M283.226 318.922C283.226 319.589 287.169 347.129 283.226 350.396C280.136 352.953 271.249 350.817 267.288 349.571" stroke="black" stroke-linecap="round" stroke-linejoin="round"/>
<path d="M254.676 340.406C255.982 335.087 267.816 339.512 268.886 340.726C270.17 342.181 267.876 350.382 266.106 350.762C263.22 351.387 252.98 347.305 254.676 340.406Z" stroke="black" stroke-miterlimit="10" stroke-linecap="round"/>
<path d="M150.991 393.685H180.76L123.423 158.298L100.071 254.171" stroke="black" stroke-miterlimit="10" stroke-linecap="round"/>
<path d="M119.359 340.244L78.5906 158.298L21.2531 414.174H91.5546" stroke="black" stroke-miterlimit="10" stroke-linecap="round"/>
<path d="M78.901 413.034V183.183" stroke="#949494" stroke-width="2.39" stroke-linecap="round" stroke-linejoin="round"/>
<path d="M78.901 258.98L91.3601 245.437" stroke="#949494" stroke-width="2.39" stroke-linecap="round" stroke-linejoin="round"/>
<path d="M78.901 323.842L97.6243 303.493" stroke="#949494" stroke-width="2.39" stroke-linecap="round" stroke-linejoin="round"/>
<path d="M78.901 391.507L88.0379 381.578" stroke="#949494" stroke-width="2.39" stroke-linecap="round" stroke-linejoin="round"/>
<path d="M78.9011 258.98L66.442 245.437" stroke="#949494" stroke-width="2.39" stroke-linecap="round" stroke-linejoin="round"/>
<path d="M78.901 323.842L60.1824 303.493" stroke="#949494" stroke-width="2.39" stroke-linecap="round" stroke-linejoin="round"/>
<path d="M78.901 391.507L49.7805 359.852" stroke="#949494" stroke-width="2.39" stroke-linecap="round" stroke-linejoin="round"/>
<path d="M119.633 340.244H119.628C102.307 340.244 88.265 354.286 88.265 371.607V400.232C88.265 417.553 102.307 431.595 119.628 431.595H119.633C136.954 431.595 150.996 417.553 150.996 400.232V371.607C150.996 354.286 136.954 340.244 119.633 340.244Z" stroke="#949494" stroke-width="2.39" stroke-linecap="round" stroke-linejoin="round"/>
<path d="M119.628 455.429V368.744" stroke="#949494" stroke-width="2.39" stroke-linecap="round" stroke-linejoin="round"/>
<path d="M119.628 405.607C136.771 405.607 136.771 395.284 136.771 379.66" stroke="#949494" stroke-width="2.39" stroke-linecap="round" stroke-linejoin="round"/>
<path d="M119.628 389.816C107.744 389.816 107.744 382.648 107.744 371.82" stroke="#949494" stroke-width="2.39" stroke-linecap="round" stroke-linejoin="round"/>
<path d="M347.903 393.685H390.465" stroke="black" stroke-linecap="round" stroke-linejoin="round"/>
<path d="M426.906 393.685H533.936V309.307C533.907 299.328 529.93 289.767 522.873 282.71C515.817 275.654 506.255 271.677 496.276 271.648V271.648C494.248 271.649 492.223 271.813 490.221 272.139V175.038C490.221 168.202 487.505 161.645 482.672 156.811C477.838 151.976 471.282 149.259 464.445 149.258V149.258C457.608 149.258 451.051 151.974 446.216 156.809C441.382 161.644 438.666 168.201 438.666 175.038V195.823C434.787 194.501 430.717 193.827 426.619 193.826V193.826C416.639 193.856 407.076 197.833 400.02 204.891C392.964 211.948 388.987 221.511 388.959 231.491V300.703H372.557C365.74 300.724 359.208 303.442 354.387 308.262C349.566 313.083 346.849 319.615 346.828 326.432V386.355C346.829 388.838 347.191 391.307 347.903 393.685" stroke="black" stroke-linecap="round" stroke-linejoin="round"/>
<path d="M463.407 343.26C505.854 343.26 505.854 324.264 505.854 295.537" stroke="#949494" stroke-width="2.39" stroke-linecap="round" stroke-linejoin="round"/>
<path d="M463.449 368.572C440.097 368.572 440.097 358.12 440.097 342.315" stroke="#949494" stroke-width="2.39" stroke-linecap="round" stroke-linejoin="round"/>
<path d="M463.407 393.685V168.732" stroke="#949494" stroke-width="2.39" stroke-linecap="round" stroke-linejoin="round"/>
<path d="M463.408 295.537L440.139 272.264" stroke="#949494" stroke-width="2.39" stroke-linecap="round" stroke-linejoin="round"/>
<path d="M463.407 247.517L477.488 233.441" stroke="#949494" stroke-width="2.39" stroke-linecap="round" stroke-linejoin="round"/>
<path d="M347.727 158.298C348.971 153.219 348.353 147.863 345.986 143.201C343.619 138.539 339.659 134.88 334.825 132.888C329.991 130.895 324.603 130.701 319.638 132.341C314.673 133.981 310.461 137.346 307.765 141.826C305.124 140.633 302.226 140.121 299.336 140.336C296.446 140.552 293.656 141.488 291.221 143.059C288.786 144.631 286.783 146.787 285.397 149.332C284.01 151.876 283.283 154.728 283.282 157.626C283.282 157.853 283.282 158.089 283.282 158.298H347.727Z" stroke="black" stroke-linecap="round" stroke-linejoin="round"/>
<path d="M135.252 124.303C134.008 119.225 134.626 113.868 136.993 109.206C139.36 104.544 143.32 100.885 148.154 98.8929C152.988 96.9004 158.376 96.7066 163.341 98.3466C168.306 99.9865 172.518 103.352 175.214 107.832C177.855 106.635 180.754 106.119 183.645 106.333C186.537 106.547 189.328 107.482 191.764 109.055C194.2 110.627 196.203 112.785 197.589 115.332C198.975 117.878 199.699 120.732 199.697 123.631C199.697 123.854 199.697 124.095 199.697 124.303H135.252Z" stroke="black" stroke-linecap="round" stroke-linejoin="round"/>
<path d="M469.885 452.283C466.581 441.747 449.206 433.708 428.273 433.708C404.977 433.708 386.11 443.656 386.11 455.948H461.79" stroke="black" stroke-linecap="round" stroke-linejoin="round"/>
<path d="M232.945 466.544C227.131 466.544 222.414 470.603 222.414 475.612H243.482C243.482 470.603 238.765 466.544 232.945 466.544Z" stroke="black" stroke-linecap="round" stroke-linejoin="round"/>
<path d="M386.096 418.131C380.276 418.131 375.564 424.154 375.564 431.595H396.613C396.613 424.158 391.91 418.131 386.096 418.131Z" stroke="black" stroke-linecap="round" stroke-linejoin="round"/>
<path d="M56.0032 451.551C46.7365 451.551 39.249 454.567 39.249 458.283H72.7434C72.7434 454.567 65.2559 451.551 56.0032 451.551Z" stroke="black" stroke-linecap="round" stroke-linejoin="round"/>
<path d="M477.488 451.551C468.222 451.551 460.734 454.567 460.734 458.283H494.238C494.238 454.567 486.741 451.551 477.488 451.551Z" stroke="black" stroke-linecap="round" stroke-linejoin="round"/>
<path d="M408.688 345.902H408.683C397.467 345.902 388.375 354.994 388.375 366.209V384.743C388.375 395.958 397.467 405.051 408.683 405.051H408.688C419.903 405.051 428.996 395.958 428.996 384.743V366.209C428.996 354.994 419.903 345.902 408.688 345.902Z" stroke="black" stroke-linecap="round" stroke-linejoin="round"/>
<path d="M408.688 420.489V364.356" stroke="#949494" stroke-width="2.39" stroke-linecap="round" stroke-linejoin="round"/>
<path d="M408.688 388.227C419.78 388.227 419.78 381.541 419.78 371.427" stroke="#949494" stroke-width="2.39" stroke-linecap="round" stroke-linejoin="round"/>
<path d="M408.688 378.001C400.992 378.001 400.992 373.368 400.992 366.344" stroke="#949494" stroke-width="2.39" stroke-linecap="round" stroke-linejoin="round"/>
<path d="M153.692 439.078H191.241" stroke="#949494" stroke-width="2.39" stroke-linecap="round" stroke-linejoin="round"/>
<path d="M309.692 414.174H334.592" stroke="#949494" stroke-width="2.39" stroke-linecap="round" stroke-linejoin="round"/>
<path d="M290.913 420.489H315.817" stroke="#949494" stroke-width="2.39" stroke-linecap="round" stroke-linejoin="round"/>
<path d="M54.1544 425.637H79.0586" stroke="#949494" stroke-width="2.39" stroke-linecap="round" stroke-linejoin="round"/>
<path d="M346.828 462.981H381.833" stroke="#949494" stroke-width="2.39" stroke-linecap="round" stroke-linejoin="round"/>
<path d="M255.894 317.508C254.931 316.73 254.819 311.022 257.252 309.071C259.684 307.12 266.797 305.596 269.882 302.941" stroke="black" stroke-miterlimit="10" stroke-linecap="round"/>
<path d="M267.807 308.177C268.516 307.57 270.744 304.095 271.12 303.159" stroke="black" stroke-miterlimit="10" stroke-linecap="round"/>
<path d="M269.915 309.451C270.692 308.335 271.237 307.075 271.518 305.744" stroke="black" stroke-miterlimit="10" stroke-linecap="round"/>
<path d="M284.07 315.169C284.04 315.792 283.959 316.412 283.829 317.022L287.591 316.711L286.581 310.6L283.634 311.527C284 312.704 284.147 313.938 284.07 315.169Z" fill="black"/>
<path d="M279.214 314.932C279.248 314.232 279.344 313.535 279.501 312.852L272.551 315.048L273.014 317.93L279.353 317.406C279.215 316.59 279.168 315.76 279.214 314.932Z" fill="black"/>
<path d="M252.192 463.278V473.777H267.163L256.473 467.123V462.93" stroke="black" stroke-linecap="round" stroke-linejoin="round"/>
<path d="M272.801 463.278V473.777H287.772L277.078 467.123V462.93" stroke="black" stroke-linecap="round" stroke-linejoin="round"/>
<path d="M265.986 317.508C265.986 318.06 266.236 319.788 267.417 320.673" stroke="black" stroke-miterlimit="10" stroke-linecap="round"/>
<path d="M264.35 322.197C264.49 322.461 264.699 322.682 264.956 322.834C265.213 322.986 265.507 323.064 265.805 323.059" stroke="black" stroke-miterlimit="10" stroke-linecap="round"/>
</svg>
