<svg width="141" height="35" viewBox="0 0 141 35" fill="none" xmlns="http://www.w3.org/2000/svg">
<path d="M17.5226 35C27.2 35 35.0452 27.165 35.0452 17.5C35.0452 7.83502 27.2 0 17.5226 0C7.84513 0 0 7.83502 0 17.5C0 27.165 7.84513 35 17.5226 35Z" fill="#FF3C3C"/>
<path d="M5.44873 17.4456L8.1432 14.7743L10.8179 17.4456H5.44873Z" fill="white"/>
<path d="M8.83936 14.1775L12.1708 17.4455H16.1871L10.8264 12.0917L8.83936 14.1775Z" fill="white"/>
<path d="M14.2029 14.1775L17.5371 17.4455H21.5506L16.1899 12.0917L14.2029 14.1775Z" fill="white"/>
<path d="M28.9999 18.3435L26.3055 21.0148L23.6307 18.3435H28.9999Z" fill="white"/>
<path d="M25.6122 21.6115L22.2779 18.3435H18.2644L23.6251 23.6973L25.6122 21.6115Z" fill="white"/>
<path d="M20.2457 21.6115L16.9143 18.3435H12.8979L18.2615 23.6973L20.2457 21.6115Z" fill="white"/>
<path fill-rule="evenodd" clip-rule="evenodd" d="M73.2097 19.5094C73.5837 20.1271 74.1198 20.6309 74.7599 20.9662C75.446 21.3074 76.2021 21.485 76.9686 21.485C77.7352 21.485 78.4912 21.3074 79.1774 20.9662C79.8175 20.6309 80.3536 20.1271 80.7276 19.5094C81.1016 18.8916 81.2993 18.1835 81.2993 17.4616C81.2993 16.7397 81.1016 16.0316 80.7276 15.4139C80.3536 14.7961 79.8175 14.2923 79.1774 13.957C78.4912 13.6158 77.7352 13.4382 76.9686 13.4382C76.2021 13.4382 75.446 13.6158 74.7599 13.957C74.1198 14.2923 73.5837 14.7961 73.2097 15.4139C72.8356 16.0316 72.6379 16.7397 72.6379 17.4616C72.6379 18.1835 72.8356 18.8916 73.2097 19.5094ZM78.7839 18.6175C78.6095 18.9418 78.3489 19.2116 78.0308 19.3974C77.7062 19.5786 77.3405 19.6738 76.9686 19.6738C76.5968 19.6738 76.2311 19.5786 75.9065 19.3974C75.5884 19.2116 75.3277 18.9418 75.1534 18.6175C74.9716 18.2593 74.8769 17.8633 74.8769 17.4616C74.8769 17.06 74.9716 16.664 75.1534 16.3057C75.3278 15.9823 75.5885 15.7134 75.9065 15.5289C76.2311 15.3477 76.5968 15.2525 76.9686 15.2525C77.3405 15.2525 77.7062 15.3477 78.0308 15.5289C78.3488 15.7134 78.6095 15.9823 78.7839 16.3057C78.9657 16.664 79.0604 17.06 79.0604 17.4616C79.0604 17.8633 78.9657 18.2593 78.7839 18.6175ZM54.0679 20.9662C53.4269 20.6317 52.8899 20.1281 52.5152 19.5103C52.1405 18.8925 51.9424 18.184 51.9424 17.4616C51.9424 16.7393 52.1405 16.0308 52.5152 15.413C52.8899 14.7951 53.4269 14.2916 54.0679 13.957C54.7535 13.6158 55.5091 13.4383 56.2751 13.4383C57.0411 13.4383 57.7967 13.6158 58.4823 13.957C59.1224 14.2923 59.6585 14.7961 60.0325 15.4139C60.4065 16.0316 60.6043 16.7397 60.6043 17.4616C60.6043 18.1835 60.4065 18.8917 60.0325 19.5094C59.6585 20.1271 59.1224 20.6309 58.4823 20.9662C57.7967 21.3074 57.0411 21.485 56.2751 21.485C55.5091 21.485 54.7535 21.3074 54.0679 20.9662ZM57.3357 19.3974C57.6584 19.2134 57.9234 18.9434 58.1011 18.6176C58.2829 18.2593 58.3776 17.8633 58.3776 17.4616C58.3776 17.06 58.2829 16.664 58.1011 16.3057C57.9267 15.9823 57.666 15.7135 57.348 15.529C57.0234 15.3477 56.6577 15.2526 56.2859 15.2526C55.914 15.2526 55.5483 15.3477 55.2237 15.529C54.9057 15.7135 54.645 15.9823 54.4706 16.3057C54.2888 16.664 54.1941 17.06 54.1941 17.4616C54.1941 17.8633 54.2888 18.2593 54.4706 18.6176C54.645 18.9418 54.9056 19.2116 55.2237 19.3974C55.5483 19.5786 55.914 19.6738 56.2859 19.6738C56.6577 19.6738 57.0234 19.5786 57.348 19.3974H57.3357ZM48.5713 21.3316V17.2298L46.5701 20.5702H45.5956L43.6127 17.3434V21.3346H41.59V13.5947H43.3914L46.112 18.0588L48.7681 13.5947H50.5726L50.5941 21.3316H48.5713ZM61.1107 15.3294H63.4901V21.3316H65.6819V15.3294H68.049V13.5947H61.1107V15.3294ZM69.0912 13.5947H71.28V21.3316H69.0912V13.5947ZM90.017 13.5947V21.3316H88.2278L84.794 17.2083V21.3316H82.6421V13.5947H84.4466L87.8712 17.7149V13.5947H90.017ZM101.391 21.3316L103.906 13.5947H101.831L100.204 18.5776L98.6428 13.5947H96.6292L94.9907 18.5346L93.426 13.5947H91.1665L93.6811 21.3316H96.0267L97.5638 16.6219L99.0455 21.3316H101.391ZM109.848 19.8272H106.574L105.959 21.3316H103.721L107.143 13.5947H109.295L112.725 21.3316H110.444L109.848 19.8272ZM109.206 18.2123L108.21 15.7377L107.214 18.2123H109.206ZM115.769 19.2746H116.965L118.382 21.3438H120.728L119.058 18.9123C119.518 18.6994 119.908 18.3596 120.18 17.9329C120.382 17.5949 120.511 17.2184 120.558 16.8276C120.605 16.4368 120.57 16.0405 120.454 15.6643C120.338 15.2881 120.144 14.9404 119.885 14.6436C119.626 14.3469 119.308 14.1077 118.951 13.9417C118.374 13.6974 117.751 13.5792 117.125 13.5947H113.577V21.3316H115.769V19.2746ZM116.986 15.3079C117.352 15.2842 117.713 15.3932 118.004 15.6149C118.122 15.7198 118.215 15.8499 118.275 15.9956C118.336 16.1412 118.363 16.2986 118.354 16.4561C118.359 16.6087 118.331 16.7605 118.27 16.9006C118.209 17.0407 118.119 17.1657 118.004 17.2667C117.712 17.4866 117.351 17.5955 116.986 17.5737H115.757V15.3079H116.986ZM128.21 19.6491V21.3408H121.988V13.5947H128.065V15.2833H124.158V16.5789H127.601V18.2153H124.158V19.6491H128.21ZM129.104 20.6377C129.544 20.9254 130.031 21.1333 130.543 21.2517C131.138 21.4139 131.752 21.4975 132.369 21.5004C133.013 21.5175 133.653 21.4025 134.251 21.1627C134.715 20.9786 135.118 20.6667 135.413 20.2632C135.667 19.8857 135.798 19.438 135.785 18.9829C135.809 18.52 135.657 18.065 135.36 17.7088C135.085 17.4017 134.739 17.1657 134.352 17.021C133.873 16.8538 133.383 16.7195 132.886 16.6189C132.497 16.5505 132.115 16.4478 131.745 16.3118C131.644 16.2814 131.556 16.2198 131.492 16.1359C131.429 16.0521 131.394 15.9503 131.392 15.8452C131.393 15.7418 131.422 15.6408 131.476 15.5527C131.531 15.4647 131.607 15.3928 131.699 15.3447C131.993 15.1944 132.323 15.1275 132.652 15.1513C133.408 15.1659 134.148 15.3708 134.804 15.7469L135.48 14.1228C135.073 13.8917 134.632 13.7239 134.174 13.6254C133.68 13.5114 133.174 13.4537 132.667 13.4535C132.023 13.435 131.382 13.5479 130.783 13.7851C130.318 13.968 129.915 14.2814 129.624 14.6877C129.367 15.0626 129.232 15.5075 129.237 15.9618C129.212 16.4271 129.362 16.8849 129.658 17.2452C129.93 17.5565 130.277 17.7941 130.666 17.936C131.143 18.1049 131.631 18.2393 132.126 18.3382C132.521 18.4158 132.908 18.5288 133.282 18.6759C133.386 18.7099 133.477 18.7756 133.541 18.8637C133.606 18.9518 133.641 19.0579 133.642 19.1671C133.642 19.5887 133.222 19.7996 132.382 19.7996C131.475 19.784 130.59 19.5195 129.824 19.0351L129.104 20.6377Z" fill="#FF3C3C"/>
</svg>
